<?xml version="1.0" encoding="utf-8"?>
<!-- Generator: Adobe Illustrator 23.0.3, SVG Export Plug-In . SVG Version: 6.00 Build 0)  -->
<svg version="1.1" id="Layer_1" xmlns="http://www.w3.org/2000/svg" xmlns:xlink="http://www.w3.org/1999/xlink" x="0px" y="0px"
	 viewBox="0 0 721.8 76.3" style="enable-background:new 0 0 721.8 76.3;" xml:space="preserve">
<style type="text/css">
	.st0{fill:#339AA5;}
	.st1{fill:#EF4848;}
	.st2{fill:#917177;}
	.st3{fill:none;}
	.st4{enable-background:new    ;}
</style>
<circle class="st0" cx="15.9" cy="17.9" r="7.2"/>
<circle class="st1" cx="35" cy="17.9" r="7.2"/>
<circle class="st1" cx="54.2" cy="17.9" r="7.2"/>
<circle class="st0" cx="15.9" cy="60.4" r="7.1"/>
<circle class="st0" cx="35" cy="60.4" r="7.2"/>
<circle class="st1" cx="73.4" cy="60.4" r="7.2"/>
<circle class="st0" cx="54.2" cy="60.4" r="7.2"/>
<circle class="st0" cx="92.5" cy="60.4" r="7.2"/>
<circle class="st0" cx="111.7" cy="60.4" r="7.2"/>
<circle class="st1" cx="150" cy="60.4" r="7.1"/>
<circle class="st0" cx="130.8" cy="60.4" r="7.1"/>
<circle class="st0" cx="188.3" cy="60.4" r="7.1"/>
<circle class="st1" cx="169.2" cy="60.4" r="7.1"/>
<circle class="st0" cx="73.3" cy="17.9" r="7.2"/>
<circle class="st1" cx="92.5" cy="17.9" r="7.2"/>
<circle class="st0" cx="111.6" cy="17.9" r="7.2"/>
<circle class="st0" cx="130.8" cy="17.9" r="7.1"/>
<circle class="st0" cx="149.9" cy="17.9" r="7.1"/>
<circle class="st2" cx="169.1" cy="17.9" r="7.1"/>
<circle class="st0" cx="188.3" cy="17.9" r="7.1"/>
<circle class="st0" cx="208.1" cy="17.7" r="7.1"/>
<circle class="st0" cx="227.3" cy="17.7" r="7.1"/>
<circle class="st0" cx="246.4" cy="17.7" r="7.1"/>
<circle class="st2" cx="208.1" cy="60.2" r="7.1"/>
<circle class="st0" cx="227.3" cy="60.2" r="7.1"/>
<circle class="st0" cx="265.6" cy="60.2" r="7.1"/>
<circle class="st1" cx="246.4" cy="60.2" r="7.1"/>
<circle class="st2" cx="284.8" cy="60.2" r="7.1"/>
<circle class="st0" cx="303.9" cy="60.2" r="7.1"/>
<circle class="st0" cx="342.2" cy="60.2" r="7.1"/>
<circle class="st0" cx="323.1" cy="60.2" r="7.1"/>
<circle class="st0" cx="380.5" cy="60.2" r="7.1"/>
<circle class="st0" cx="361.4" cy="60.2" r="7.1"/>
<circle class="st0" cx="265.5" cy="17.7" r="7.1"/>
<circle class="st0" cx="284.7" cy="17.7" r="7.1"/>
<circle class="st1" cx="304" cy="17.7" r="7.1"/>
<circle class="st1" cx="323.1" cy="17.7" r="7.1"/>
<circle class="st1" cx="342.3" cy="17.7" r="7.1"/>
<circle class="st1" cx="361.4" cy="17.7" r="7.1"/>
<circle class="st1" cx="380.7" cy="17.7" r="7.1"/>
<circle class="st1" cx="399.8" cy="17.7" r="7.1"/>
<circle class="st1" cx="419" cy="17.7" r="7.1"/>
<circle class="st1" cx="438.1" cy="17.7" r="7.1"/>
<circle class="st2" cx="457.3" cy="17.7" r="7.1"/>
<circle class="st1" cx="476.4" cy="17.7" r="7.1"/>
<circle class="st0" cx="15.9" cy="39.1" r="7.2"/>
<circle class="st2" cx="54.2" cy="39.1" r="7.2"/>
<circle class="st1" cx="35" cy="39.1" r="7.2"/>
<circle class="st0" cx="73.3" cy="39.1" r="7.2"/>
<circle class="st0" cx="92.5" cy="39.1" r="7.2"/>
<circle class="st1" cx="130.8" cy="39.1" r="7.1"/>
<circle class="st0" cx="111.6" cy="39.1" r="7.2"/>
<circle class="st0" cx="169.1" cy="39.1" r="7.1"/>
<circle class="st0" cx="149.9" cy="39.1" r="7.1"/>
<circle class="st0" cx="188.9" cy="39" r="7.1"/>
<circle class="st2" cx="208.1" cy="39" r="7.1"/>
<circle class="st1" cx="246.4" cy="39" r="7.1"/>
<circle class="st0" cx="227.2" cy="39" r="7.1"/>
<circle class="st1" cx="265.5" cy="39" r="7.1"/>
<circle class="st1" cx="284.7" cy="39" r="7.1"/>
<circle class="st1" cx="323" cy="39" r="7.1"/>
<circle class="st1" cx="303.9" cy="39" r="7.1"/>
<circle class="st1" cx="361.4" cy="39" r="7.1"/>
<circle class="st0" cx="342.2" cy="39" r="7.1"/>
<circle class="st1" cx="380.5" cy="39" r="7.1"/>
<circle class="st1" cx="399.7" cy="39" r="7.1"/>
<circle class="st0" cx="438" cy="39" r="7.1"/>
<circle class="st1" cx="418.9" cy="39" r="7.1"/>
<circle class="st0" cx="457.2" cy="38.6" r="7.1"/>
<circle class="st0" cx="476.4" cy="38.6" r="7.1"/>
<rect x="503" y="9.3" class="st3" width="218.8" height="58"/>
<g class="st4">
	<path d="M512.1,20h-1.3l-5.5-8.4h-0.1c0.1,1,0.1,1.9,0.1,2.7V20h-1.1V10h1.3l5.4,8.4h0.1c0-0.1,0-0.5-0.1-1.2c0-0.7,0-1.1,0-1.4V10
		h1.1V20z"/>
	<path d="M517.9,20.1c-1.1,0-2-0.3-2.6-1c-0.6-0.7-1-1.6-1-2.8c0-1.2,0.3-2.2,0.9-2.9s1.4-1.1,2.4-1.1c0.9,0,1.7,0.3,2.2,0.9
		c0.5,0.6,0.8,1.4,0.8,2.4v0.7h-5.2c0,0.9,0.2,1.5,0.7,2c0.4,0.5,1,0.7,1.8,0.7c0.8,0,1.6-0.2,2.4-0.5v1c-0.4,0.2-0.8,0.3-1.1,0.4
		C518.8,20.1,518.4,20.1,517.9,20.1z M517.6,13.3c-0.6,0-1.1,0.2-1.4,0.6c-0.4,0.4-0.6,0.9-0.6,1.6h3.9c0-0.7-0.2-1.3-0.5-1.6
		C518.6,13.5,518.2,13.3,517.6,13.3z"/>
	<path d="M528.7,20l-1.4-4.4c-0.1-0.3-0.2-0.9-0.5-1.8h-0.1c-0.2,0.8-0.3,1.4-0.5,1.8l-1.4,4.4h-1.3l-2-7.5h1.2
		c0.5,1.9,0.9,3.3,1.1,4.3s0.4,1.6,0.4,2h0.1c0.1-0.3,0.1-0.6,0.2-1c0.1-0.4,0.2-0.7,0.3-1l1.4-4.3h1.2l1.3,4.3
		c0.3,0.8,0.4,1.4,0.5,2h0.1c0-0.2,0.1-0.4,0.1-0.8c0.1-0.3,0.6-2.2,1.4-5.5h1.2L530,20H528.7z"/>
	<path d="M546.6,20v-4.9c0-0.6-0.1-1-0.4-1.3c-0.3-0.3-0.7-0.4-1.2-0.4c-0.7,0-1.2,0.2-1.6,0.6c-0.3,0.4-0.5,1-0.5,1.9V20h-1.1v-4.9
		c0-0.6-0.1-1-0.4-1.3c-0.3-0.3-0.7-0.4-1.2-0.4c-0.7,0-1.2,0.2-1.6,0.6c-0.3,0.4-0.5,1.1-0.5,2.1V20h-1.1v-7.5h0.9l0.2,1h0.1
		c0.2-0.4,0.5-0.6,0.9-0.9s0.8-0.3,1.3-0.3c1.2,0,1.9,0.4,2.3,1.3h0.1c0.2-0.4,0.5-0.7,1-0.9s0.9-0.3,1.4-0.3c0.8,0,1.5,0.2,1.9,0.7
		c0.4,0.4,0.6,1.1,0.6,2.1V20H546.6z"/>
	<path d="M553.3,20.1c-1.1,0-2-0.3-2.6-1c-0.6-0.7-1-1.6-1-2.8c0-1.2,0.3-2.2,0.9-2.9s1.4-1.1,2.4-1.1c0.9,0,1.7,0.3,2.2,0.9
		c0.5,0.6,0.8,1.4,0.8,2.4v0.7h-5.2c0,0.9,0.2,1.5,0.7,2c0.4,0.5,1,0.7,1.8,0.7c0.8,0,1.6-0.2,2.4-0.5v1c-0.4,0.2-0.8,0.3-1.1,0.4
		C554.2,20.1,553.8,20.1,553.3,20.1z M553,13.3c-0.6,0-1.1,0.2-1.4,0.6c-0.4,0.4-0.6,0.9-0.6,1.6h3.9c0-0.7-0.2-1.3-0.5-1.6
		C554,13.5,553.6,13.3,553,13.3z"/>
	<path d="M563.1,19L563.1,19c-0.6,0.8-1.4,1.1-2.4,1.1c-1,0-1.7-0.3-2.3-1c-0.5-0.7-0.8-1.6-0.8-2.9s0.3-2.2,0.8-2.9s1.3-1,2.3-1
		c1,0,1.8,0.4,2.3,1.1h0.1l0-0.5l0-0.5v-3h1.1V20h-0.9L563.1,19z M560.8,19.1c0.8,0,1.3-0.2,1.7-0.6c0.3-0.4,0.5-1.1,0.5-2v-0.2
		c0-1.1-0.2-1.8-0.5-2.3c-0.4-0.5-0.9-0.7-1.7-0.7c-0.7,0-1.2,0.3-1.5,0.8c-0.4,0.5-0.5,1.2-0.5,2.2c0,1,0.2,1.7,0.5,2.2
		C559.6,18.9,560.1,19.1,560.8,19.1z"/>
	<path d="M566.4,10.4c0-0.3,0.1-0.5,0.2-0.6c0.1-0.1,0.3-0.2,0.5-0.2c0.2,0,0.3,0.1,0.5,0.2c0.1,0.1,0.2,0.3,0.2,0.6
		s-0.1,0.4-0.2,0.6c-0.1,0.1-0.3,0.2-0.5,0.2c-0.2,0-0.4-0.1-0.5-0.2C566.5,10.9,566.4,10.7,566.4,10.4z M567.7,20h-1.1v-7.5h1.1V20
		z"/>
	<path d="M574.7,20l-0.2-1.1h-0.1c-0.4,0.5-0.7,0.8-1.1,1c-0.4,0.2-0.8,0.2-1.4,0.2c-0.7,0-1.3-0.2-1.7-0.6
		c-0.4-0.4-0.6-0.9-0.6-1.6c0-1.5,1.2-2.3,3.6-2.4l1.3,0V15c0-0.6-0.1-1-0.4-1.3c-0.3-0.3-0.7-0.4-1.2-0.4c-0.6,0-1.3,0.2-2.1,0.6
		l-0.3-0.9c0.4-0.2,0.8-0.4,1.2-0.5c0.4-0.1,0.9-0.2,1.3-0.2c0.9,0,1.6,0.2,2,0.6s0.6,1,0.6,1.9V20H574.7z M572.1,19.2
		c0.7,0,1.3-0.2,1.7-0.6s0.6-0.9,0.6-1.6v-0.7l-1.1,0c-0.9,0-1.6,0.2-2,0.4c-0.4,0.2-0.6,0.6-0.6,1.2c0,0.4,0.1,0.7,0.4,0.9
		C571.3,19.1,571.7,19.2,572.1,19.2z"/>
	<path d="M586.1,20l-0.2-1.1h-0.1c-0.4,0.5-0.7,0.8-1.1,1c-0.4,0.2-0.8,0.2-1.4,0.2c-0.7,0-1.3-0.2-1.7-0.6
		c-0.4-0.4-0.6-0.9-0.6-1.6c0-1.5,1.2-2.3,3.6-2.4l1.3,0V15c0-0.6-0.1-1-0.4-1.3c-0.3-0.3-0.7-0.4-1.2-0.4c-0.6,0-1.3,0.2-2.1,0.6
		l-0.3-0.9c0.4-0.2,0.8-0.4,1.2-0.5c0.4-0.1,0.9-0.2,1.3-0.2c0.9,0,1.6,0.2,2,0.6s0.6,1,0.6,1.9V20H586.1z M583.6,19.2
		c0.7,0,1.3-0.2,1.7-0.6s0.6-0.9,0.6-1.6v-0.7l-1.1,0c-0.9,0-1.6,0.2-2,0.4c-0.4,0.2-0.6,0.6-0.6,1.2c0,0.4,0.1,0.7,0.4,0.9
		C582.8,19.1,583.1,19.2,583.6,19.2z"/>
	<path d="M592.7,12.3c0.3,0,0.6,0,0.9,0.1l-0.2,1.1c-0.3-0.1-0.6-0.1-0.8-0.1c-0.6,0-1.1,0.2-1.6,0.7s-0.6,1.1-0.6,1.8v4h-1.1v-7.5
		h0.9l0.1,1.4h0.1c0.3-0.5,0.6-0.9,1-1.1C591.8,12.5,592.2,12.3,592.7,12.3z"/>
	<path d="M597.4,19.2c0.2,0,0.4,0,0.6,0c0.2,0,0.3-0.1,0.4-0.1v0.9c-0.1,0.1-0.3,0.1-0.5,0.1c-0.2,0-0.5,0.1-0.6,0.1
		c-1.4,0-2.2-0.8-2.2-2.3v-4.5H594v-0.5l1.1-0.5l0.5-1.6h0.7v1.7h2.2v0.9h-2.2v4.4c0,0.5,0.1,0.8,0.3,1
		C596.8,19,597.1,19.2,597.4,19.2z"/>
	<path d="M599.9,10.4c0-0.3,0.1-0.5,0.2-0.6c0.1-0.1,0.3-0.2,0.5-0.2c0.2,0,0.3,0.1,0.5,0.2c0.1,0.1,0.2,0.3,0.2,0.6
		s-0.1,0.4-0.2,0.6c-0.1,0.1-0.3,0.2-0.5,0.2c-0.2,0-0.4-0.1-0.5-0.2C599.9,10.9,599.9,10.7,599.9,10.4z M601.1,20H600v-7.5h1.1V20z
		"/>
	<path d="M608.3,17.9c0,0.7-0.3,1.2-0.8,1.6s-1.2,0.6-2.2,0.6c-1,0-1.8-0.2-2.3-0.5v-1.1c0.4,0.2,0.7,0.3,1.2,0.4
		c0.4,0.1,0.8,0.2,1.2,0.2c0.6,0,1-0.1,1.4-0.3c0.3-0.2,0.5-0.5,0.5-0.9c0-0.3-0.1-0.5-0.4-0.7c-0.3-0.2-0.7-0.5-1.5-0.7
		c-0.7-0.3-1.2-0.5-1.5-0.7c-0.3-0.2-0.5-0.4-0.7-0.7s-0.2-0.5-0.2-0.9c0-0.6,0.2-1.1,0.7-1.4c0.5-0.4,1.2-0.5,2-0.5
		c0.8,0,1.6,0.2,2.4,0.5l-0.4,0.9c-0.8-0.3-1.4-0.5-2-0.5c-0.5,0-0.9,0.1-1.2,0.3s-0.4,0.4-0.4,0.7c0,0.2,0.1,0.4,0.2,0.5
		s0.3,0.3,0.5,0.4c0.2,0.1,0.7,0.3,1.3,0.6c0.9,0.3,1.5,0.6,1.8,1C608.2,17,608.3,17.4,608.3,17.9z"/>
	<path d="M612.6,19.2c0.2,0,0.4,0,0.6,0c0.2,0,0.3-0.1,0.4-0.1v0.9c-0.1,0.1-0.3,0.1-0.5,0.1c-0.2,0-0.5,0.1-0.6,0.1
		c-1.4,0-2.2-0.8-2.2-2.3v-4.5h-1.1v-0.5l1.1-0.5l0.5-1.6h0.7v1.7h2.2v0.9h-2.2v4.4c0,0.5,0.1,0.8,0.3,1
		C611.9,19,612.2,19.2,612.6,19.2z"/>
	<path d="M619.9,17.9c0,0.7-0.3,1.2-0.8,1.6s-1.2,0.6-2.2,0.6c-1,0-1.8-0.2-2.3-0.5v-1.1c0.4,0.2,0.7,0.3,1.2,0.4
		c0.4,0.1,0.8,0.2,1.2,0.2c0.6,0,1-0.1,1.4-0.3c0.3-0.2,0.5-0.5,0.5-0.9c0-0.3-0.1-0.5-0.4-0.7c-0.3-0.2-0.7-0.5-1.5-0.7
		c-0.7-0.3-1.2-0.5-1.5-0.7c-0.3-0.2-0.5-0.4-0.7-0.7s-0.2-0.5-0.2-0.9c0-0.6,0.2-1.1,0.7-1.4c0.5-0.4,1.2-0.5,2-0.5
		c0.8,0,1.6,0.2,2.4,0.5l-0.4,0.9c-0.8-0.3-1.4-0.5-2-0.5c-0.5,0-0.9,0.1-1.2,0.3s-0.4,0.4-0.4,0.7c0,0.2,0.1,0.4,0.2,0.5
		s0.3,0.3,0.5,0.4c0.2,0.1,0.7,0.3,1.3,0.6c0.9,0.3,1.5,0.6,1.8,1C619.8,17,619.9,17.4,619.9,17.9z"/>
	<path d="M630,20l-0.2-1.1h-0.1c-0.4,0.5-0.7,0.8-1.1,1c-0.4,0.2-0.8,0.2-1.4,0.2c-0.7,0-1.3-0.2-1.7-0.6c-0.4-0.4-0.6-0.9-0.6-1.6
		c0-1.5,1.2-2.3,3.6-2.4l1.3,0V15c0-0.6-0.1-1-0.4-1.3c-0.3-0.3-0.7-0.4-1.2-0.4c-0.6,0-1.3,0.2-2.1,0.6l-0.3-0.9
		c0.4-0.2,0.8-0.4,1.2-0.5c0.4-0.1,0.9-0.2,1.3-0.2c0.9,0,1.6,0.2,2,0.6s0.6,1,0.6,1.9V20H630z M627.5,19.2c0.7,0,1.3-0.2,1.7-0.6
		s0.6-0.9,0.6-1.6v-0.7l-1.1,0c-0.9,0-1.6,0.2-2,0.4c-0.4,0.2-0.6,0.6-0.6,1.2c0,0.4,0.1,0.7,0.4,0.9
		C626.7,19.1,627,19.2,627.5,19.2z"/>
	<path d="M636.6,12.3c0.3,0,0.6,0,0.9,0.1l-0.2,1.1c-0.3-0.1-0.6-0.1-0.8-0.1c-0.6,0-1.1,0.2-1.6,0.7s-0.6,1.1-0.6,1.8v4h-1.1v-7.5
		h0.9l0.1,1.4h0.1c0.3-0.5,0.6-0.9,1-1.1C635.7,12.5,636.2,12.3,636.6,12.3z"/>
	<path d="M642.1,20.1c-1.1,0-2-0.3-2.6-1c-0.6-0.7-1-1.6-1-2.8c0-1.2,0.3-2.2,0.9-2.9s1.4-1.1,2.4-1.1c0.9,0,1.7,0.3,2.2,0.9
		c0.5,0.6,0.8,1.4,0.8,2.4v0.7h-5.2c0,0.9,0.2,1.5,0.7,2c0.4,0.5,1,0.7,1.8,0.7c0.8,0,1.6-0.2,2.4-0.5v1c-0.4,0.2-0.8,0.3-1.1,0.4
		C643,20.1,642.6,20.1,642.1,20.1z M641.8,13.3c-0.6,0-1.1,0.2-1.4,0.6c-0.4,0.4-0.6,0.9-0.6,1.6h3.9c0-0.7-0.2-1.3-0.5-1.6
		C642.8,13.5,642.4,13.3,641.8,13.3z"/>
</g>
<g class="st4">
	<path class="st0" d="M507.1,31.6c1,0,1.7,0.3,2.3,0.8c0.6,0.5,0.9,1.3,0.9,2.2c0,1.1-0.3,2-1,2.6c-0.7,0.6-1.7,0.9-3,0.9
		c-1.1,0-2-0.2-2.7-0.5v-1.8c0.4,0.2,0.8,0.3,1.3,0.5c0.5,0.1,0.9,0.2,1.4,0.2c1.3,0,1.9-0.5,1.9-1.6c0-1-0.7-1.5-2-1.5
		c-0.2,0-0.5,0-0.8,0.1c-0.3,0-0.5,0.1-0.7,0.2l-0.8-0.5l0.4-5.1h5.4v1.8h-3.6l-0.2,2l0.2,0C506.4,31.6,506.7,31.6,507.1,31.6z"/>
	<path class="st0" d="M518.1,30.2c0,0.6-0.2,1.2-0.6,1.6c-0.4,0.4-0.9,0.7-1.6,0.9v0c0.8,0.1,1.4,0.3,1.8,0.7
		c0.4,0.4,0.6,0.9,0.6,1.6c0,1-0.3,1.7-1,2.2c-0.7,0.5-1.7,0.8-3,0.8c-1.1,0-2-0.2-2.9-0.5v-1.8c0.4,0.2,0.8,0.4,1.3,0.5
		s0.9,0.2,1.4,0.2c0.7,0,1.2-0.1,1.5-0.4c0.3-0.2,0.5-0.6,0.5-1.1c0-0.5-0.2-0.8-0.6-1s-1-0.3-1.8-0.3H513V32h0.8
		c0.8,0,1.3-0.1,1.7-0.3c0.4-0.2,0.5-0.5,0.5-1c0-0.8-0.5-1.1-1.4-1.1c-0.3,0-0.7,0.1-1,0.2c-0.3,0.1-0.7,0.3-1.1,0.6l-1-1.5
		c0.9-0.7,2-1,3.3-1c1,0,1.9,0.2,2.5,0.6C517.8,28.9,518.1,29.5,518.1,30.2z"/>
	<path class="st0" d="M524.1,30.9c0,1-0.2,1.8-0.6,2.4c-0.4,0.5-1,0.8-1.8,0.8c-0.8,0-1.3-0.3-1.7-0.8c-0.4-0.5-0.6-1.3-0.6-2.3
		c0-2.1,0.8-3.1,2.4-3.1c0.8,0,1.4,0.3,1.8,0.8C523.9,29.2,524.1,29.9,524.1,30.9z M521.1,31c0,0.6,0.1,1,0.2,1.3
		c0.1,0.3,0.3,0.4,0.5,0.4c0.4,0,0.7-0.6,0.7-1.7c0-1.1-0.2-1.7-0.7-1.7c-0.2,0-0.4,0.1-0.5,0.4C521.1,30,521.1,30.4,521.1,31z
		 M528.8,28l-5.5,10h-1.6l5.5-10H528.8z M531.1,34.9c0,1-0.2,1.8-0.6,2.4c-0.4,0.5-1,0.8-1.8,0.8c-0.8,0-1.3-0.3-1.7-0.8
		c-0.4-0.5-0.6-1.3-0.6-2.3c0-2.1,0.8-3.1,2.4-3.1c0.8,0,1.4,0.3,1.8,0.8C530.9,33.2,531.1,33.9,531.1,34.9z M528.1,35
		c0,0.6,0.1,1,0.2,1.3c0.1,0.3,0.3,0.4,0.5,0.4c0.4,0,0.7-0.6,0.7-1.7c0-1.1-0.2-1.7-0.7-1.7c-0.2,0-0.4,0.1-0.5,0.4
		C528.1,33.9,528.1,34.4,528.1,35z"/>
	<path class="st0" d="M543.1,38H541v-4.5c0-0.6-0.1-1-0.3-1.2c-0.2-0.3-0.5-0.4-0.9-0.4c-0.5,0-0.9,0.2-1.2,0.6
		c-0.2,0.4-0.4,1-0.4,1.9V38h-2.1v-7.6h1.6l0.3,1h0.1c0.2-0.4,0.5-0.6,0.9-0.8c0.4-0.2,0.8-0.3,1.3-0.3c1.1,0,1.9,0.4,2.3,1.1h0.2
		c0.2-0.4,0.5-0.6,0.9-0.8c0.4-0.2,0.8-0.3,1.3-0.3c0.9,0,1.5,0.2,2,0.7c0.4,0.4,0.7,1.2,0.7,2.1v5h-2.1v-4.5c0-0.6-0.1-1-0.3-1.2
		c-0.2-0.3-0.5-0.4-0.9-0.4c-0.5,0-0.9,0.2-1.1,0.5s-0.4,0.9-0.4,1.7V38z"/>
	<path class="st0" d="M554.9,38l-0.4-1h-0.1c-0.4,0.4-0.7,0.7-1.1,0.9c-0.4,0.2-0.9,0.3-1.5,0.3c-0.7,0-1.3-0.2-1.7-0.6
		c-0.4-0.4-0.6-1-0.6-1.8c0-0.8,0.3-1.4,0.9-1.8c0.6-0.4,1.4-0.6,2.6-0.6l1.3,0v-0.3c0-0.8-0.4-1.2-1.2-1.2c-0.6,0-1.3,0.2-2.2,0.6
		l-0.7-1.4c0.9-0.5,1.9-0.7,2.9-0.7c1,0,1.8,0.2,2.4,0.7s0.8,1.1,0.8,2V38H554.9z M554.3,34.4l-0.8,0c-0.6,0-1.1,0.1-1.4,0.3
		c-0.3,0.2-0.4,0.5-0.4,0.9c0,0.6,0.3,0.9,1,0.9c0.5,0,0.9-0.1,1.2-0.4c0.3-0.3,0.4-0.6,0.4-1.1V34.4z"/>
	<path class="st0" d="M560.6,38h-2.1V27.3h2.1V38z"/>
	<path class="st0" d="M566.2,38.1c-1.2,0-2.2-0.3-2.9-1c-0.7-0.7-1-1.6-1-2.9c0-1.3,0.3-2.3,1-3c0.6-0.7,1.5-1,2.7-1
		c1.1,0,1.9,0.3,2.5,0.9s0.9,1.5,0.9,2.5v1h-4.9c0,0.6,0.2,1.1,0.5,1.4s0.8,0.5,1.4,0.5c0.5,0,0.9,0,1.3-0.1s0.8-0.2,1.3-0.5v1.6
		c-0.4,0.2-0.8,0.3-1.2,0.4C567.3,38.1,566.8,38.1,566.2,38.1z M565.9,31.7c-0.4,0-0.8,0.1-1,0.4c-0.2,0.3-0.4,0.7-0.4,1.2h2.9
		c0-0.5-0.1-0.9-0.4-1.2C566.7,31.8,566.4,31.7,565.9,31.7z"/>
</g>
<g class="st4">
	<path d="M572.3,36.3l0.1,0.2c-0.1,0.5-0.3,1-0.5,1.6c-0.2,0.6-0.5,1.2-0.7,1.7h-0.9c0.1-0.5,0.3-1.1,0.4-1.8
		c0.1-0.7,0.3-1.3,0.3-1.7H572.3z"/>
</g>
<g class="st4">
	<path class="st1" d="M584.2,30.2c0,0.6-0.2,1.2-0.6,1.6c-0.4,0.4-0.9,0.7-1.6,0.9v0c0.8,0.1,1.4,0.3,1.8,0.7
		c0.4,0.4,0.6,0.9,0.6,1.6c0,1-0.3,1.7-1,2.2c-0.7,0.5-1.7,0.8-3,0.8c-1.1,0-2-0.2-2.9-0.5v-1.8c0.4,0.2,0.8,0.4,1.3,0.5
		s0.9,0.2,1.4,0.2c0.7,0,1.2-0.1,1.5-0.4c0.3-0.2,0.5-0.6,0.5-1.1c0-0.5-0.2-0.8-0.6-1s-1-0.3-1.8-0.3h-0.8V32h0.8
		c0.8,0,1.3-0.1,1.7-0.3c0.4-0.2,0.5-0.5,0.5-1c0-0.8-0.5-1.1-1.4-1.1c-0.3,0-0.7,0.1-1,0.2c-0.3,0.1-0.7,0.3-1.1,0.6l-1-1.5
		c0.9-0.7,2-1,3.3-1c1,0,1.9,0.2,2.5,0.6C583.9,28.9,584.2,29.5,584.2,30.2z"/>
	<path class="st1" d="M592.5,32.2c0,2-0.4,3.4-1.2,4.4c-0.8,1-2.1,1.5-3.8,1.5c-0.6,0-1,0-1.3-0.1v-1.7c0.4,0.1,0.8,0.1,1.2,0.1
		c0.7,0,1.3-0.1,1.7-0.3c0.5-0.2,0.8-0.5,1-1c0.2-0.4,0.4-1.1,0.4-1.8h-0.1c-0.3,0.4-0.6,0.7-0.9,0.9c-0.3,0.2-0.8,0.3-1.3,0.3
		c-0.9,0-1.6-0.3-2.1-0.8c-0.5-0.6-0.8-1.3-0.8-2.3c0-1.1,0.3-1.9,0.9-2.5c0.6-0.6,1.4-0.9,2.5-0.9c0.7,0,1.4,0.2,1.9,0.5
		s1,0.8,1.3,1.5C592.3,30.5,592.5,31.3,592.5,32.2z M588.9,29.5c-0.4,0-0.8,0.2-1,0.5s-0.4,0.7-0.4,1.3c0,0.5,0.1,0.9,0.3,1.1
		c0.2,0.3,0.6,0.4,1,0.4c0.4,0,0.8-0.1,1.1-0.4c0.3-0.3,0.5-0.6,0.5-1c0-0.5-0.1-1-0.4-1.4C589.7,29.7,589.3,29.5,588.9,29.5z"/>
	<path class="st1" d="M598.2,30.9c0,1-0.2,1.8-0.6,2.4c-0.4,0.5-1,0.8-1.8,0.8c-0.8,0-1.3-0.3-1.7-0.8c-0.4-0.5-0.6-1.3-0.6-2.3
		c0-2.1,0.8-3.1,2.4-3.1c0.8,0,1.4,0.3,1.8,0.8C598,29.2,598.2,29.9,598.2,30.9z M595.1,31c0,0.6,0.1,1,0.2,1.3
		c0.1,0.3,0.3,0.4,0.5,0.4c0.4,0,0.7-0.6,0.7-1.7c0-1.1-0.2-1.7-0.7-1.7c-0.2,0-0.4,0.1-0.5,0.4C595.2,30,595.1,30.4,595.1,31z
		 M602.9,28l-5.5,10h-1.6l5.5-10H602.9z M605.2,34.9c0,1-0.2,1.8-0.6,2.4c-0.4,0.5-1,0.8-1.8,0.8c-0.8,0-1.3-0.3-1.7-0.8
		c-0.4-0.5-0.6-1.3-0.6-2.3c0-2.1,0.8-3.1,2.4-3.1c0.8,0,1.4,0.3,1.8,0.8C605,33.2,605.2,33.9,605.2,34.9z M602.1,35
		c0,0.6,0.1,1,0.2,1.3c0.1,0.3,0.3,0.4,0.5,0.4c0.4,0,0.7-0.6,0.7-1.7c0-1.1-0.2-1.7-0.7-1.7c-0.2,0-0.4,0.1-0.5,0.4
		C602.2,33.9,602.1,34.4,602.1,35z"/>
	<path class="st1" d="M614.5,31.9h-1.8V38h-2.1v-6.1h-1.1v-1l1.1-0.6v-0.6c0-0.9,0.2-1.5,0.6-1.9c0.4-0.4,1.1-0.6,2.1-0.6
		c0.7,0,1.4,0.1,1.9,0.3l-0.5,1.5c-0.4-0.1-0.8-0.2-1.2-0.2c-0.3,0-0.5,0.1-0.6,0.3c-0.1,0.2-0.2,0.4-0.2,0.7v0.5h1.8V31.9z"/>
	<path class="st1" d="M619.2,38.1c-1.2,0-2.2-0.3-2.9-1c-0.7-0.7-1-1.6-1-2.9c0-1.3,0.3-2.3,1-3c0.6-0.7,1.5-1,2.7-1
		c1.1,0,1.9,0.3,2.5,0.9s0.9,1.5,0.9,2.5v1h-4.9c0,0.6,0.2,1.1,0.5,1.4s0.8,0.5,1.4,0.5c0.5,0,0.9,0,1.3-0.1s0.8-0.2,1.3-0.5v1.6
		c-0.4,0.2-0.8,0.3-1.2,0.4C620.3,38.1,619.8,38.1,619.2,38.1z M618.9,31.7c-0.4,0-0.8,0.1-1,0.4c-0.3,0.3-0.4,0.7-0.4,1.2h2.9
		c0-0.5-0.1-0.9-0.4-1.2C619.7,31.8,619.4,31.7,618.9,31.7z"/>
	<path class="st1" d="M630.9,38h-2.1v-4.5c0-0.6-0.1-1-0.3-1.2c-0.2-0.3-0.5-0.4-0.9-0.4c-0.5,0-0.9,0.2-1.2,0.6
		c-0.2,0.4-0.4,1-0.4,1.9V38H624v-7.6h1.6l0.3,1h0.1c0.2-0.4,0.5-0.6,0.9-0.8c0.4-0.2,0.8-0.3,1.3-0.3c1.1,0,1.9,0.4,2.3,1.1h0.2
		c0.2-0.4,0.5-0.6,0.9-0.8c0.4-0.2,0.8-0.3,1.4-0.3c0.9,0,1.5,0.2,2,0.7c0.4,0.4,0.7,1.2,0.7,2.1v5h-2.1v-4.5c0-0.6-0.1-1-0.3-1.2
		c-0.2-0.3-0.5-0.4-0.9-0.4c-0.5,0-0.9,0.2-1.1,0.5s-0.4,0.9-0.4,1.7V38z"/>
	<path class="st1" d="M642.6,38l-0.4-1h-0.1c-0.4,0.4-0.7,0.7-1.1,0.9c-0.4,0.2-0.9,0.3-1.5,0.3c-0.7,0-1.3-0.2-1.7-0.6
		c-0.4-0.4-0.6-1-0.6-1.8c0-0.8,0.3-1.4,0.9-1.8c0.6-0.4,1.4-0.6,2.6-0.6l1.3,0v-0.3c0-0.8-0.4-1.2-1.2-1.2c-0.6,0-1.3,0.2-2.2,0.6
		l-0.7-1.4c0.9-0.5,1.9-0.7,2.9-0.7c1,0,1.8,0.2,2.4,0.7s0.8,1.1,0.8,2V38H642.6z M642,34.4l-0.8,0c-0.6,0-1.1,0.1-1.4,0.3
		c-0.3,0.2-0.4,0.5-0.4,0.9c0,0.6,0.3,0.9,1,0.9c0.5,0,0.9-0.1,1.2-0.4c0.3-0.3,0.4-0.6,0.4-1.1V34.4z"/>
	<path class="st1" d="M648.3,38h-2.1V27.3h2.1V38z"/>
	<path class="st1" d="M654,38.1c-1.2,0-2.2-0.3-2.9-1c-0.7-0.7-1-1.6-1-2.9c0-1.3,0.3-2.3,1-3c0.6-0.7,1.5-1,2.7-1
		c1.1,0,1.9,0.3,2.5,0.9s0.9,1.5,0.9,2.5v1h-4.9c0,0.6,0.2,1.1,0.5,1.4s0.8,0.5,1.4,0.5c0.5,0,0.9,0,1.3-0.1s0.8-0.2,1.3-0.5v1.6
		c-0.4,0.2-0.8,0.3-1.2,0.4C655.1,38.1,654.5,38.1,654,38.1z M653.7,31.7c-0.4,0-0.8,0.1-1,0.4c-0.3,0.3-0.4,0.7-0.4,1.2h2.9
		c0-0.5-0.1-0.9-0.4-1.2C654.5,31.8,654.1,31.7,653.7,31.7z"/>
</g>
<g class="st4">
	<path d="M667.1,38l-0.2-1.1h-0.1c-0.4,0.5-0.7,0.8-1.1,1c-0.4,0.2-0.8,0.2-1.4,0.2c-0.7,0-1.3-0.2-1.7-0.6
		c-0.4-0.4-0.6-0.9-0.6-1.6c0-1.5,1.2-2.3,3.6-2.4l1.3,0V33c0-0.6-0.1-1-0.4-1.3c-0.3-0.3-0.7-0.4-1.2-0.4c-0.6,0-1.3,0.2-2.1,0.6
		l-0.3-0.9c0.4-0.2,0.8-0.4,1.2-0.5c0.4-0.1,0.9-0.2,1.3-0.2c0.9,0,1.6,0.2,2,0.6s0.6,1,0.6,1.9V38H667.1z M664.6,37.2
		c0.7,0,1.3-0.2,1.7-0.6s0.6-0.9,0.6-1.6v-0.7l-1.1,0c-0.9,0-1.6,0.2-2,0.4c-0.4,0.2-0.6,0.6-0.6,1.2c0,0.4,0.1,0.7,0.4,0.9
		C663.8,37.1,664.1,37.2,664.6,37.2z"/>
	<path d="M675.4,38v-4.8c0-0.6-0.1-1.1-0.4-1.4c-0.3-0.3-0.7-0.5-1.3-0.5c-0.8,0-1.4,0.2-1.7,0.6c-0.4,0.4-0.5,1.1-0.5,2.1V38h-1.1
		v-7.5h0.9l0.2,1h0.1c0.2-0.4,0.6-0.7,1-0.9c0.4-0.2,0.9-0.3,1.4-0.3c0.9,0,1.6,0.2,2,0.7c0.5,0.4,0.7,1.1,0.7,2.1V38H675.4z"/>
	<path d="M684,37L684,37c-0.6,0.8-1.4,1.1-2.4,1.1c-1,0-1.7-0.3-2.3-1c-0.5-0.7-0.8-1.6-0.8-2.9s0.3-2.2,0.8-2.9s1.3-1,2.3-1
		c1,0,1.8,0.4,2.3,1.1h0.1l0-0.5l0-0.5v-3h1.1V38h-0.9L684,37z M681.7,37.1c0.8,0,1.3-0.2,1.7-0.6c0.3-0.4,0.5-1.1,0.5-2v-0.2
		c0-1.1-0.2-1.8-0.5-2.3c-0.4-0.5-0.9-0.7-1.7-0.7c-0.7,0-1.2,0.3-1.5,0.8c-0.4,0.5-0.5,1.2-0.5,2.2c0,1,0.2,1.7,0.5,2.2
		C680.5,36.9,681,37.1,681.7,37.1z"/>
</g>
<g class="st4">
	<path class="st2" d="M697.4,32.2c0,2-0.4,3.4-1.2,4.4c-0.8,1-2.1,1.5-3.8,1.5c-0.6,0-1,0-1.3-0.1v-1.7c0.4,0.1,0.8,0.1,1.2,0.1
		c0.7,0,1.3-0.1,1.7-0.3c0.5-0.2,0.8-0.5,1-1c0.2-0.4,0.4-1.1,0.4-1.8h-0.1c-0.3,0.4-0.6,0.7-0.9,0.9c-0.3,0.2-0.8,0.3-1.3,0.3
		c-0.9,0-1.6-0.3-2.1-0.8c-0.5-0.6-0.8-1.3-0.8-2.3c0-1.1,0.3-1.9,0.9-2.5c0.6-0.6,1.4-0.9,2.5-0.9c0.7,0,1.4,0.2,1.9,0.5
		s1,0.8,1.3,1.5C697.3,30.5,697.4,31.3,697.4,32.2z M693.8,29.5c-0.4,0-0.8,0.2-1,0.5s-0.4,0.7-0.4,1.3c0,0.5,0.1,0.9,0.3,1.1
		c0.2,0.3,0.6,0.4,1,0.4c0.4,0,0.8-0.1,1.1-0.4c0.3-0.3,0.5-0.6,0.5-1c0-0.5-0.1-1-0.4-1.4C694.6,29.7,694.2,29.5,693.8,29.5z"/>
	<path class="st2" d="M703.1,30.9c0,1-0.2,1.8-0.6,2.4c-0.4,0.5-1,0.8-1.8,0.8c-0.8,0-1.3-0.3-1.7-0.8c-0.4-0.5-0.6-1.3-0.6-2.3
		c0-2.1,0.8-3.1,2.4-3.1c0.8,0,1.4,0.3,1.8,0.8C702.9,29.2,703.1,29.9,703.1,30.9z M700,31c0,0.6,0.1,1,0.2,1.3
		c0.1,0.3,0.3,0.4,0.5,0.4c0.4,0,0.7-0.6,0.7-1.7c0-1.1-0.2-1.7-0.7-1.7c-0.2,0-0.4,0.1-0.5,0.4C700.1,30,700,30.4,700,31z
		 M707.8,28l-5.5,10h-1.6l5.5-10H707.8z M710.1,34.9c0,1-0.2,1.8-0.6,2.4c-0.4,0.5-1,0.8-1.8,0.8c-0.8,0-1.3-0.3-1.7-0.8
		c-0.4-0.5-0.6-1.3-0.6-2.3c0-2.1,0.8-3.1,2.4-3.1c0.8,0,1.4,0.3,1.8,0.8C709.9,33.2,710.1,33.9,710.1,34.9z M707,35
		c0,0.6,0.1,1,0.2,1.3c0.1,0.3,0.3,0.4,0.5,0.4c0.4,0,0.7-0.6,0.7-1.7c0-1.1-0.2-1.7-0.7-1.7c-0.2,0-0.4,0.1-0.5,0.4
		C707.1,33.9,707,34.4,707,35z"/>
</g>
<g class="st4">
	<path class="st2" d="M508.9,56l-0.4-1h-0.1c-0.4,0.4-0.7,0.7-1.1,0.9c-0.4,0.2-0.9,0.3-1.5,0.3c-0.7,0-1.3-0.2-1.7-0.6
		c-0.4-0.4-0.6-1-0.6-1.8c0-0.8,0.3-1.4,0.9-1.8s1.4-0.6,2.6-0.6l1.3,0v-0.3c0-0.8-0.4-1.2-1.2-1.2c-0.6,0-1.3,0.2-2.2,0.6l-0.7-1.4
		c0.9-0.5,1.9-0.7,2.9-0.7c1,0,1.8,0.2,2.4,0.7c0.5,0.4,0.8,1.1,0.8,2V56H508.9z M508.3,52.4l-0.8,0c-0.6,0-1.1,0.1-1.4,0.3
		c-0.3,0.2-0.4,0.5-0.4,0.9c0,0.6,0.3,0.9,1,0.9c0.5,0,0.9-0.1,1.2-0.4c0.3-0.3,0.4-0.6,0.4-1.1V52.4z"/>
	<path class="st2" d="M519.2,56.1c-2.4,0-3.6-1.3-3.6-3.9c0-1.3,0.3-2.3,1-3c0.6-0.7,1.6-1,2.8-1c0.9,0,1.7,0.2,2.4,0.5l-0.6,1.6
		c-0.3-0.1-0.6-0.2-0.9-0.3c-0.3-0.1-0.6-0.1-0.8-0.1c-1.1,0-1.6,0.8-1.6,2.3c0,1.5,0.5,2.2,1.6,2.2c0.4,0,0.8-0.1,1.1-0.2
		s0.7-0.3,1-0.5v1.8c-0.3,0.2-0.7,0.4-1,0.4C520.2,56.1,519.8,56.1,519.2,56.1z"/>
	<path class="st2" d="M530.3,52.1c0,1.2-0.3,2.2-1,2.9c-0.7,0.7-1.6,1.1-2.7,1.1c-0.7,0-1.4-0.2-1.9-0.5c-0.6-0.3-1-0.8-1.3-1.4
		s-0.5-1.3-0.5-2.1c0-1.2,0.3-2.2,1-2.9c0.7-0.7,1.6-1,2.7-1c0.7,0,1.4,0.2,1.9,0.5c0.6,0.3,1,0.8,1.3,1.4
		C530.1,50.6,530.3,51.3,530.3,52.1z M525,52.1c0,0.8,0.1,1.3,0.4,1.7c0.2,0.4,0.7,0.6,1.2,0.6c0.6,0,1-0.2,1.2-0.6
		c0.2-0.4,0.4-1,0.4-1.7c0-0.8-0.1-1.3-0.4-1.7c-0.2-0.4-0.6-0.6-1.2-0.6c-0.6,0-1,0.2-1.2,0.6C525.1,50.8,525,51.4,525,52.1z"/>
	<path class="st2" d="M534.1,56H532V45.3h2.1V56z"/>
	<path class="st2" d="M538.4,56h-2.1V45.3h2.1V56z"/>
	<path class="st2" d="M545.4,56l-0.4-1h-0.1c-0.4,0.4-0.7,0.7-1.1,0.9c-0.4,0.2-0.9,0.3-1.5,0.3c-0.7,0-1.3-0.2-1.7-0.6
		c-0.4-0.4-0.6-1-0.6-1.8c0-0.8,0.3-1.4,0.9-1.8s1.4-0.6,2.6-0.6l1.3,0v-0.3c0-0.8-0.4-1.2-1.2-1.2c-0.6,0-1.3,0.2-2.2,0.6l-0.7-1.4
		c0.9-0.5,1.9-0.7,2.9-0.7c1,0,1.8,0.2,2.4,0.7c0.5,0.4,0.8,1.1,0.8,2V56H545.4z M544.8,52.4l-0.8,0c-0.6,0-1.1,0.1-1.4,0.3
		c-0.3,0.2-0.4,0.5-0.4,0.9c0,0.6,0.3,0.9,1,0.9c0.5,0,0.9-0.1,1.2-0.4c0.3-0.3,0.4-0.6,0.4-1.1V52.4z"/>
	<path class="st2" d="M553.3,48.2c0.9,0,1.6,0.4,2.1,1.1c0.5,0.7,0.8,1.7,0.8,2.9c0,1.3-0.3,2.2-0.8,2.9c-0.5,0.7-1.2,1-2.2,1
		c-0.9,0-1.6-0.3-2.1-1h-0.1l-0.3,0.8H549V45.3h2.1v2.5c0,0.3,0,0.8-0.1,1.5h0.1C551.6,48.6,552.3,48.2,553.3,48.2z M552.6,49.8
		c-0.5,0-0.9,0.2-1.1,0.5c-0.2,0.3-0.4,0.8-0.4,1.6v0.2c0,0.8,0.1,1.4,0.4,1.8c0.2,0.4,0.6,0.5,1.2,0.5c0.4,0,0.8-0.2,1-0.6
		c0.3-0.4,0.4-1,0.4-1.7s-0.1-1.3-0.4-1.7C553.4,50,553,49.8,552.6,49.8z"/>
	<path class="st2" d="M564.8,52.1c0,1.2-0.3,2.2-1,2.9c-0.7,0.7-1.6,1.1-2.7,1.1c-0.7,0-1.4-0.2-1.9-0.5c-0.6-0.3-1-0.8-1.3-1.4
		s-0.5-1.3-0.5-2.1c0-1.2,0.3-2.2,1-2.9c0.7-0.7,1.6-1,2.7-1c0.7,0,1.4,0.2,1.9,0.5c0.6,0.3,1,0.8,1.3,1.4
		C564.7,50.6,564.8,51.3,564.8,52.1z M559.5,52.1c0,0.8,0.1,1.3,0.4,1.7c0.2,0.4,0.7,0.6,1.2,0.6c0.6,0,1-0.2,1.2-0.6
		c0.2-0.4,0.4-1,0.4-1.7c0-0.8-0.1-1.3-0.4-1.7c-0.2-0.4-0.6-0.6-1.2-0.6c-0.6,0-1,0.2-1.2,0.6C559.6,50.8,559.5,51.4,559.5,52.1z"
		/>
	<path class="st2" d="M570.8,48.2c0.3,0,0.5,0,0.7,0.1l-0.2,2c-0.2,0-0.4-0.1-0.6-0.1c-0.7,0-1.2,0.2-1.6,0.5
		c-0.4,0.3-0.6,0.8-0.6,1.4V56h-2.1v-7.6h1.6l0.3,1.3h0.1c0.2-0.4,0.6-0.8,1-1C569.9,48.3,570.3,48.2,570.8,48.2z"/>
	<path class="st2" d="M577.7,56l-0.4-1h-0.1c-0.4,0.4-0.7,0.7-1.1,0.9c-0.4,0.2-0.9,0.3-1.5,0.3c-0.7,0-1.3-0.2-1.7-0.6
		c-0.4-0.4-0.6-1-0.6-1.8c0-0.8,0.3-1.4,0.9-1.8s1.4-0.6,2.6-0.6l1.3,0v-0.3c0-0.8-0.4-1.2-1.2-1.2c-0.6,0-1.3,0.2-2.2,0.6l-0.7-1.4
		c0.9-0.5,1.9-0.7,2.9-0.7c1,0,1.8,0.2,2.4,0.7c0.5,0.4,0.8,1.1,0.8,2V56H577.7z M577.1,52.4l-0.8,0c-0.6,0-1.1,0.1-1.4,0.3
		c-0.3,0.2-0.4,0.5-0.4,0.9c0,0.6,0.3,0.9,1,0.9c0.5,0,0.9-0.1,1.2-0.4c0.3-0.3,0.4-0.6,0.4-1.1V52.4z"/>
	<path class="st2" d="M584.6,54.4c0.4,0,0.8-0.1,1.3-0.2v1.6c-0.5,0.2-1.2,0.3-1.9,0.3c-0.8,0-1.4-0.2-1.8-0.6
		c-0.4-0.4-0.6-1.1-0.6-1.9v-3.7h-1V49l1.1-0.7l0.6-1.6h1.3v1.6h2.1v1.6h-2.1v3.7c0,0.3,0.1,0.5,0.2,0.7
		C584.1,54.4,584.3,54.4,584.6,54.4z"/>
	<path class="st2" d="M587.3,46.3c0-0.7,0.4-1,1.1-1c0.8,0,1.1,0.3,1.1,1c0,0.3-0.1,0.6-0.3,0.8c-0.2,0.2-0.5,0.3-0.9,0.3
		C587.7,47.4,587.3,47,587.3,46.3z M589.5,56h-2.1v-7.6h2.1V56z"/>
	<path class="st2" d="M593.5,56l-2.9-7.6h2.2l1.5,4.4c0.2,0.6,0.3,1.1,0.3,1.6h0c0-0.4,0.1-1,0.3-1.6l1.5-4.4h2.2l-2.9,7.6H593.5z"
		/>
	<path class="st2" d="M603.1,56.1c-1.2,0-2.2-0.3-2.9-1c-0.7-0.7-1-1.6-1-2.9c0-1.3,0.3-2.3,1-3c0.6-0.7,1.5-1.1,2.7-1.1
		c1.1,0,1.9,0.3,2.5,0.9s0.9,1.5,0.9,2.5v1h-4.9c0,0.6,0.2,1.1,0.5,1.4c0.3,0.3,0.8,0.5,1.4,0.5c0.5,0,0.9,0,1.3-0.1
		s0.8-0.2,1.3-0.5v1.6c-0.4,0.2-0.8,0.3-1.2,0.4C604.2,56.1,603.7,56.1,603.1,56.1z M602.8,49.7c-0.4,0-0.8,0.1-1,0.4
		c-0.2,0.3-0.4,0.7-0.4,1.2h2.9c0-0.5-0.1-0.9-0.4-1.2C603.6,49.8,603.3,49.7,602.8,49.7z"/>
</g>
<g class="st4">
	<path d="M611,52.1c0-1.2,0.2-2.3,0.5-3.4c0.4-1.1,0.9-2,1.5-2.8h1.1c-0.7,0.9-1.1,1.8-1.5,2.9c-0.3,1.1-0.5,2.1-0.5,3.2
		c0,1.1,0.2,2.2,0.5,3.2c0.3,1,0.8,2,1.5,2.9h-1.1c-0.7-0.8-1.2-1.7-1.5-2.7C611.2,54.4,611,53.3,611,52.1z"/>
	<path d="M619.3,48.3c1,0,1.7,0.3,2.3,1c0.5,0.7,0.8,1.6,0.8,2.9s-0.3,2.2-0.8,2.9c-0.5,0.7-1.3,1-2.3,1c-0.5,0-0.9-0.1-1.3-0.3
		c-0.4-0.2-0.7-0.5-1-0.8h-0.1l-0.2,1h-0.8V45.3h1.1v2.6c0,0.6,0,1.1-0.1,1.6h0.1C617.5,48.7,618.3,48.3,619.3,48.3z M619.1,49.3
		c-0.8,0-1.3,0.2-1.7,0.7c-0.3,0.4-0.5,1.2-0.5,2.2s0.2,1.8,0.5,2.3c0.4,0.5,0.9,0.7,1.7,0.7c0.7,0,1.2-0.3,1.6-0.8s0.5-1.2,0.5-2.2
		c0-1-0.2-1.7-0.5-2.2S619.9,49.3,619.1,49.3z"/>
	<path d="M630.9,52.2c0,1.2-0.3,2.2-0.9,2.9s-1.5,1-2.5,1c-0.7,0-1.3-0.2-1.8-0.5s-0.9-0.8-1.2-1.4c-0.3-0.6-0.4-1.3-0.4-2.1
		c0-1.2,0.3-2.2,0.9-2.9c0.6-0.7,1.5-1,2.5-1c1,0,1.9,0.3,2.5,1C630.6,50.1,630.9,51,630.9,52.2z M625.2,52.2c0,1,0.2,1.7,0.6,2.2
		c0.4,0.5,0.9,0.8,1.7,0.8c0.7,0,1.3-0.2,1.7-0.7c0.4-0.5,0.6-1.2,0.6-2.2c0-1-0.2-1.7-0.6-2.2c-0.4-0.5-1-0.7-1.7-0.7
		c-0.7,0-1.3,0.2-1.7,0.7C625.3,50.5,625.2,51.2,625.2,52.2z"/>
	<path d="M635.3,55.2c0.2,0,0.4,0,0.6,0c0.2,0,0.3-0.1,0.4-0.1v0.9c-0.1,0.1-0.3,0.1-0.5,0.1s-0.5,0.1-0.6,0.1
		c-1.4,0-2.2-0.8-2.2-2.3v-4.5h-1.1v-0.5l1.1-0.5l0.5-1.6h0.7v1.7h2.2v0.9h-2.2v4.4c0,0.5,0.1,0.8,0.3,1
		C634.6,55,634.9,55.2,635.3,55.2z"/>
	<path d="M642.9,56v-4.8c0-0.6-0.1-1.1-0.4-1.4c-0.3-0.3-0.7-0.5-1.3-0.5c-0.8,0-1.4,0.2-1.7,0.6c-0.4,0.4-0.5,1.1-0.5,2.1V56h-1.1
		V45.3h1.1v3.2c0,0.4,0,0.7-0.1,1h0.1c0.2-0.4,0.5-0.6,1-0.9c0.4-0.2,0.9-0.3,1.4-0.3c0.9,0,1.6,0.2,2.1,0.7s0.7,1.1,0.7,2.1V56
		H642.9z"/>
	<path d="M656.2,48.5v0.7l-1.4,0.2c0.1,0.2,0.2,0.4,0.3,0.6c0.1,0.3,0.2,0.5,0.2,0.9c0,0.7-0.3,1.3-0.8,1.8
		c-0.5,0.4-1.2,0.7-2.1,0.7c-0.2,0-0.4,0-0.6-0.1c-0.5,0.3-0.7,0.6-0.7,1c0,0.2,0.1,0.4,0.3,0.5c0.2,0.1,0.5,0.1,0.9,0.1h1.3
		c0.8,0,1.4,0.2,1.9,0.5c0.4,0.3,0.7,0.8,0.7,1.5c0,0.8-0.3,1.5-1,1.9c-0.7,0.4-1.6,0.7-2.9,0.7c-1,0-1.7-0.2-2.3-0.5
		c-0.5-0.4-0.8-0.9-0.8-1.5c0-0.5,0.1-0.8,0.4-1.2c0.3-0.3,0.7-0.6,1.2-0.7c-0.2-0.1-0.4-0.2-0.5-0.4c-0.1-0.2-0.2-0.4-0.2-0.6
		c0-0.3,0.1-0.5,0.2-0.7c0.1-0.2,0.4-0.4,0.7-0.6c-0.4-0.2-0.7-0.4-0.9-0.8c-0.2-0.4-0.4-0.8-0.4-1.3c0-0.8,0.2-1.5,0.7-1.9
		c0.5-0.4,1.2-0.7,2.1-0.7c0.4,0,0.7,0,1.1,0.1H656.2z M650.2,57.2c0,0.4,0.2,0.7,0.5,0.9c0.3,0.2,0.8,0.3,1.5,0.3
		c1,0,1.7-0.1,2.1-0.4c0.5-0.3,0.7-0.7,0.7-1.2c0-0.4-0.1-0.7-0.4-0.8c-0.3-0.2-0.7-0.2-1.4-0.2h-1.4c-0.5,0-0.9,0.1-1.2,0.4
		S650.2,56.8,650.2,57.2z M650.8,50.9c0,0.5,0.1,0.9,0.4,1.2c0.3,0.3,0.7,0.4,1.2,0.4c1.1,0,1.7-0.5,1.7-1.6c0-1.1-0.6-1.7-1.7-1.7
		c-0.5,0-0.9,0.1-1.2,0.4S650.8,50.3,650.8,50.9z"/>
	<path d="M660.9,56.1c-1.1,0-2-0.3-2.6-1c-0.6-0.7-1-1.6-1-2.8c0-1.2,0.3-2.2,0.9-2.9s1.4-1.1,2.4-1.1c0.9,0,1.7,0.3,2.2,0.9
		s0.8,1.4,0.8,2.4v0.7h-5.2c0,0.9,0.2,1.5,0.7,2c0.4,0.5,1,0.7,1.8,0.7c0.8,0,1.6-0.2,2.4-0.5v1c-0.4,0.2-0.8,0.3-1.1,0.4
		C661.8,56.1,661.4,56.1,660.9,56.1z M660.6,49.3c-0.6,0-1.1,0.2-1.4,0.6c-0.4,0.4-0.6,0.9-0.6,1.6h3.9c0-0.7-0.2-1.3-0.5-1.6
		C661.6,49.5,661.1,49.3,660.6,49.3z"/>
	<path d="M670.7,56v-4.8c0-0.6-0.1-1.1-0.4-1.4c-0.3-0.3-0.7-0.5-1.3-0.5c-0.8,0-1.4,0.2-1.7,0.6c-0.4,0.4-0.5,1.1-0.5,2.1V56h-1.1
		v-7.5h0.9l0.2,1h0.1c0.2-0.4,0.6-0.7,1-0.9c0.4-0.2,0.9-0.3,1.4-0.3c0.9,0,1.6,0.2,2,0.7c0.5,0.4,0.7,1.1,0.7,2.1V56H670.7z"/>
	<path d="M679.2,55L679.2,55c-0.6,0.8-1.4,1.1-2.4,1.1c-1,0-1.7-0.3-2.3-1c-0.5-0.7-0.8-1.6-0.8-2.9c0-1.2,0.3-2.2,0.8-2.9
		s1.3-1,2.3-1c1,0,1.8,0.4,2.3,1.1h0.1l0-0.5l0-0.5v-3h1.1V56h-0.9L679.2,55z M677,55.1c0.8,0,1.3-0.2,1.7-0.6
		c0.3-0.4,0.5-1.1,0.5-2v-0.2c0-1.1-0.2-1.8-0.5-2.3c-0.4-0.5-0.9-0.7-1.7-0.7c-0.7,0-1.2,0.3-1.5,0.8c-0.4,0.5-0.5,1.2-0.5,2.2
		c0,1,0.2,1.7,0.5,2.2C675.8,54.9,676.3,55.1,677,55.1z"/>
	<path d="M685.9,56.1c-1.1,0-2-0.3-2.6-1c-0.6-0.7-1-1.6-1-2.8c0-1.2,0.3-2.2,0.9-2.9s1.4-1.1,2.4-1.1c0.9,0,1.7,0.3,2.2,0.9
		s0.8,1.4,0.8,2.4v0.7h-5.2c0,0.9,0.2,1.5,0.7,2c0.4,0.5,1,0.7,1.8,0.7c0.8,0,1.6-0.2,2.4-0.5v1c-0.4,0.2-0.8,0.3-1.1,0.4
		C686.8,56.1,686.4,56.1,685.9,56.1z M685.6,49.3c-0.6,0-1.1,0.2-1.4,0.6c-0.4,0.4-0.6,0.9-0.6,1.6h3.9c0-0.7-0.2-1.3-0.5-1.6
		C686.6,49.5,686.2,49.3,685.6,49.3z"/>
	<path d="M694,48.3c0.3,0,0.6,0,0.9,0.1l-0.2,1.1c-0.3-0.1-0.6-0.1-0.8-0.1c-0.6,0-1.1,0.2-1.6,0.7s-0.6,1.1-0.6,1.8v4h-1.1v-7.5
		h0.9l0.1,1.4h0.1c0.3-0.5,0.6-0.9,1-1.1C693.1,48.5,693.5,48.3,694,48.3z"/>
	<path d="M701.1,53.9c0,0.7-0.3,1.2-0.8,1.6c-0.5,0.4-1.2,0.6-2.2,0.6c-1,0-1.8-0.2-2.3-0.5v-1.1c0.4,0.2,0.7,0.3,1.2,0.4
		c0.4,0.1,0.8,0.2,1.2,0.2c0.6,0,1-0.1,1.4-0.3c0.3-0.2,0.5-0.5,0.5-0.9c0-0.3-0.1-0.5-0.4-0.7s-0.7-0.5-1.5-0.7
		c-0.7-0.3-1.2-0.5-1.5-0.7c-0.3-0.2-0.5-0.4-0.7-0.7s-0.2-0.5-0.2-0.9c0-0.6,0.2-1.1,0.7-1.4c0.5-0.4,1.2-0.5,2-0.5
		c0.8,0,1.6,0.2,2.4,0.5l-0.4,0.9c-0.8-0.3-1.4-0.5-2-0.5c-0.5,0-0.9,0.1-1.2,0.3c-0.3,0.2-0.4,0.4-0.4,0.7c0,0.2,0.1,0.4,0.2,0.5
		c0.1,0.1,0.3,0.3,0.5,0.4c0.2,0.1,0.7,0.3,1.3,0.6c0.9,0.3,1.5,0.7,1.8,1C701,53,701.1,53.4,701.1,53.9z"/>
	<path d="M705.4,52.1c0,1.2-0.2,2.3-0.5,3.3c-0.4,1-0.9,1.9-1.5,2.7h-1.1c0.6-0.9,1.1-1.8,1.5-2.9c0.3-1,0.5-2.1,0.5-3.2
		c0-1.1-0.2-2.2-0.5-3.2c-0.3-1.1-0.8-2-1.5-2.9h1.1c0.7,0.8,1.2,1.7,1.5,2.8C705.2,49.8,705.4,50.9,705.4,52.1z"/>
	<path d="M707,55.2c0-0.3,0.1-0.5,0.2-0.7c0.1-0.2,0.3-0.2,0.6-0.2c0.3,0,0.5,0.1,0.6,0.2c0.1,0.2,0.2,0.4,0.2,0.7
		c0,0.3-0.1,0.5-0.2,0.7c-0.2,0.2-0.4,0.2-0.6,0.2c-0.2,0-0.4-0.1-0.6-0.2C707,55.8,707,55.6,707,55.2z"/>
</g>
</svg>
