<?xml version="1.0" encoding="utf-8"?>
<!-- Generator: Adobe Illustrator 23.0.3, SVG Export Plug-In . SVG Version: 6.00 Build 0)  -->
<svg version="1.1" id="Layer_1" xmlns="http://www.w3.org/2000/svg" xmlns:xlink="http://www.w3.org/1999/xlink" x="0px" y="0px"
	 viewBox="0 0 687.7 365.3" style="enable-background:new 0 0 687.7 365.3;" xml:space="preserve">
<style type="text/css">
	.st0{fill:none;stroke:#66696A;stroke-width:0.5;stroke-miterlimit:10;}
	.st1{fill:#EF4848;}
	.st2{fill:#FA7977;}
	.st3{fill:#61CCD8;}
	.st4{fill:#339AA5;}
	.st5{fill:#015059;}
	.st6{fill:none;}
	.st7{enable-background:new    ;}
</style>
<polyline class="st0" points="214.8,118.8 214.8,62.6 176.9,62.6 "/>
<polyline class="st0" points="197.3,120.5 197.3,86.4 176.9,86.4 "/>
<polyline class="st0" points="474.4,73.7 474.4,17.4 512.2,17.4 "/>
<polyline class="st0" points="491.8,75.3 491.8,41.3 512.2,41.3 "/>
<path class="st1" d="M222.8,114.7c53.8,0,97.5,43.6,97.5,97.4s-43.6,97.4-97.4,97.4s-97.4-43.6-97.4-97.4c0-10.2,1.6-20.4,4.8-30.1
	l92.7,30.1L222.8,114.7L222.8,114.7z"/>
<path class="st2" d="M130.1,182c9.2-28.3,30.8-50.9,58.8-61.2l33.9,91.3L130.1,182z"/>
<path class="st3" d="M188.9,120.8c6.5-2.4,13.2-4.1,20.1-5.1l13.8,96.5L188.9,120.8z"/>
<path class="st4" d="M209,115.7c4.6-0.7,9.2-1,13.8-1v97.4L209,115.7z"/>
<g>
	<path class="st1" d="M468.5,71.6c3.9,0,7.8,0.2,11.6,0.5l-11.6,129.3V71.6z"/>
	<path class="st2" d="M480.1,72.1c7.7,0.7,15.4,2.1,22.9,4.2l-34.5,125.1L480.1,72.1z"/>
	<path class="st3" d="M503,76.3c7.5,2.1,14.8,4.8,21.8,8.2l-56.3,116.9L503,76.3z"/>
	<path class="st4" d="M524.8,84.4c24.7,11.9,45,31.3,58,55.4l-114.3,61.5L524.8,84.4z"/>
	<path class="st5" d="M582.8,139.9c34,63.1,10.3,141.8-52.8,175.8c-63.1,34-141.8,10.3-175.8-52.8c-34-63.1-10.3-141.8,52.8-175.8
		c18.9-10.2,40-15.5,61.5-15.5v129.8L582.8,139.9z"/>
</g>
<g>
	<rect x="613.1" y="190.7" class="st6" width="127.3" height="10.7"/>
	<g class="st7">
		<path class="st5" d="M615.9,191c0.7,0,1.2,0.2,1.7,0.5c0.4,0.3,0.6,0.7,0.6,1.3c0,0.4-0.1,0.7-0.3,1c-0.2,0.3-0.5,0.5-1,0.8
			c0.5,0.3,0.9,0.6,1.1,0.9c0.2,0.3,0.3,0.7,0.3,1c0,0.6-0.2,1.1-0.7,1.4c-0.5,0.4-1.1,0.5-1.8,0.5c-0.8,0-1.4-0.2-1.8-0.5
			c-0.4-0.3-0.7-0.8-0.7-1.4c0-0.4,0.1-0.8,0.3-1.1c0.2-0.3,0.6-0.6,1-0.8c-0.4-0.3-0.7-0.5-0.9-0.8c-0.2-0.3-0.3-0.6-0.3-1
			c0-0.5,0.2-0.9,0.6-1.2C614.7,191.2,615.3,191,615.9,191z M614.8,196.4c0,0.3,0.1,0.5,0.3,0.7s0.5,0.2,0.8,0.2
			c0.4,0,0.7-0.1,0.8-0.2c0.2-0.2,0.3-0.4,0.3-0.6c0-0.2-0.1-0.4-0.3-0.6c-0.2-0.2-0.5-0.4-0.9-0.6
			C615.2,195.5,614.8,195.9,614.8,196.4z M615.9,192.1c-0.3,0-0.5,0.1-0.6,0.2c-0.2,0.1-0.2,0.3-0.2,0.5c0,0.2,0.1,0.4,0.2,0.5
			c0.1,0.2,0.4,0.3,0.7,0.5c0.3-0.1,0.5-0.3,0.7-0.5s0.2-0.3,0.2-0.5c0-0.2-0.1-0.4-0.2-0.5C616.4,192.2,616.2,192.1,615.9,192.1z"
			/>
		<path class="st5" d="M623.9,192.7c0,0.4-0.1,0.8-0.4,1.1c-0.3,0.3-0.6,0.5-1.1,0.6v0c0.6,0.1,1,0.2,1.3,0.5
			c0.3,0.3,0.4,0.7,0.4,1.1c0,0.7-0.2,1.2-0.7,1.6c-0.5,0.4-1.2,0.6-2.1,0.6c-0.8,0-1.5-0.1-2.1-0.4v-1.3c0.3,0.1,0.6,0.3,0.9,0.3
			s0.7,0.1,1,0.1c0.5,0,0.9-0.1,1.1-0.3c0.2-0.2,0.4-0.4,0.4-0.8c0-0.3-0.1-0.6-0.4-0.7s-0.7-0.2-1.3-0.2h-0.5V194h0.6
			c0.6,0,1-0.1,1.2-0.2c0.3-0.1,0.4-0.4,0.4-0.7c0-0.5-0.3-0.8-1-0.8c-0.2,0-0.5,0-0.7,0.1c-0.2,0.1-0.5,0.2-0.8,0.4l-0.7-1
			c0.7-0.5,1.4-0.7,2.3-0.7c0.7,0,1.3,0.1,1.8,0.4C623.7,191.8,623.9,192.2,623.9,192.7z"/>
		<path class="st5" d="M628.2,193.3c0,0.7-0.1,1.3-0.4,1.7c-0.3,0.4-0.7,0.6-1.3,0.6c-0.5,0-1-0.2-1.2-0.6c-0.3-0.4-0.4-0.9-0.4-1.7
			c0-1.5,0.6-2.2,1.7-2.2c0.5,0,1,0.2,1.3,0.6C628.1,192,628.2,192.5,628.2,193.3z M626,193.3c0,0.4,0,0.7,0.1,0.9
			c0.1,0.2,0.2,0.3,0.4,0.3c0.3,0,0.5-0.4,0.5-1.2c0-0.8-0.2-1.2-0.5-1.2c-0.2,0-0.3,0.1-0.4,0.3C626.1,192.6,626,192.9,626,193.3z
			 M631.6,191.1l-4,7.1h-1.2l4-7.1H631.6z M633.2,196.1c0,0.7-0.1,1.3-0.4,1.7c-0.3,0.4-0.7,0.6-1.3,0.6c-0.5,0-1-0.2-1.2-0.6
			c-0.3-0.4-0.4-0.9-0.4-1.7c0-1.5,0.6-2.2,1.7-2.2c0.5,0,1,0.2,1.3,0.6C633.1,194.8,633.2,195.4,633.2,196.1z M631,196.1
			c0,0.4,0,0.7,0.1,0.9c0.1,0.2,0.2,0.3,0.4,0.3c0.3,0,0.5-0.4,0.5-1.2c0-0.8-0.2-1.2-0.5-1.2c-0.2,0-0.3,0.1-0.4,0.3
			C631.1,195.4,631,195.7,631,196.1z"/>
	</g>
	<g class="st7">
		<path d="M639.6,198.3h-0.8v-5.1c0-0.4,0-0.8,0-1.2c-0.1,0.1-0.1,0.1-0.2,0.2c-0.1,0.1-0.5,0.4-1.2,1l-0.4-0.6l1.9-1.5h0.7V198.3z"
			/>
		<path d="M649.9,198.3L649,196h-2.9l-0.9,2.3h-0.8l2.8-7.2h0.7l2.8,7.2H649.9z M648.7,195.3l-0.8-2.2c-0.1-0.3-0.2-0.6-0.3-1
			c-0.1,0.3-0.2,0.7-0.3,1l-0.8,2.2H648.7z"/>
		<path d="M654,192.8c0.2,0,0.5,0,0.6,0.1l-0.1,0.8c-0.2,0-0.4-0.1-0.6-0.1c-0.4,0-0.8,0.2-1.1,0.5s-0.5,0.8-0.5,1.3v2.9h-0.8v-5.4
			h0.7l0.1,1h0c0.2-0.3,0.4-0.6,0.7-0.8C653.4,192.9,653.7,192.8,654,192.8z"/>
		<path d="M657.4,197.7c0.1,0,0.3,0,0.4,0c0.1,0,0.2,0,0.3-0.1v0.6c-0.1,0-0.2,0.1-0.4,0.1c-0.2,0-0.3,0-0.5,0c-1,0-1.6-0.5-1.6-1.6
			v-3.2H655v-0.4l0.8-0.3l0.3-1.1h0.5v1.2h1.6v0.6h-1.6v3.1c0,0.3,0.1,0.6,0.2,0.7C656.9,197.6,657.1,197.7,657.4,197.7z"/>
		<path d="M663.6,198.3l-1-3.1c-0.1-0.2-0.2-0.6-0.3-1.3h0c-0.1,0.6-0.2,1-0.3,1.3l-1,3.1h-0.9l-1.5-5.4h0.8
			c0.3,1.3,0.6,2.4,0.8,3.1s0.3,1.2,0.3,1.4h0c0-0.2,0.1-0.4,0.2-0.7c0.1-0.3,0.1-0.5,0.2-0.7l1-3.1h0.9l1,3.1
			c0.2,0.6,0.3,1,0.4,1.4h0c0-0.1,0-0.3,0.1-0.5c0.1-0.2,0.4-1.6,1-3.9h0.8l-1.5,5.4H663.6z"/>
		<path d="M671.6,195.6c0,0.9-0.2,1.6-0.7,2c-0.4,0.5-1,0.7-1.8,0.7c-0.5,0-0.9-0.1-1.3-0.3s-0.7-0.5-0.9-1
			c-0.2-0.4-0.3-0.9-0.3-1.5c0-0.9,0.2-1.6,0.7-2c0.4-0.5,1-0.7,1.8-0.7c0.7,0,1.3,0.2,1.8,0.7C671.4,194.1,671.6,194.7,671.6,195.6
			z M667.5,195.6c0,0.7,0.1,1.2,0.4,1.6s0.7,0.5,1.2,0.5c0.5,0,0.9-0.2,1.2-0.5c0.3-0.4,0.4-0.9,0.4-1.6c0-0.7-0.1-1.2-0.4-1.5
			c-0.3-0.4-0.7-0.5-1.2-0.5c-0.5,0-0.9,0.2-1.2,0.5C667.7,194.4,667.5,194.9,667.5,195.6z"/>
		<path d="M675.5,192.8c0.2,0,0.5,0,0.6,0.1l-0.1,0.8c-0.2,0-0.4-0.1-0.6-0.1c-0.4,0-0.8,0.2-1.1,0.5s-0.5,0.8-0.5,1.3v2.9H673v-5.4
			h0.7l0.1,1h0c0.2-0.3,0.4-0.6,0.7-0.8C674.8,192.9,675.1,192.8,675.5,192.8z"/>
		<path d="M677.9,195.5c0.1-0.2,0.4-0.5,0.6-0.8l1.7-1.8h1l-2.2,2.3l2.3,3.1h-1l-1.9-2.5l-0.6,0.5v2h-0.8v-7.6h0.8v4
			C677.9,194.9,677.9,195.2,677.9,195.5L677.9,195.5z"/>
	</g>
</g>
<g>
	<rect x="582.8" y="104" class="st6" width="114.7" height="10.7"/>
	<g class="st7">
		<path class="st4" d="M586.9,111.6h-1.5v-4.1l0-0.7l0-0.7c-0.3,0.3-0.4,0.4-0.5,0.5l-0.8,0.7l-0.7-0.9l2.3-1.8h1.2V111.6z"/>
		<path class="st4" d="M593.9,108c0,1.2-0.2,2.2-0.6,2.8c-0.4,0.6-1,0.9-1.9,0.9c-0.8,0-1.4-0.3-1.9-0.9c-0.4-0.6-0.6-1.5-0.6-2.7
			c0-1.3,0.2-2.2,0.6-2.8c0.4-0.6,1-0.9,1.9-0.9c0.8,0,1.4,0.3,1.9,0.9C593.7,105.9,593.9,106.8,593.9,108z M590.4,108
			c0,0.9,0.1,1.5,0.2,1.9c0.2,0.4,0.4,0.6,0.8,0.6c0.4,0,0.6-0.2,0.8-0.6s0.2-1,0.2-1.9c0-0.9-0.1-1.5-0.2-1.9
			c-0.2-0.4-0.4-0.6-0.8-0.6c-0.4,0-0.6,0.2-0.8,0.6C590.4,106.5,590.4,107.1,590.4,108z"/>
		<path class="st4" d="M597.9,106.6c0,0.7-0.1,1.3-0.4,1.7c-0.3,0.4-0.7,0.6-1.3,0.6c-0.5,0-1-0.2-1.2-0.6c-0.3-0.4-0.4-0.9-0.4-1.7
			c0-1.5,0.6-2.2,1.7-2.2c0.5,0,1,0.2,1.3,0.6C597.8,105.3,597.9,105.8,597.9,106.6z M595.8,106.6c0,0.4,0,0.7,0.1,0.9
			c0.1,0.2,0.2,0.3,0.4,0.3c0.3,0,0.5-0.4,0.5-1.2c0-0.8-0.2-1.2-0.5-1.2c-0.2,0-0.3,0.1-0.4,0.3
			C595.8,105.8,595.8,106.2,595.8,106.6z M601.3,104.4l-4,7.1h-1.2l4-7.1H601.3z M602.9,109.4c0,0.7-0.1,1.3-0.4,1.7
			c-0.3,0.4-0.7,0.6-1.3,0.6c-0.5,0-1-0.2-1.2-0.6c-0.3-0.4-0.4-0.9-0.4-1.7c0-1.5,0.6-2.2,1.7-2.2c0.5,0,1,0.2,1.3,0.6
			C602.8,108.1,602.9,108.7,602.9,109.4z M600.8,109.4c0,0.4,0,0.7,0.1,0.9c0.1,0.2,0.2,0.3,0.4,0.3c0.3,0,0.5-0.4,0.5-1.2
			c0-0.8-0.2-1.2-0.5-1.2c-0.2,0-0.3,0.1-0.4,0.3C600.8,108.7,600.8,109,600.8,109.4z"/>
	</g>
	<g class="st7">
		<path d="M611,111.6h-4.7v-0.7l1.9-1.9c0.6-0.6,1-1,1.1-1.2c0.2-0.2,0.3-0.5,0.4-0.7c0.1-0.2,0.1-0.5,0.1-0.8
			c0-0.4-0.1-0.7-0.3-0.9c-0.2-0.2-0.6-0.3-1-0.3c-0.3,0-0.6,0-0.8,0.1c-0.3,0.1-0.6,0.3-0.9,0.5l-0.4-0.6c0.7-0.5,1.4-0.8,2.1-0.8
			c0.7,0,1.2,0.2,1.6,0.5c0.4,0.3,0.6,0.8,0.6,1.4c0,0.5-0.1,0.9-0.4,1.3s-0.7,1-1.4,1.7l-1.6,1.5v0h3.7V111.6z"/>
		<path d="M619.6,111.6l-0.9-2.3h-2.9l-0.9,2.3h-0.8l2.8-7.2h0.7l2.8,7.2H619.6z M618.5,108.5l-0.8-2.2c-0.1-0.3-0.2-0.6-0.3-1
			c-0.1,0.3-0.2,0.7-0.3,1l-0.8,2.2H618.5z"/>
		<path d="M623.8,106.1c0.2,0,0.5,0,0.6,0.1l-0.1,0.8c-0.2,0-0.4-0.1-0.6-0.1c-0.4,0-0.8,0.2-1.1,0.5s-0.5,0.8-0.5,1.3v2.9h-0.8
			v-5.4h0.7l0.1,1h0c0.2-0.3,0.4-0.6,0.7-0.8C623.1,106.2,623.4,106.1,623.8,106.1z"/>
		<path d="M627.1,111c0.1,0,0.3,0,0.4,0c0.1,0,0.2,0,0.3-0.1v0.6c-0.1,0-0.2,0.1-0.4,0.1c-0.2,0-0.3,0-0.5,0c-1,0-1.6-0.5-1.6-1.6
			v-3.2h-0.8v-0.4l0.8-0.3l0.3-1.1h0.5v1.2h1.6v0.6h-1.6v3.1c0,0.3,0.1,0.6,0.2,0.7C626.7,110.9,626.9,111,627.1,111z"/>
		<path d="M633.3,111.6l-1-3.1c-0.1-0.2-0.2-0.6-0.3-1.3h0c-0.1,0.6-0.2,1-0.3,1.3l-1,3.1h-0.9l-1.5-5.4h0.8
			c0.3,1.3,0.6,2.4,0.8,3.1s0.3,1.2,0.3,1.4h0c0-0.2,0.1-0.4,0.2-0.7c0.1-0.3,0.1-0.5,0.2-0.7l1-3.1h0.9l1,3.1
			c0.2,0.6,0.3,1,0.4,1.4h0c0-0.1,0-0.3,0.1-0.5c0.1-0.2,0.4-1.6,1-3.9h0.8l-1.5,5.4H633.3z"/>
		<path d="M641.3,108.9c0,0.9-0.2,1.6-0.7,2c-0.4,0.5-1,0.7-1.8,0.7c-0.5,0-0.9-0.1-1.3-0.3s-0.7-0.5-0.9-1
			c-0.2-0.4-0.3-0.9-0.3-1.5c0-0.9,0.2-1.6,0.7-2c0.4-0.5,1-0.7,1.8-0.7c0.7,0,1.3,0.2,1.8,0.7C641.1,107.4,641.3,108,641.3,108.9z
			 M637.3,108.9c0,0.7,0.1,1.2,0.4,1.6s0.7,0.5,1.2,0.5c0.5,0,0.9-0.2,1.2-0.5c0.3-0.4,0.4-0.9,0.4-1.6c0-0.7-0.1-1.2-0.4-1.5
			c-0.3-0.4-0.7-0.5-1.2-0.5c-0.5,0-0.9,0.2-1.2,0.5C637.4,107.7,637.3,108.2,637.3,108.9z"/>
		<path d="M645.2,106.1c0.2,0,0.5,0,0.6,0.1l-0.1,0.8c-0.2,0-0.4-0.1-0.6-0.1c-0.4,0-0.8,0.2-1.1,0.5s-0.5,0.8-0.5,1.3v2.9h-0.8
			v-5.4h0.7l0.1,1h0c0.2-0.3,0.4-0.6,0.7-0.8C644.6,106.2,644.9,106.1,645.2,106.1z"/>
		<path d="M647.6,108.8c0.1-0.2,0.4-0.5,0.6-0.8l1.7-1.8h1l-2.2,2.3l2.3,3.1h-1l-1.9-2.5l-0.6,0.5v2h-0.8V104h0.8v4
			C647.6,108.2,647.6,108.5,647.6,108.8L647.6,108.8z"/>
		<path d="M655.5,110.1c0,0.5-0.2,0.9-0.6,1.2s-0.9,0.4-1.6,0.4c-0.7,0-1.3-0.1-1.7-0.3v-0.8c0.3,0.1,0.5,0.2,0.8,0.3
			c0.3,0.1,0.6,0.1,0.9,0.1c0.4,0,0.7-0.1,1-0.2c0.2-0.1,0.3-0.3,0.3-0.6c0-0.2-0.1-0.4-0.3-0.5c-0.2-0.1-0.5-0.3-1.1-0.5
			c-0.5-0.2-0.9-0.3-1.1-0.5c-0.2-0.1-0.4-0.3-0.5-0.5s-0.2-0.4-0.2-0.6c0-0.4,0.2-0.8,0.5-1c0.4-0.3,0.8-0.4,1.5-0.4
			c0.6,0,1.1,0.1,1.7,0.4l-0.3,0.7c-0.5-0.2-1-0.3-1.5-0.3c-0.4,0-0.7,0.1-0.9,0.2s-0.3,0.3-0.3,0.5c0,0.1,0,0.3,0.1,0.4
			s0.2,0.2,0.4,0.3c0.2,0.1,0.5,0.2,0.9,0.4c0.6,0.2,1.1,0.5,1.3,0.7C655.4,109.5,655.5,109.8,655.5,110.1z"/>
	</g>
</g>
<g>
	<rect x="519.4" y="61.9" class="st6" width="114.7" height="10.7"/>
	<g class="st7">
		<path class="st3" d="M524.5,63.9c0,0.4-0.1,0.8-0.4,1.1c-0.3,0.3-0.6,0.5-1.1,0.6v0c0.6,0.1,1,0.2,1.3,0.5
			c0.3,0.3,0.4,0.7,0.4,1.1c0,0.7-0.2,1.2-0.7,1.6c-0.5,0.4-1.2,0.6-2.1,0.6c-0.8,0-1.5-0.1-2.1-0.4v-1.3c0.3,0.1,0.6,0.3,0.9,0.3
			s0.7,0.1,1,0.1c0.5,0,0.9-0.1,1.1-0.3c0.2-0.2,0.4-0.4,0.4-0.8c0-0.3-0.1-0.6-0.4-0.7s-0.7-0.2-1.3-0.2h-0.5v-1.2h0.6
			c0.6,0,1-0.1,1.2-0.2c0.3-0.1,0.4-0.4,0.4-0.7c0-0.5-0.3-0.8-1-0.8c-0.2,0-0.5,0-0.7,0.1c-0.2,0.1-0.5,0.2-0.8,0.4l-0.7-1
			c0.7-0.5,1.4-0.7,2.3-0.7c0.7,0,1.3,0.1,1.8,0.4C524.3,63,524.5,63.4,524.5,63.9z"/>
		<path class="st3" d="M528.8,64.5c0,0.7-0.1,1.3-0.4,1.7c-0.3,0.4-0.7,0.6-1.3,0.6c-0.5,0-1-0.2-1.2-0.6c-0.3-0.4-0.4-0.9-0.4-1.7
			c0-1.5,0.6-2.2,1.7-2.2c0.6,0,1,0.2,1.3,0.6C528.6,63.2,528.8,63.8,528.8,64.5z M526.6,64.5c0,0.4,0,0.7,0.1,0.9
			c0.1,0.2,0.2,0.3,0.4,0.3c0.3,0,0.5-0.4,0.5-1.2c0-0.8-0.2-1.2-0.5-1.2c-0.2,0-0.3,0.1-0.4,0.3C526.7,63.8,526.6,64.1,526.6,64.5z
			 M532.1,62.3l-4,7.1H527l4-7.1H532.1z M533.8,67.3c0,0.7-0.1,1.3-0.4,1.7c-0.3,0.4-0.7,0.6-1.3,0.6c-0.5,0-1-0.2-1.2-0.6
			c-0.3-0.4-0.4-0.9-0.4-1.7c0-1.5,0.6-2.2,1.7-2.2c0.6,0,1,0.2,1.3,0.6C533.6,66.1,533.8,66.6,533.8,67.3z M531.6,67.3
			c0,0.4,0,0.7,0.1,0.9c0.1,0.2,0.2,0.3,0.4,0.3c0.3,0,0.5-0.4,0.5-1.2c0-0.8-0.2-1.2-0.5-1.2c-0.2,0-0.3,0.1-0.4,0.3
			C531.7,66.6,531.6,66.9,531.6,67.3z"/>
	</g>
	<g class="st7">
		<path d="M541.6,64c0,0.5-0.1,0.8-0.4,1.1c-0.3,0.3-0.6,0.5-1.1,0.6v0c0.6,0.1,1,0.3,1.3,0.5c0.3,0.3,0.4,0.7,0.4,1.2
			c0,0.7-0.2,1.2-0.7,1.6c-0.5,0.4-1.1,0.5-2,0.5c-0.4,0-0.7,0-1-0.1c-0.3-0.1-0.6-0.2-0.9-0.3v-0.8c0.3,0.2,0.6,0.3,1,0.3
			c0.4,0.1,0.7,0.1,1,0.1c1.2,0,1.9-0.5,1.9-1.5c0-0.9-0.7-1.3-2-1.3h-0.7v-0.7h0.7c0.6,0,1-0.1,1.3-0.4c0.3-0.2,0.5-0.6,0.5-1
			c0-0.3-0.1-0.6-0.4-0.8s-0.6-0.3-1-0.3c-0.3,0-0.6,0-0.9,0.1c-0.3,0.1-0.6,0.2-0.9,0.5l-0.4-0.5c0.3-0.2,0.6-0.4,1-0.5
			c0.4-0.1,0.8-0.2,1.2-0.2c0.7,0,1.2,0.2,1.6,0.5C541.4,63,541.6,63.5,541.6,64z"/>
		<path d="M550.5,69.5l-0.9-2.3h-2.9l-0.9,2.3H545l2.8-7.2h0.7l2.8,7.2H550.5z M549.3,66.5l-0.8-2.2c-0.1-0.3-0.2-0.6-0.3-1
			c-0.1,0.3-0.2,0.7-0.3,1l-0.8,2.2H549.3z"/>
		<path d="M554.6,64c0.2,0,0.5,0,0.6,0.1l-0.1,0.8c-0.2,0-0.4-0.1-0.6-0.1c-0.4,0-0.8,0.2-1.1,0.5s-0.5,0.8-0.5,1.3v2.9h-0.8v-5.4
			h0.7l0.1,1h0c0.2-0.3,0.4-0.6,0.7-0.8C554,64.1,554.3,64,554.6,64z"/>
		<path d="M558,68.9c0.1,0,0.3,0,0.4,0c0.1,0,0.2,0,0.3-0.1v0.6c-0.1,0-0.2,0.1-0.4,0.1c-0.2,0-0.3,0-0.5,0c-1,0-1.6-0.5-1.6-1.6
			v-3.2h-0.8v-0.4l0.8-0.3l0.3-1.1h0.5v1.2h1.6v0.6h-1.6v3.1c0,0.3,0.1,0.6,0.2,0.7C557.5,68.8,557.7,68.9,558,68.9z"/>
		<path d="M564.2,69.5l-1-3.1c-0.1-0.2-0.2-0.6-0.3-1.3h0c-0.1,0.6-0.2,1-0.3,1.3l-1,3.1h-0.9l-1.5-5.4h0.8c0.3,1.3,0.6,2.4,0.8,3.1
			s0.3,1.2,0.3,1.4h0c0-0.2,0.1-0.4,0.2-0.7c0.1-0.3,0.1-0.5,0.2-0.7l1-3.1h0.9l1,3.1c0.2,0.6,0.3,1,0.4,1.4h0c0-0.1,0-0.3,0.1-0.5
			c0.1-0.2,0.4-1.6,1-3.9h0.8l-1.5,5.4H564.2z"/>
		<path d="M572.2,66.8c0,0.9-0.2,1.6-0.7,2c-0.4,0.5-1,0.7-1.8,0.7c-0.5,0-0.9-0.1-1.3-0.3s-0.7-0.5-0.9-1c-0.2-0.4-0.3-0.9-0.3-1.5
			c0-0.9,0.2-1.6,0.7-2c0.4-0.5,1-0.7,1.8-0.7c0.7,0,1.3,0.2,1.8,0.7C572,65.3,572.2,66,572.2,66.8z M568.1,66.8
			c0,0.7,0.1,1.2,0.4,1.6s0.7,0.5,1.2,0.5c0.5,0,0.9-0.2,1.2-0.5c0.3-0.4,0.4-0.9,0.4-1.6c0-0.7-0.1-1.2-0.4-1.5
			c-0.3-0.4-0.7-0.5-1.2-0.5c-0.5,0-0.9,0.2-1.2,0.5C568.3,65.6,568.1,66.1,568.1,66.8z"/>
		<path d="M576.1,64c0.2,0,0.5,0,0.6,0.1l-0.1,0.8c-0.2,0-0.4-0.1-0.6-0.1c-0.4,0-0.8,0.2-1.1,0.5s-0.5,0.8-0.5,1.3v2.9h-0.8v-5.4
			h0.7l0.1,1h0c0.2-0.3,0.4-0.6,0.7-0.8C575.4,64.1,575.7,64,576.1,64z"/>
		<path d="M578.5,66.7c0.1-0.2,0.4-0.5,0.6-0.8l1.7-1.8h1l-2.2,2.3l2.3,3.1h-1l-1.9-2.5l-0.6,0.5v2h-0.8v-7.6h0.8v4
			C578.5,66.1,578.5,66.4,578.5,66.7L578.5,66.7z"/>
		<path d="M586.4,68c0,0.5-0.2,0.9-0.6,1.2s-0.9,0.4-1.6,0.4c-0.7,0-1.3-0.1-1.7-0.3v-0.8c0.3,0.1,0.5,0.2,0.8,0.3
			c0.3,0.1,0.6,0.1,0.9,0.1c0.4,0,0.7-0.1,1-0.2c0.2-0.1,0.3-0.3,0.3-0.6c0-0.2-0.1-0.4-0.3-0.5c-0.2-0.1-0.5-0.3-1.1-0.5
			c-0.5-0.2-0.9-0.3-1.1-0.5c-0.2-0.1-0.4-0.3-0.5-0.5s-0.2-0.4-0.2-0.6c0-0.4,0.2-0.8,0.5-1c0.4-0.3,0.8-0.4,1.5-0.4
			c0.6,0,1.1,0.1,1.7,0.4L586,65c-0.5-0.2-1-0.3-1.5-0.3c-0.4,0-0.7,0.1-0.9,0.2s-0.3,0.3-0.3,0.5c0,0.1,0,0.3,0.1,0.4
			s0.2,0.2,0.4,0.3c0.2,0.1,0.5,0.2,0.9,0.4c0.6,0.2,1.1,0.5,1.3,0.7C586.3,67.4,586.4,67.7,586.4,68z"/>
	</g>
</g>
<g>
	<rect x="519.4" y="37" class="st6" width="114.7" height="10.7"/>
	<g class="st7">
		<path class="st2" d="M524.5,39c0,0.4-0.1,0.8-0.4,1.1c-0.3,0.3-0.6,0.5-1.1,0.6v0c0.6,0.1,1,0.2,1.3,0.5c0.3,0.3,0.4,0.7,0.4,1.1
			c0,0.7-0.2,1.2-0.7,1.6c-0.5,0.4-1.2,0.6-2.1,0.6c-0.8,0-1.5-0.1-2.1-0.4V43c0.3,0.1,0.6,0.3,0.9,0.3s0.7,0.1,1,0.1
			c0.5,0,0.9-0.1,1.1-0.3c0.2-0.2,0.4-0.4,0.4-0.8c0-0.3-0.1-0.6-0.4-0.7s-0.7-0.2-1.3-0.2h-0.5v-1.2h0.6c0.6,0,1-0.1,1.2-0.2
			c0.3-0.1,0.4-0.4,0.4-0.7c0-0.5-0.3-0.8-1-0.8c-0.2,0-0.5,0-0.7,0.1c-0.2,0.1-0.5,0.2-0.8,0.4l-0.7-1c0.7-0.5,1.4-0.7,2.3-0.7
			c0.7,0,1.3,0.1,1.8,0.4C524.3,38.1,524.5,38.5,524.5,39z"/>
		<path class="st2" d="M528.8,39.6c0,0.7-0.1,1.3-0.4,1.7c-0.3,0.4-0.7,0.6-1.3,0.6c-0.5,0-1-0.2-1.2-0.6c-0.3-0.4-0.4-0.9-0.4-1.7
			c0-1.5,0.6-2.2,1.7-2.2c0.6,0,1,0.2,1.3,0.6C528.6,38.3,528.8,38.8,528.8,39.6z M526.6,39.6c0,0.4,0,0.7,0.1,0.9
			c0.1,0.2,0.2,0.3,0.4,0.3c0.3,0,0.5-0.4,0.5-1.2c0-0.8-0.2-1.2-0.5-1.2c-0.2,0-0.3,0.1-0.4,0.3C526.7,38.8,526.6,39.2,526.6,39.6z
			 M532.1,37.4l-4,7.1H527l4-7.1H532.1z M533.8,42.4c0,0.7-0.1,1.3-0.4,1.7c-0.3,0.4-0.7,0.6-1.3,0.6c-0.5,0-1-0.2-1.2-0.6
			c-0.3-0.4-0.4-0.9-0.4-1.7c0-1.5,0.6-2.2,1.7-2.2c0.6,0,1,0.2,1.3,0.6C533.6,41.1,533.8,41.7,533.8,42.4z M531.6,42.4
			c0,0.4,0,0.7,0.1,0.9c0.1,0.2,0.2,0.3,0.4,0.3c0.3,0,0.5-0.4,0.5-1.2c0-0.8-0.2-1.2-0.5-1.2c-0.2,0-0.3,0.1-0.4,0.3
			C531.7,41.7,531.6,42,531.6,42.4z"/>
	</g>
	<g class="st7">
		<path d="M537.3,41.5c0-1.4,0.3-2.5,0.8-3.1c0.5-0.7,1.4-1,2.4-1c0.4,0,0.7,0,0.9,0.1v0.7c-0.3-0.1-0.5-0.1-0.9-0.1
			c-0.8,0-1.3,0.2-1.8,0.7c-0.4,0.5-0.6,1.2-0.7,2.2h0.1c0.4-0.6,0.9-0.8,1.7-0.8c0.6,0,1.1,0.2,1.5,0.6c0.4,0.4,0.6,0.9,0.6,1.6
			c0,0.7-0.2,1.3-0.6,1.8c-0.4,0.4-1,0.6-1.6,0.6c-0.7,0-1.3-0.3-1.8-0.8C537.5,43.3,537.3,42.5,537.3,41.5z M539.7,44
			c0.5,0,0.8-0.1,1.1-0.4c0.3-0.3,0.4-0.7,0.4-1.3c0-0.5-0.1-0.8-0.4-1.1c-0.2-0.3-0.6-0.4-1.1-0.4c-0.3,0-0.6,0.1-0.8,0.2
			s-0.4,0.3-0.6,0.5c-0.1,0.2-0.2,0.4-0.2,0.7c0,0.3,0.1,0.6,0.2,0.9c0.1,0.3,0.3,0.5,0.6,0.7S539.4,44,539.7,44z"/>
		<path d="M550.5,44.6l-0.9-2.3h-2.9l-0.9,2.3H545l2.8-7.2h0.7l2.8,7.2H550.5z M549.3,41.5l-0.8-2.2c-0.1-0.3-0.2-0.6-0.3-1
			c-0.1,0.3-0.2,0.7-0.3,1l-0.8,2.2H549.3z"/>
		<path d="M554.6,39.1c0.2,0,0.5,0,0.6,0.1l-0.1,0.8c-0.2,0-0.4-0.1-0.6-0.1c-0.4,0-0.8,0.2-1.1,0.5s-0.5,0.8-0.5,1.3v2.9h-0.8v-5.4
			h0.7l0.1,1h0c0.2-0.3,0.4-0.6,0.7-0.8C554,39.2,554.3,39.1,554.6,39.1z"/>
		<path d="M558,44c0.1,0,0.3,0,0.4,0c0.1,0,0.2,0,0.3-0.1v0.6c-0.1,0-0.2,0.1-0.4,0.1c-0.2,0-0.3,0-0.5,0c-1,0-1.6-0.5-1.6-1.6v-3.2
			h-0.8v-0.4l0.8-0.3l0.3-1.1h0.5v1.2h1.6v0.6h-1.6V43c0,0.3,0.1,0.6,0.2,0.7C557.5,43.9,557.7,44,558,44z"/>
		<path d="M564.2,44.6l-1-3.1c-0.1-0.2-0.2-0.6-0.3-1.3h0c-0.1,0.6-0.2,1-0.3,1.3l-1,3.1h-0.9l-1.5-5.4h0.8c0.3,1.3,0.6,2.4,0.8,3.1
			s0.3,1.2,0.3,1.4h0c0-0.2,0.1-0.4,0.2-0.7c0.1-0.3,0.1-0.5,0.2-0.7l1-3.1h0.9l1,3.1c0.2,0.6,0.3,1,0.4,1.4h0c0-0.1,0-0.3,0.1-0.5
			c0.1-0.2,0.4-1.6,1-3.9h0.8l-1.5,5.4H564.2z"/>
		<path d="M572.2,41.9c0,0.9-0.2,1.6-0.7,2c-0.4,0.5-1,0.7-1.8,0.7c-0.5,0-0.9-0.1-1.3-0.3s-0.7-0.5-0.9-1c-0.2-0.4-0.3-0.9-0.3-1.5
			c0-0.9,0.2-1.6,0.7-2c0.4-0.5,1-0.7,1.8-0.7c0.7,0,1.3,0.2,1.8,0.7C572,40.4,572.2,41,572.2,41.9z M568.1,41.9
			c0,0.7,0.1,1.2,0.4,1.6s0.7,0.5,1.2,0.5c0.5,0,0.9-0.2,1.2-0.5c0.3-0.4,0.4-0.9,0.4-1.6c0-0.7-0.1-1.2-0.4-1.5
			c-0.3-0.4-0.7-0.5-1.2-0.5c-0.5,0-0.9,0.2-1.2,0.5C568.3,40.7,568.1,41.2,568.1,41.9z"/>
		<path d="M576.1,39.1c0.2,0,0.5,0,0.6,0.1l-0.1,0.8c-0.2,0-0.4-0.1-0.6-0.1c-0.4,0-0.8,0.2-1.1,0.5s-0.5,0.8-0.5,1.3v2.9h-0.8v-5.4
			h0.7l0.1,1h0c0.2-0.3,0.4-0.6,0.7-0.8C575.4,39.2,575.7,39.1,576.1,39.1z"/>
		<path d="M578.5,41.8c0.1-0.2,0.4-0.5,0.6-0.8l1.7-1.8h1l-2.2,2.3l2.3,3.1h-1l-1.9-2.5l-0.6,0.5v2h-0.8V37h0.8v4
			C578.5,41.2,578.5,41.5,578.5,41.8L578.5,41.8z"/>
		<path d="M586.4,43.1c0,0.5-0.2,0.9-0.6,1.2s-0.9,0.4-1.6,0.4c-0.7,0-1.3-0.1-1.7-0.3v-0.8c0.3,0.1,0.5,0.2,0.8,0.3
			c0.3,0.1,0.6,0.1,0.9,0.1c0.4,0,0.7-0.1,1-0.2c0.2-0.1,0.3-0.3,0.3-0.6c0-0.2-0.1-0.4-0.3-0.5c-0.2-0.1-0.5-0.3-1.1-0.5
			c-0.5-0.2-0.9-0.3-1.1-0.5c-0.2-0.1-0.4-0.3-0.5-0.5s-0.2-0.4-0.2-0.6c0-0.4,0.2-0.8,0.5-1c0.4-0.3,0.8-0.4,1.5-0.4
			c0.6,0,1.1,0.1,1.7,0.4l-0.3,0.7c-0.5-0.2-1-0.3-1.5-0.3c-0.4,0-0.7,0.1-0.9,0.2s-0.3,0.3-0.3,0.5c0,0.1,0,0.3,0.1,0.4
			s0.2,0.2,0.4,0.3c0.2,0.1,0.5,0.2,0.9,0.4c0.6,0.2,1.1,0.5,1.3,0.7C586.3,42.5,586.4,42.8,586.4,43.1z"/>
	</g>
</g>
<g>
	<rect x="519.4" y="13.1" class="st6" width="114.7" height="10.7"/>
	<g class="st7">
		<path class="st1" d="M523.5,20.7H522v-4.1l0-0.7l0-0.7c-0.2,0.3-0.4,0.4-0.5,0.5l-0.8,0.7l-0.7-0.9l2.3-1.8h1.2V20.7z"/>
		<path class="st1" d="M528.8,15.6c0,0.7-0.1,1.3-0.4,1.7c-0.3,0.4-0.7,0.6-1.3,0.6c-0.5,0-1-0.2-1.2-0.6c-0.3-0.4-0.4-0.9-0.4-1.7
			c0-1.5,0.6-2.2,1.7-2.2c0.6,0,1,0.2,1.3,0.6C528.6,14.4,528.8,14.9,528.8,15.6z M526.6,15.7c0,0.4,0,0.7,0.1,0.9
			c0.1,0.2,0.2,0.3,0.4,0.3c0.3,0,0.5-0.4,0.5-1.2c0-0.8-0.2-1.2-0.5-1.2c-0.2,0-0.3,0.1-0.4,0.3C526.7,14.9,526.6,15.2,526.6,15.7z
			 M532.1,13.5l-4,7.1H527l4-7.1H532.1z M533.8,18.5c0,0.7-0.1,1.3-0.4,1.7c-0.3,0.4-0.7,0.6-1.3,0.6c-0.5,0-1-0.2-1.2-0.6
			c-0.3-0.4-0.4-0.9-0.4-1.7c0-1.5,0.6-2.2,1.7-2.2c0.6,0,1,0.2,1.3,0.6C533.6,17.2,533.8,17.8,533.8,18.5z M531.6,18.5
			c0,0.4,0,0.7,0.1,0.9c0.1,0.2,0.2,0.3,0.4,0.3c0.3,0,0.5-0.4,0.5-1.2c0-0.8-0.2-1.2-0.5-1.2c-0.2,0-0.3,0.1-0.4,0.3
			C531.7,17.8,531.6,18.1,531.6,18.5z"/>
	</g>
	<g class="st7">
		<path d="M540.2,20.7h-0.8v-5.1c0-0.4,0-0.8,0-1.2c-0.1,0.1-0.1,0.1-0.2,0.2c-0.1,0.1-0.5,0.4-1.2,1l-0.4-0.6l1.9-1.5h0.7V20.7z"/>
		<path d="M543.8,20.7l3-6.4h-3.9v-0.7h4.8v0.6l-2.9,6.5H543.8z"/>
		<path d="M550.8,16.3c0.8,0,1.3,0.2,1.8,0.6c0.4,0.4,0.6,0.9,0.6,1.5c0,0.7-0.2,1.3-0.7,1.7c-0.5,0.4-1.1,0.6-1.9,0.6
			c-0.8,0-1.4-0.1-1.8-0.4v-0.8c0.2,0.1,0.5,0.3,0.8,0.3c0.3,0.1,0.7,0.1,1,0.1c0.6,0,1-0.1,1.3-0.4s0.5-0.7,0.5-1.2
			c0-1-0.6-1.5-1.8-1.5c-0.3,0-0.7,0-1.2,0.1l-0.4-0.3l0.3-3.3h3.5v0.7h-2.9l-0.2,2.1C550.1,16.3,550.5,16.3,550.8,16.3z"/>
		<path d="M561.9,20.7l-0.9-2.3h-2.9l-0.9,2.3h-0.8l2.8-7.2h0.7l2.8,7.2H561.9z M560.8,17.6l-0.8-2.2c-0.1-0.3-0.2-0.6-0.3-1
			c-0.1,0.3-0.2,0.7-0.3,1l-0.8,2.2H560.8z"/>
		<path d="M566.1,15.2c0.2,0,0.5,0,0.6,0.1l-0.1,0.8c-0.2,0-0.4-0.1-0.6-0.1c-0.4,0-0.8,0.2-1.1,0.5s-0.5,0.8-0.5,1.3v2.9h-0.8v-5.4
			h0.7l0.1,1h0c0.2-0.3,0.4-0.6,0.7-0.8C565.4,15.3,565.7,15.2,566.1,15.2z"/>
		<path d="M569.4,20.1c0.1,0,0.3,0,0.4,0c0.1,0,0.2,0,0.3-0.1v0.6c-0.1,0-0.2,0.1-0.4,0.1c-0.2,0-0.3,0-0.5,0c-1,0-1.6-0.5-1.6-1.6
			v-3.2H567v-0.4l0.8-0.3l0.3-1.1h0.5v1.2h1.6v0.6h-1.6v3.1c0,0.3,0.1,0.6,0.2,0.7C569,20,569.2,20.1,569.4,20.1z"/>
		<path d="M575.6,20.7l-1-3.1c-0.1-0.2-0.2-0.6-0.3-1.3h0c-0.1,0.6-0.2,1-0.3,1.3l-1,3.1H572l-1.5-5.4h0.8c0.3,1.3,0.6,2.4,0.8,3.1
			s0.3,1.2,0.3,1.4h0c0-0.2,0.1-0.4,0.2-0.7c0.1-0.3,0.1-0.5,0.2-0.7l1-3.1h0.9l1,3.1c0.2,0.6,0.3,1,0.4,1.4h0c0-0.1,0-0.3,0.1-0.5
			c0.1-0.2,0.4-1.6,1-3.9h0.8l-1.5,5.4H575.6z"/>
		<path d="M583.6,18c0,0.9-0.2,1.6-0.7,2c-0.4,0.5-1,0.7-1.8,0.7c-0.5,0-0.9-0.1-1.3-0.3s-0.7-0.5-0.9-1c-0.2-0.4-0.3-0.9-0.3-1.5
			c0-0.9,0.2-1.6,0.7-2c0.4-0.5,1-0.7,1.8-0.7c0.7,0,1.3,0.2,1.8,0.7C583.4,16.5,583.6,17.1,583.6,18z M579.6,18
			c0,0.7,0.1,1.2,0.4,1.6s0.7,0.5,1.2,0.5c0.5,0,0.9-0.2,1.2-0.5c0.3-0.4,0.4-0.9,0.4-1.6c0-0.7-0.1-1.2-0.4-1.5
			c-0.3-0.4-0.7-0.5-1.2-0.5c-0.5,0-0.9,0.2-1.2,0.5C579.7,16.8,579.6,17.3,579.6,18z"/>
		<path d="M587.5,15.2c0.2,0,0.5,0,0.6,0.1L588,16c-0.2,0-0.4-0.1-0.6-0.1c-0.4,0-0.8,0.2-1.1,0.5s-0.5,0.8-0.5,1.3v2.9h-0.8v-5.4
			h0.7l0.1,1h0c0.2-0.3,0.4-0.6,0.7-0.8C586.9,15.3,587.2,15.2,587.5,15.2z"/>
		<path d="M589.9,17.9c0.1-0.2,0.4-0.5,0.6-0.8l1.7-1.8h1l-2.2,2.3l2.3,3.1h-1l-1.9-2.5l-0.6,0.5v2h-0.8v-7.6h0.8v4
			C589.9,17.3,589.9,17.5,589.9,17.9L589.9,17.9z"/>
		<path d="M597.8,19.2c0,0.5-0.2,0.9-0.6,1.2s-0.9,0.4-1.6,0.4c-0.7,0-1.3-0.1-1.7-0.3v-0.8c0.3,0.1,0.5,0.2,0.8,0.3
			c0.3,0.1,0.6,0.1,0.9,0.1c0.4,0,0.7-0.1,1-0.2c0.2-0.1,0.3-0.3,0.3-0.6c0-0.2-0.1-0.4-0.3-0.5c-0.2-0.1-0.5-0.3-1.1-0.5
			c-0.5-0.2-0.9-0.3-1.1-0.5c-0.2-0.1-0.4-0.3-0.5-0.5s-0.2-0.4-0.2-0.6c0-0.4,0.2-0.8,0.5-1c0.4-0.3,0.8-0.4,1.5-0.4
			c0.6,0,1.1,0.1,1.7,0.4l-0.3,0.7c-0.5-0.2-1-0.3-1.5-0.3c-0.4,0-0.7,0.1-0.9,0.2s-0.3,0.3-0.3,0.5c0,0.1,0,0.3,0.1,0.4
			s0.2,0.2,0.4,0.3c0.2,0.1,0.5,0.2,0.9,0.4c0.6,0.2,1.1,0.5,1.3,0.7C597.7,18.5,597.8,18.8,597.8,19.2z"/>
	</g>
</g>
<g>
	<rect y="241.9" class="st6" width="114.7" height="28.1"/>
	<g class="st7">
		<path class="st1" d="M33.6,242.3c0.7,0,1.2,0.2,1.7,0.5c0.4,0.3,0.6,0.7,0.6,1.3c0,0.4-0.1,0.7-0.3,1c-0.2,0.3-0.5,0.5-1,0.8
			c0.5,0.3,0.9,0.6,1.1,0.9c0.2,0.3,0.3,0.7,0.3,1c0,0.6-0.2,1.1-0.7,1.4c-0.5,0.4-1.1,0.5-1.8,0.5c-0.8,0-1.4-0.2-1.8-0.5
			s-0.7-0.8-0.7-1.4c0-0.4,0.1-0.8,0.3-1.1s0.6-0.6,1-0.8c-0.4-0.3-0.7-0.5-0.9-0.8s-0.3-0.6-0.3-1c0-0.5,0.2-0.9,0.6-1.2
			S32.9,242.3,33.6,242.3z M32.5,247.7c0,0.3,0.1,0.5,0.3,0.7s0.5,0.2,0.8,0.2c0.4,0,0.7-0.1,0.8-0.2c0.2-0.2,0.3-0.4,0.3-0.6
			c0-0.2-0.1-0.4-0.3-0.6c-0.2-0.2-0.5-0.4-0.9-0.6C32.8,246.8,32.5,247.2,32.5,247.7z M33.6,243.4c-0.3,0-0.5,0.1-0.6,0.2
			c-0.2,0.1-0.2,0.3-0.2,0.5c0,0.2,0.1,0.4,0.2,0.5c0.1,0.2,0.4,0.3,0.7,0.5c0.3-0.1,0.5-0.3,0.7-0.5s0.2-0.3,0.2-0.5
			c0-0.2-0.1-0.4-0.2-0.5S33.8,243.4,33.6,243.4z"/>
		<path class="st1" d="M41.8,246c0,1.2-0.2,2.2-0.6,2.8s-1,0.9-1.9,0.9c-0.8,0-1.4-0.3-1.9-0.9s-0.6-1.5-0.6-2.7
			c0-1.3,0.2-2.2,0.6-2.8c0.4-0.6,1-0.9,1.9-0.9c0.8,0,1.4,0.3,1.9,0.9S41.8,244.8,41.8,246z M38.3,246c0,0.9,0.1,1.5,0.2,1.9
			c0.2,0.4,0.4,0.6,0.8,0.6c0.4,0,0.6-0.2,0.8-0.6s0.2-1,0.2-1.9c0-0.9-0.1-1.5-0.2-1.9c-0.2-0.4-0.4-0.6-0.8-0.6
			c-0.4,0-0.6,0.2-0.8,0.6C38.4,244.5,38.3,245.1,38.3,246z"/>
		<path class="st1" d="M45.8,244.5c0,0.7-0.1,1.3-0.4,1.7c-0.3,0.4-0.7,0.6-1.3,0.6c-0.5,0-1-0.2-1.2-0.6c-0.3-0.4-0.4-0.9-0.4-1.7
			c0-1.5,0.6-2.2,1.7-2.2c0.6,0,1,0.2,1.3,0.6C45.7,243.3,45.8,243.8,45.8,244.5z M43.7,244.6c0,0.4,0,0.7,0.1,0.9
			c0.1,0.2,0.2,0.3,0.4,0.3c0.3,0,0.5-0.4,0.5-1.2c0-0.8-0.2-1.2-0.5-1.2c-0.2,0-0.3,0.1-0.4,0.3C43.7,243.8,43.7,244.1,43.7,244.6z
			 M49.2,242.4l-4,7.1h-1.2l4-7.1H49.2z M50.8,247.4c0,0.7-0.1,1.3-0.4,1.7c-0.3,0.4-0.7,0.6-1.3,0.6c-0.5,0-1-0.2-1.2-0.6
			c-0.3-0.4-0.4-0.9-0.4-1.7c0-1.5,0.6-2.2,1.7-2.2c0.6,0,1,0.2,1.3,0.6C50.7,246.1,50.8,246.7,50.8,247.4z M48.7,247.4
			c0,0.4,0,0.7,0.1,0.9c0.1,0.2,0.2,0.3,0.4,0.3c0.3,0,0.5-0.4,0.5-1.2c0-0.8-0.2-1.2-0.5-1.2c-0.2,0-0.3,0.1-0.4,0.3
			C48.7,246.7,48.7,247,48.7,247.4z"/>
	</g>
	<g class="st7">
		<path d="M60.4,245.9c0,1.2-0.3,2.1-1,2.7c-0.6,0.6-1.6,0.9-2.8,0.9h-2v-7.1h2.2c1.1,0,2,0.3,2.6,0.9S60.4,244.8,60.4,245.9z
			 M59.5,245.9c0-0.9-0.2-1.6-0.7-2.1s-1.2-0.7-2.1-0.7h-1.2v5.7h1c1,0,1.7-0.2,2.2-0.7C59.3,247.6,59.5,246.9,59.5,245.9z"/>
		<path d="M61.8,242.8c0-0.2,0-0.3,0.1-0.4c0.1-0.1,0.2-0.1,0.3-0.1c0.1,0,0.2,0,0.3,0.1s0.1,0.2,0.1,0.4s0,0.3-0.1,0.4
			c-0.1,0.1-0.2,0.1-0.3,0.1c-0.1,0-0.3,0-0.3-0.1C61.9,243.1,61.8,242.9,61.8,242.8z M62.7,249.6h-0.8v-5.4h0.8V249.6z"/>
		<path d="M68.8,244.2v0.5l-1,0.1c0.1,0.1,0.2,0.3,0.2,0.4c0.1,0.2,0.1,0.4,0.1,0.6c0,0.5-0.2,0.9-0.5,1.3s-0.8,0.5-1.5,0.5
			c-0.2,0-0.3,0-0.4,0c-0.3,0.2-0.5,0.4-0.5,0.7c0,0.1,0.1,0.3,0.2,0.3c0.1,0.1,0.3,0.1,0.6,0.1h0.9c0.6,0,1,0.1,1.3,0.4
			s0.5,0.6,0.5,1.1c0,0.6-0.2,1-0.7,1.4c-0.5,0.3-1.2,0.5-2.1,0.5c-0.7,0-1.2-0.1-1.6-0.4s-0.6-0.6-0.6-1.1c0-0.3,0.1-0.6,0.3-0.8
			s0.5-0.4,0.9-0.5c-0.1-0.1-0.3-0.2-0.3-0.3s-0.1-0.3-0.1-0.5c0-0.2,0.1-0.4,0.2-0.5s0.3-0.3,0.5-0.4c-0.3-0.1-0.5-0.3-0.7-0.6
			s-0.3-0.6-0.3-0.9c0-0.6,0.2-1,0.5-1.4c0.4-0.3,0.8-0.5,1.5-0.5c0.3,0,0.5,0,0.8,0.1H68.8z M64.5,250.5c0,0.3,0.1,0.5,0.4,0.7
			s0.6,0.2,1,0.2c0.7,0,1.2-0.1,1.5-0.3c0.3-0.2,0.5-0.5,0.5-0.8c0-0.3-0.1-0.5-0.3-0.6c-0.2-0.1-0.5-0.2-1-0.2h-1
			c-0.4,0-0.7,0.1-0.9,0.3S64.5,250.1,64.5,250.5z M65,245.9c0,0.4,0.1,0.7,0.3,0.8s0.5,0.3,0.9,0.3c0.8,0,1.2-0.4,1.2-1.2
			c0-0.8-0.4-1.2-1.2-1.2c-0.4,0-0.7,0.1-0.9,0.3S65,245.5,65,245.9z"/>
		<path d="M69.8,242.8c0-0.2,0-0.3,0.1-0.4c0.1-0.1,0.2-0.1,0.3-0.1c0.1,0,0.2,0,0.3,0.1s0.1,0.2,0.1,0.4s0,0.3-0.1,0.4
			c-0.1,0.1-0.2,0.1-0.3,0.1c-0.1,0-0.3,0-0.3-0.1C69.9,243.1,69.8,242.9,69.8,242.8z M70.7,249.6h-0.8v-5.4h0.8V249.6z"/>
		<path d="M74.2,249c0.1,0,0.3,0,0.4,0c0.1,0,0.2,0,0.3-0.1v0.6c-0.1,0-0.2,0.1-0.4,0.1c-0.2,0-0.3,0-0.5,0c-1,0-1.6-0.5-1.6-1.6
			v-3.2h-0.8v-0.4l0.8-0.3l0.3-1.1h0.5v1.2h1.6v0.6h-1.6v3.1c0,0.3,0.1,0.6,0.2,0.7S73.9,249,74.2,249z"/>
		<path d="M79.3,249.6l-0.2-0.8h0c-0.3,0.3-0.5,0.6-0.8,0.7c-0.3,0.1-0.6,0.2-1,0.2c-0.5,0-0.9-0.1-1.2-0.4s-0.5-0.7-0.5-1.2
			c0-1.1,0.9-1.6,2.6-1.7l0.9,0V246c0-0.4-0.1-0.7-0.3-0.9c-0.2-0.2-0.5-0.3-0.9-0.3c-0.4,0-1,0.1-1.5,0.4l-0.2-0.6
			c0.3-0.1,0.6-0.3,0.9-0.3s0.6-0.1,0.9-0.1c0.6,0,1.1,0.1,1.4,0.4s0.5,0.7,0.5,1.4v3.7H79.3z M77.4,249c0.5,0,0.9-0.1,1.2-0.4
			s0.4-0.7,0.4-1.2v-0.5l-0.8,0c-0.6,0-1.1,0.1-1.4,0.3c-0.3,0.2-0.4,0.5-0.4,0.8c0,0.3,0.1,0.5,0.3,0.7S77.1,249,77.4,249z"/>
		<path d="M82.3,249.6h-0.8V242h0.8V249.6z"/>
		<path d="M90.9,242.4h0.9l-2.6,7.1h-0.8l-2.6-7.1h0.9l1.6,4.6c0.2,0.5,0.3,1,0.4,1.5c0.1-0.5,0.3-1.1,0.5-1.6L90.9,242.4z"/>
		<path d="M92.5,242.8c0-0.2,0-0.3,0.1-0.4c0.1-0.1,0.2-0.1,0.3-0.1c0.1,0,0.2,0,0.3,0.1s0.1,0.2,0.1,0.4s0,0.3-0.1,0.4
			c-0.1,0.1-0.2,0.1-0.3,0.1c-0.1,0-0.3,0-0.3-0.1C92.6,243.1,92.5,242.9,92.5,242.8z M93.4,249.6h-0.8v-5.4h0.8V249.6z"/>
		<path d="M98.8,248.8L98.8,248.8c-0.4,0.5-1,0.8-1.7,0.8c-0.7,0-1.2-0.2-1.6-0.7s-0.6-1.2-0.6-2s0.2-1.6,0.6-2.1s0.9-0.7,1.6-0.7
			c0.7,0,1.3,0.3,1.7,0.8h0.1l0-0.4l0-0.4V242h0.8v7.6h-0.7L98.8,248.8z M97.2,249c0.6,0,1-0.2,1.2-0.5c0.2-0.3,0.4-0.8,0.4-1.5
			v-0.2c0-0.8-0.1-1.3-0.4-1.6c-0.3-0.3-0.7-0.5-1.2-0.5c-0.5,0-0.8,0.2-1.1,0.6c-0.3,0.4-0.4,0.9-0.4,1.6c0,0.7,0.1,1.2,0.4,1.5
			S96.7,249,97.2,249z"/>
		<path d="M103.5,249.7c-0.8,0-1.4-0.2-1.9-0.7s-0.7-1.2-0.7-2c0-0.9,0.2-1.5,0.6-2.1s1-0.8,1.7-0.8c0.7,0,1.2,0.2,1.6,0.7
			c0.4,0.4,0.6,1,0.6,1.7v0.5h-3.7c0,0.6,0.2,1.1,0.5,1.4s0.7,0.5,1.3,0.5c0.6,0,1.1-0.1,1.7-0.4v0.7c-0.3,0.1-0.6,0.2-0.8,0.3
			C104.2,249.6,103.9,249.7,103.5,249.7z M103.3,244.8c-0.4,0-0.8,0.1-1,0.4s-0.4,0.7-0.5,1.2h2.8c0-0.5-0.1-0.9-0.3-1.2
			C104.1,244.9,103.7,244.8,103.3,244.8z"/>
		<path d="M111.5,246.9c0,0.9-0.2,1.6-0.7,2c-0.4,0.5-1,0.7-1.8,0.7c-0.5,0-0.9-0.1-1.3-0.3s-0.7-0.5-0.9-1s-0.3-0.9-0.3-1.5
			c0-0.9,0.2-1.6,0.7-2c0.4-0.5,1-0.7,1.8-0.7c0.7,0,1.3,0.2,1.8,0.7S111.5,246,111.5,246.9z M107.4,246.9c0,0.7,0.1,1.2,0.4,1.6
			s0.7,0.5,1.2,0.5s0.9-0.2,1.2-0.5c0.3-0.4,0.4-0.9,0.4-1.6c0-0.7-0.1-1.2-0.4-1.5c-0.3-0.4-0.7-0.5-1.2-0.5
			c-0.5,0-0.9,0.2-1.2,0.5S107.4,246.2,107.4,246.9z"/>
		<path d="M112.8,244.7c0-0.4,0.2-0.7,0.6-0.7c0.4,0,0.6,0.2,0.6,0.7c0,0.2-0.1,0.4-0.2,0.5s-0.3,0.2-0.4,0.2
			c-0.2,0-0.3-0.1-0.4-0.2C112.9,245.1,112.8,245,112.8,244.7z M112.8,249c0-0.2,0-0.4,0.1-0.5c0.1-0.1,0.2-0.2,0.4-0.2
			c0.2,0,0.3,0.1,0.4,0.2c0.1,0.1,0.2,0.3,0.2,0.5c0,0.2-0.1,0.4-0.2,0.5s-0.3,0.2-0.4,0.2c-0.2,0-0.3-0.1-0.4-0.2
			C112.9,249.4,112.8,249.3,112.8,249z"/>
	</g>
	<g class="st7">
		<path d="M15.4,263.6h-0.8v-6.4h-2.3v-0.7h5.4v0.7h-2.3V263.6z"/>
		<path d="M21,258.1c0.2,0,0.5,0,0.6,0.1l-0.1,0.8c-0.2,0-0.4-0.1-0.6-0.1c-0.4,0-0.8,0.2-1.1,0.5s-0.5,0.8-0.5,1.3v2.9h-0.8v-5.4
			h0.7l0.1,1h0c0.2-0.3,0.4-0.6,0.7-0.8C20.4,258.2,20.7,258.1,21,258.1z"/>
		<path d="M26,263.6l-0.2-0.8h0c-0.3,0.3-0.5,0.6-0.8,0.7c-0.3,0.1-0.6,0.2-1,0.2c-0.5,0-0.9-0.1-1.2-0.4c-0.3-0.3-0.5-0.7-0.5-1.2
			c0-1.1,0.9-1.6,2.6-1.7l0.9,0V260c0-0.4-0.1-0.7-0.3-0.9c-0.2-0.2-0.5-0.3-0.9-0.3c-0.4,0-1,0.1-1.5,0.4l-0.2-0.6
			c0.3-0.1,0.6-0.3,0.9-0.3c0.3-0.1,0.6-0.1,0.9-0.1c0.6,0,1.1,0.1,1.4,0.4s0.5,0.7,0.5,1.4v3.7H26z M24.1,263
			c0.5,0,0.9-0.1,1.2-0.4s0.4-0.7,0.4-1.2v-0.5l-0.8,0c-0.6,0-1.1,0.1-1.4,0.3c-0.3,0.2-0.4,0.5-0.4,0.8c0,0.3,0.1,0.5,0.3,0.7
			C23.6,262.9,23.8,263,24.1,263z"/>
		<path d="M31.9,263.6v-3.5c0-0.4-0.1-0.8-0.3-1c-0.2-0.2-0.5-0.3-0.9-0.3c-0.6,0-1,0.2-1.2,0.5c-0.3,0.3-0.4,0.8-0.4,1.5v2.8h-0.8
			v-5.4h0.7l0.1,0.7h0c0.2-0.3,0.4-0.5,0.7-0.6c0.3-0.1,0.6-0.2,1-0.2c0.6,0,1.1,0.2,1.5,0.5c0.3,0.3,0.5,0.8,0.5,1.5v3.5H31.9z"/>
		<path d="M37.8,262.1c0,0.5-0.2,0.9-0.6,1.2s-0.9,0.4-1.6,0.4c-0.7,0-1.3-0.1-1.7-0.3v-0.8c0.3,0.1,0.5,0.2,0.8,0.3
			c0.3,0.1,0.6,0.1,0.9,0.1c0.4,0,0.7-0.1,1-0.2c0.2-0.1,0.3-0.3,0.3-0.6c0-0.2-0.1-0.4-0.3-0.5c-0.2-0.1-0.5-0.3-1.1-0.5
			c-0.5-0.2-0.9-0.3-1.1-0.5c-0.2-0.1-0.4-0.3-0.5-0.5s-0.2-0.4-0.2-0.6c0-0.4,0.2-0.8,0.5-1c0.4-0.3,0.8-0.4,1.5-0.4
			c0.6,0,1.1,0.1,1.7,0.4l-0.3,0.7c-0.5-0.2-1-0.3-1.5-0.3c-0.4,0-0.7,0.1-0.9,0.2s-0.3,0.3-0.3,0.5c0,0.1,0,0.3,0.1,0.4
			s0.2,0.2,0.4,0.3c0.2,0.1,0.5,0.2,0.9,0.4c0.6,0.2,1.1,0.5,1.3,0.7C37.7,261.4,37.8,261.7,37.8,262.1z"/>
		<path d="M41.6,258.8h-1.4v4.7h-0.8v-4.7h-1v-0.4l1-0.3v-0.3c0-1.3,0.6-2,1.7-2c0.3,0,0.6,0.1,1,0.2l-0.2,0.6
			c-0.3-0.1-0.6-0.2-0.8-0.2c-0.3,0-0.5,0.1-0.7,0.3c-0.1,0.2-0.2,0.5-0.2,1v0.3h1.4V258.8z"/>
		<path d="M44.8,263.7c-0.8,0-1.4-0.2-1.9-0.7c-0.5-0.5-0.7-1.2-0.7-2c0-0.9,0.2-1.5,0.6-2.1s1-0.8,1.7-0.8c0.7,0,1.2,0.2,1.6,0.7
			c0.4,0.4,0.6,1,0.6,1.7v0.5h-3.7c0,0.6,0.2,1.1,0.5,1.4c0.3,0.3,0.7,0.5,1.3,0.5c0.6,0,1.1-0.1,1.7-0.4v0.7
			c-0.3,0.1-0.6,0.2-0.8,0.3C45.5,263.6,45.2,263.7,44.8,263.7z M44.6,258.8c-0.4,0-0.8,0.1-1,0.4c-0.3,0.3-0.4,0.7-0.5,1.2h2.8
			c0-0.5-0.1-0.9-0.3-1.2C45.3,258.9,45,258.8,44.6,258.8z"/>
		<path d="M50.6,258.1c0.2,0,0.5,0,0.6,0.1l-0.1,0.8c-0.2,0-0.4-0.1-0.6-0.1c-0.4,0-0.8,0.2-1.1,0.5s-0.5,0.8-0.5,1.3v2.9h-0.8v-5.4
			h0.7l0.1,1h0c0.2-0.3,0.4-0.6,0.7-0.8C49.9,258.2,50.2,258.1,50.6,258.1z"/>
		<path d="M54.7,258.1c0.2,0,0.5,0,0.6,0.1l-0.1,0.8c-0.2,0-0.4-0.1-0.6-0.1c-0.4,0-0.8,0.2-1.1,0.5s-0.5,0.8-0.5,1.3v2.9h-0.8v-5.4
			h0.7l0.1,1h0c0.2-0.3,0.4-0.6,0.7-0.8C54,258.2,54.3,258.1,54.7,258.1z"/>
		<path d="M58.6,263.7c-0.8,0-1.4-0.2-1.9-0.7c-0.5-0.5-0.7-1.2-0.7-2c0-0.9,0.2-1.5,0.6-2.1s1-0.8,1.7-0.8c0.7,0,1.2,0.2,1.6,0.7
			c0.4,0.4,0.6,1,0.6,1.7v0.5h-3.7c0,0.6,0.2,1.1,0.5,1.4c0.3,0.3,0.7,0.5,1.3,0.5c0.6,0,1.1-0.1,1.7-0.4v0.7
			c-0.3,0.1-0.6,0.2-0.8,0.3C59.2,263.6,58.9,263.7,58.6,263.7z M58.3,258.8c-0.4,0-0.8,0.1-1,0.4c-0.3,0.3-0.4,0.7-0.5,1.2h2.8
			c0-0.5-0.1-0.9-0.3-1.2C59.1,258.9,58.8,258.8,58.3,258.8z"/>
		<path d="M65.6,262.8L65.6,262.8c-0.4,0.5-1,0.8-1.7,0.8c-0.7,0-1.2-0.2-1.6-0.7c-0.4-0.5-0.6-1.2-0.6-2s0.2-1.6,0.6-2.1
			s0.9-0.7,1.6-0.7c0.7,0,1.3,0.3,1.7,0.8h0.1l0-0.4l0-0.4V256h0.8v7.6h-0.7L65.6,262.8z M63.9,263c0.6,0,1-0.2,1.2-0.5
			c0.2-0.3,0.4-0.8,0.4-1.5v-0.2c0-0.8-0.1-1.3-0.4-1.6c-0.3-0.3-0.7-0.5-1.2-0.5c-0.5,0-0.8,0.2-1.1,0.6c-0.3,0.4-0.4,0.9-0.4,1.6
			c0,0.7,0.1,1.2,0.4,1.5C63.1,262.8,63.5,263,63.9,263z"/>
		<path d="M73.1,258.8h-1.4v4.7h-0.8v-4.7h-1v-0.4l1-0.3v-0.3c0-1.3,0.6-2,1.7-2c0.3,0,0.6,0.1,1,0.2l-0.2,0.6
			c-0.3-0.1-0.6-0.2-0.8-0.2c-0.3,0-0.5,0.1-0.7,0.3c-0.1,0.2-0.2,0.5-0.2,1v0.3h1.4V258.8z"/>
		<path d="M76.5,258.1c0.2,0,0.5,0,0.6,0.1l-0.1,0.8c-0.2,0-0.4-0.1-0.6-0.1c-0.4,0-0.8,0.2-1.1,0.5s-0.5,0.8-0.5,1.3v2.9H74v-5.4
			h0.7l0.1,1h0c0.2-0.3,0.4-0.6,0.7-0.8C75.8,258.2,76.1,258.1,76.5,258.1z"/>
		<path d="M82.7,260.9c0,0.9-0.2,1.6-0.7,2c-0.4,0.5-1,0.7-1.8,0.7c-0.5,0-0.9-0.1-1.3-0.3s-0.7-0.5-0.9-1c-0.2-0.4-0.3-0.9-0.3-1.5
			c0-0.9,0.2-1.6,0.7-2c0.4-0.5,1-0.7,1.8-0.7c0.7,0,1.3,0.2,1.8,0.7C82.5,259.3,82.7,260,82.7,260.9z M78.7,260.9
			c0,0.7,0.1,1.2,0.4,1.6s0.7,0.5,1.2,0.5c0.5,0,0.9-0.2,1.2-0.5c0.3-0.4,0.4-0.9,0.4-1.6c0-0.7-0.1-1.2-0.4-1.5
			c-0.3-0.4-0.7-0.5-1.2-0.5c-0.5,0-0.9,0.2-1.2,0.5C78.8,259.7,78.7,260.2,78.7,260.9z"/>
		<path d="M91,263.6v-3.5c0-0.4-0.1-0.7-0.3-1c-0.2-0.2-0.5-0.3-0.8-0.3c-0.5,0-0.9,0.1-1.1,0.4c-0.2,0.3-0.4,0.7-0.4,1.3v3h-0.8
			v-3.5c0-0.4-0.1-0.7-0.3-1c-0.2-0.2-0.5-0.3-0.9-0.3c-0.5,0-0.9,0.2-1.1,0.5c-0.2,0.3-0.4,0.8-0.4,1.5v2.8h-0.8v-5.4h0.7l0.1,0.7
			h0c0.2-0.3,0.4-0.5,0.6-0.6s0.6-0.2,0.9-0.2c0.8,0,1.4,0.3,1.6,0.9h0c0.2-0.3,0.4-0.5,0.7-0.7s0.6-0.2,1-0.2
			c0.6,0,1.1,0.2,1.4,0.5c0.3,0.3,0.5,0.8,0.5,1.5v3.5H91z"/>
		<path d="M97,263.6h-0.8v-7.1h4v0.7H97v2.6h3v0.7h-3V263.6z"/>
		<path d="M101.1,256.8c0-0.2,0-0.3,0.1-0.4c0.1-0.1,0.2-0.1,0.3-0.1c0.1,0,0.2,0,0.3,0.1c0.1,0.1,0.1,0.2,0.1,0.4s0,0.3-0.1,0.4
			c-0.1,0.1-0.2,0.1-0.3,0.1c-0.1,0-0.2,0-0.3-0.1C101.2,257.1,101.1,256.9,101.1,256.8z M102,263.6h-0.8v-5.4h0.8V263.6z"/>
		<path d="M104.6,263.6h-0.8V256h0.8V263.6z"/>
		<path d="M113.1,263.6v-3.5c0-0.4-0.1-0.7-0.3-1c-0.2-0.2-0.5-0.3-0.8-0.3c-0.5,0-0.9,0.1-1.1,0.4c-0.2,0.3-0.4,0.7-0.4,1.3v3h-0.8
			v-3.5c0-0.4-0.1-0.7-0.3-1c-0.2-0.2-0.5-0.3-0.9-0.3c-0.5,0-0.9,0.2-1.1,0.5c-0.2,0.3-0.4,0.8-0.4,1.5v2.8h-0.8v-5.4h0.7l0.1,0.7
			h0c0.2-0.3,0.4-0.5,0.6-0.6s0.6-0.2,0.9-0.2c0.8,0,1.4,0.3,1.6,0.9h0c0.2-0.3,0.4-0.5,0.7-0.7s0.6-0.2,1-0.2
			c0.6,0,1.1,0.2,1.4,0.5c0.3,0.3,0.5,0.8,0.5,1.5v3.5H113.1z"/>
	</g>
</g>
<g>
	<rect x="20" y="137" class="st6" width="114.7" height="10.7"/>
	<g class="st7">
		<path class="st2" d="M57.5,144.6H56v-4.1l0-0.7l0-0.7c-0.2,0.3-0.4,0.4-0.5,0.5l-0.8,0.7l-0.7-0.9l2.3-1.8h1.2V144.6z"/>
		<path class="st2" d="M64.6,143.1h-0.9v1.5h-1.5v-1.5h-3v-1l3.1-4.6h1.4v4.5h0.9V143.1z M62.3,142v-1.2c0-0.2,0-0.5,0-0.9
			c0-0.4,0-0.6,0-0.7h0c-0.1,0.3-0.3,0.5-0.4,0.8l-1.3,2H62.3z"/>
		<path class="st2" d="M68.5,139.6c0,0.7-0.1,1.3-0.4,1.7c-0.3,0.4-0.7,0.6-1.3,0.6c-0.5,0-1-0.2-1.2-0.6c-0.3-0.4-0.4-0.9-0.4-1.7
			c0-1.5,0.6-2.2,1.7-2.2c0.6,0,1,0.2,1.3,0.6C68.3,138.3,68.5,138.9,68.5,139.6z M66.3,139.6c0,0.4,0,0.7,0.1,0.9
			c0.1,0.2,0.2,0.3,0.4,0.3c0.3,0,0.5-0.4,0.5-1.2c0-0.8-0.2-1.2-0.5-1.2c-0.2,0-0.3,0.1-0.4,0.3C66.3,138.9,66.3,139.2,66.3,139.6z
			 M71.8,137.5l-4,7.1h-1.2l4-7.1H71.8z M73.5,142.4c0,0.7-0.1,1.3-0.4,1.7c-0.3,0.4-0.7,0.6-1.3,0.6c-0.5,0-1-0.2-1.2-0.6
			c-0.3-0.4-0.4-0.9-0.4-1.7c0-1.5,0.6-2.2,1.7-2.2c0.6,0,1,0.2,1.3,0.6C73.3,141.2,73.5,141.7,73.5,142.4z M71.3,142.5
			c0,0.4,0,0.7,0.1,0.9c0.1,0.2,0.2,0.3,0.4,0.3c0.3,0,0.5-0.4,0.5-1.2c0-0.8-0.2-1.2-0.5-1.2c-0.2,0-0.3,0.1-0.4,0.3
			C71.3,141.7,71.3,142,71.3,142.5z"/>
	</g>
	<g class="st7">
		<path d="M83.1,141c0,1.2-0.3,2.1-1,2.7c-0.6,0.6-1.6,0.9-2.8,0.9h-2v-7.1h2.2c1.1,0,2,0.3,2.6,0.9S83.1,139.9,83.1,141z M82.2,141
			c0-0.9-0.2-1.6-0.7-2.1s-1.2-0.7-2.1-0.7h-1.2v5.7h1c1,0,1.7-0.2,2.2-0.7C81.9,142.7,82.2,142,82.2,141z"/>
		<path d="M84.5,137.8c0-0.2,0-0.3,0.1-0.4c0.1-0.1,0.2-0.1,0.3-0.1c0.1,0,0.2,0,0.3,0.1s0.1,0.2,0.1,0.4s0,0.3-0.1,0.4
			c-0.1,0.1-0.2,0.1-0.3,0.1c-0.1,0-0.3,0-0.3-0.1C84.5,138.1,84.5,138,84.5,137.8z M85.3,144.6h-0.8v-5.4h0.8V144.6z"/>
		<path d="M91.4,139.3v0.5l-1,0.1c0.1,0.1,0.2,0.3,0.2,0.4c0.1,0.2,0.1,0.4,0.1,0.6c0,0.5-0.2,0.9-0.5,1.3s-0.8,0.5-1.5,0.5
			c-0.2,0-0.3,0-0.4,0c-0.3,0.2-0.5,0.4-0.5,0.7c0,0.1,0.1,0.3,0.2,0.3c0.1,0.1,0.3,0.1,0.6,0.1h0.9c0.6,0,1,0.1,1.3,0.4
			s0.5,0.6,0.5,1.1c0,0.6-0.2,1-0.7,1.4c-0.5,0.3-1.2,0.5-2.1,0.5c-0.7,0-1.2-0.1-1.6-0.4s-0.6-0.6-0.6-1.1c0-0.3,0.1-0.6,0.3-0.8
			s0.5-0.4,0.9-0.5c-0.1-0.1-0.3-0.2-0.3-0.3s-0.1-0.3-0.1-0.5c0-0.2,0.1-0.4,0.2-0.5s0.3-0.3,0.5-0.4c-0.3-0.1-0.5-0.3-0.7-0.6
			s-0.3-0.6-0.3-0.9c0-0.6,0.2-1,0.5-1.4c0.4-0.3,0.8-0.5,1.5-0.5c0.3,0,0.5,0,0.8,0.1H91.4z M87.2,145.5c0,0.3,0.1,0.5,0.4,0.7
			s0.6,0.2,1,0.2c0.7,0,1.2-0.1,1.5-0.3c0.3-0.2,0.5-0.5,0.5-0.8c0-0.3-0.1-0.5-0.3-0.6c-0.2-0.1-0.5-0.2-1-0.2h-1
			c-0.4,0-0.7,0.1-0.9,0.3S87.2,145.2,87.2,145.5z M87.6,141c0,0.4,0.1,0.7,0.3,0.8s0.5,0.3,0.9,0.3c0.8,0,1.2-0.4,1.2-1.2
			c0-0.8-0.4-1.2-1.2-1.2c-0.4,0-0.7,0.1-0.9,0.3S87.6,140.6,87.6,141z"/>
		<path d="M92.5,137.8c0-0.2,0-0.3,0.1-0.4c0.1-0.1,0.2-0.1,0.3-0.1c0.1,0,0.2,0,0.3,0.1s0.1,0.2,0.1,0.4s0,0.3-0.1,0.4
			c-0.1,0.1-0.2,0.1-0.3,0.1c-0.1,0-0.3,0-0.3-0.1C92.5,138.1,92.5,138,92.5,137.8z M93.3,144.6h-0.8v-5.4h0.8V144.6z"/>
		<path d="M96.8,144c0.1,0,0.3,0,0.4,0c0.1,0,0.2,0,0.3-0.1v0.6c-0.1,0-0.2,0.1-0.4,0.1c-0.2,0-0.3,0-0.5,0c-1,0-1.6-0.5-1.6-1.6
			v-3.2h-0.8v-0.4l0.8-0.3l0.3-1.1h0.5v1.2h1.6v0.6h-1.6v3.1c0,0.3,0.1,0.6,0.2,0.7S96.5,144,96.8,144z"/>
		<path d="M101.9,144.6l-0.2-0.8h0c-0.3,0.3-0.5,0.6-0.8,0.7c-0.3,0.1-0.6,0.2-1,0.2c-0.5,0-0.9-0.1-1.2-0.4s-0.5-0.7-0.5-1.2
			c0-1.1,0.9-1.6,2.6-1.7l0.9,0v-0.3c0-0.4-0.1-0.7-0.3-0.9c-0.2-0.2-0.5-0.3-0.9-0.3c-0.4,0-1,0.1-1.5,0.4l-0.2-0.6
			c0.3-0.1,0.6-0.3,0.9-0.3s0.6-0.1,0.9-0.1c0.6,0,1.1,0.1,1.4,0.4s0.5,0.7,0.5,1.4v3.7H101.9z M100.1,144c0.5,0,0.9-0.1,1.2-0.4
			s0.4-0.7,0.4-1.2V142l-0.8,0c-0.6,0-1.1,0.1-1.4,0.3c-0.3,0.2-0.4,0.5-0.4,0.8c0,0.3,0.1,0.5,0.3,0.7S99.7,144,100.1,144z"/>
		<path d="M105,144.6h-0.8V137h0.8V144.6z"/>
		<path d="M113.5,137.5h0.9l-2.6,7.1H111l-2.6-7.1h0.9l1.6,4.6c0.2,0.5,0.3,1,0.4,1.5c0.1-0.5,0.3-1.1,0.5-1.6L113.5,137.5z"/>
		<path d="M115.2,137.8c0-0.2,0-0.3,0.1-0.4c0.1-0.1,0.2-0.1,0.3-0.1c0.1,0,0.2,0,0.3,0.1s0.1,0.2,0.1,0.4s0,0.3-0.1,0.4
			c-0.1,0.1-0.2,0.1-0.3,0.1c-0.1,0-0.3,0-0.3-0.1C115.2,138.1,115.2,138,115.2,137.8z M116,144.6h-0.8v-5.4h0.8V144.6z"/>
		<path d="M121.4,143.9L121.4,143.9c-0.4,0.5-1,0.8-1.7,0.8c-0.7,0-1.2-0.2-1.6-0.7s-0.6-1.2-0.6-2s0.2-1.6,0.6-2.1s0.9-0.7,1.6-0.7
			c0.7,0,1.3,0.3,1.7,0.8h0.1l0-0.4l0-0.4V137h0.8v7.6h-0.7L121.4,143.9z M119.8,144c0.6,0,1-0.2,1.2-0.5c0.2-0.3,0.4-0.8,0.4-1.5
			v-0.2c0-0.8-0.1-1.3-0.4-1.6c-0.3-0.3-0.7-0.5-1.2-0.5c-0.5,0-0.8,0.2-1.1,0.6c-0.3,0.4-0.4,0.9-0.4,1.6c0,0.7,0.1,1.2,0.4,1.5
			S119.3,144,119.8,144z"/>
		<path d="M126.2,144.7c-0.8,0-1.4-0.2-1.9-0.7s-0.7-1.2-0.7-2c0-0.9,0.2-1.5,0.6-2.1s1-0.8,1.7-0.8c0.7,0,1.2,0.2,1.6,0.7
			c0.4,0.4,0.6,1,0.6,1.7v0.5h-3.7c0,0.6,0.2,1.1,0.5,1.4s0.7,0.5,1.3,0.5c0.6,0,1.1-0.1,1.7-0.4v0.7c-0.3,0.1-0.6,0.2-0.8,0.3
			C126.8,144.7,126.5,144.7,126.2,144.7z M125.9,139.8c-0.4,0-0.8,0.1-1,0.4s-0.4,0.7-0.5,1.2h2.8c0-0.5-0.1-0.9-0.3-1.2
			C126.7,140,126.4,139.8,125.9,139.8z"/>
		<path d="M134.1,141.9c0,0.9-0.2,1.6-0.7,2c-0.4,0.5-1,0.7-1.8,0.7c-0.5,0-0.9-0.1-1.3-0.3s-0.7-0.5-0.9-1s-0.3-0.9-0.3-1.5
			c0-0.9,0.2-1.6,0.7-2c0.4-0.5,1-0.7,1.8-0.7c0.7,0,1.3,0.2,1.8,0.7S134.1,141.1,134.1,141.9z M130,141.9c0,0.7,0.1,1.2,0.4,1.6
			s0.7,0.5,1.2,0.5s0.9-0.2,1.2-0.5c0.3-0.4,0.4-0.9,0.4-1.6c0-0.7-0.1-1.2-0.4-1.5c-0.3-0.4-0.7-0.5-1.2-0.5
			c-0.5,0-0.9,0.2-1.2,0.5S130,141.2,130,141.9z"/>
	</g>
</g>
<g>
	<rect x="55.4" y="81.4" class="st6" width="114.7" height="10.7"/>
	<g class="st7">
		<path class="st3" d="M102,83.5c0,0.4-0.1,0.8-0.4,1.1s-0.6,0.5-1.1,0.6v0c0.6,0.1,1,0.2,1.3,0.5c0.3,0.3,0.4,0.7,0.4,1.1
			c0,0.7-0.2,1.2-0.7,1.6c-0.5,0.4-1.2,0.6-2.1,0.6c-0.8,0-1.5-0.1-2.1-0.4v-1.3c0.3,0.1,0.6,0.3,0.9,0.3s0.7,0.1,1,0.1
			c0.5,0,0.9-0.1,1.1-0.3s0.4-0.4,0.4-0.8c0-0.3-0.1-0.6-0.4-0.7s-0.7-0.2-1.3-0.2h-0.5v-1.2H99c0.6,0,1-0.1,1.2-0.2
			c0.3-0.1,0.4-0.4,0.4-0.7c0-0.5-0.3-0.8-1-0.8c-0.2,0-0.5,0-0.7,0.1s-0.5,0.2-0.8,0.4l-0.7-1c0.7-0.5,1.4-0.7,2.3-0.7
			c0.7,0,1.3,0.1,1.8,0.4S102,83,102,83.5z"/>
		<path class="st3" d="M106.3,84c0,0.7-0.1,1.3-0.4,1.7c-0.3,0.4-0.7,0.6-1.3,0.6c-0.5,0-1-0.2-1.2-0.6c-0.3-0.4-0.4-0.9-0.4-1.7
			c0-1.5,0.6-2.2,1.7-2.2c0.6,0,1,0.2,1.3,0.6C106.2,82.8,106.3,83.3,106.3,84z M104.2,84c0,0.4,0,0.7,0.1,0.9
			c0.1,0.2,0.2,0.3,0.4,0.3c0.3,0,0.5-0.4,0.5-1.2c0-0.8-0.2-1.2-0.5-1.2c-0.2,0-0.3,0.1-0.4,0.3C104.2,83.3,104.2,83.6,104.2,84z
			 M109.7,81.9l-4,7.1h-1.2l4-7.1H109.7z M111.3,86.9c0,0.7-0.1,1.3-0.4,1.7c-0.3,0.4-0.7,0.6-1.3,0.6c-0.5,0-1-0.2-1.2-0.6
			c-0.3-0.4-0.4-0.9-0.4-1.7c0-1.5,0.6-2.2,1.7-2.2c0.6,0,1,0.2,1.3,0.6C111.2,85.6,111.3,86.2,111.3,86.9z M109.2,86.9
			c0,0.4,0,0.7,0.1,0.9c0.1,0.2,0.2,0.3,0.4,0.3c0.3,0,0.5-0.4,0.5-1.2c0-0.8-0.2-1.2-0.5-1.2c-0.2,0-0.3,0.1-0.4,0.3
			C109.2,86.2,109.2,86.5,109.2,86.9z"/>
	</g>
	<g class="st7">
		<path d="M118.4,89l-2.4-6.3h0c0,0.5,0.1,1.1,0.1,1.8V89h-0.8v-7.1h1.2l2.3,5.9h0l2.3-5.9h1.2V89h-0.8v-4.6c0-0.5,0-1.1,0.1-1.7h0
			l-2.4,6.3H118.4z"/>
		<path d="M124.9,83.7v3.5c0,0.4,0.1,0.8,0.3,1s0.5,0.3,0.9,0.3c0.6,0,1-0.2,1.2-0.5s0.4-0.8,0.4-1.5v-2.8h0.8V89h-0.7l-0.1-0.7h0
			c-0.2,0.3-0.4,0.5-0.7,0.6s-0.6,0.2-1,0.2c-0.7,0-1.1-0.2-1.5-0.5s-0.5-0.8-0.5-1.5v-3.5H124.9z"/>
		<path d="M131.1,89h-0.8v-7.6h0.8V89z"/>
		<path d="M134.5,88.5c0.1,0,0.3,0,0.4,0c0.1,0,0.2,0,0.3-0.1V89c-0.1,0-0.2,0.1-0.4,0.1c-0.2,0-0.3,0-0.5,0c-1,0-1.6-0.5-1.6-1.6
			v-3.2h-0.8v-0.4l0.8-0.3l0.3-1.1h0.5v1.2h1.6v0.6h-1.6v3.1c0,0.3,0.1,0.6,0.2,0.7S134.3,88.5,134.5,88.5z"/>
		<path d="M136.3,82.2c0-0.2,0-0.3,0.1-0.4c0.1-0.1,0.2-0.1,0.3-0.1c0.1,0,0.2,0,0.3,0.1s0.1,0.2,0.1,0.4s0,0.3-0.1,0.4
			c-0.1,0.1-0.2,0.1-0.3,0.1c-0.1,0-0.3,0-0.3-0.1C136.3,82.6,136.3,82.4,136.3,82.2z M137.1,89h-0.8v-5.4h0.8V89z"/>
		<path d="M138.4,86.7V86h2.4v0.7H138.4z"/>
		<path d="M145.4,89l-2.4-6.3h0c0,0.5,0.1,1.1,0.1,1.8V89h-0.8v-7.1h1.2l2.3,5.9h0l2.3-5.9h1.2V89h-0.8v-4.6c0-0.5,0-1.1,0.1-1.7h0
			L146,89H145.4z"/>
		<path d="M153.4,89.1c-0.8,0-1.4-0.2-1.9-0.7s-0.7-1.2-0.7-2c0-0.9,0.2-1.5,0.6-2.1s1-0.8,1.7-0.8c0.7,0,1.2,0.2,1.6,0.7
			c0.4,0.4,0.6,1,0.6,1.7v0.5h-3.7c0,0.6,0.2,1.1,0.5,1.4s0.7,0.5,1.3,0.5c0.6,0,1.1-0.1,1.7-0.4v0.7c-0.3,0.1-0.6,0.2-0.8,0.3
			C154,89.1,153.7,89.1,153.4,89.1z M153.1,84.3c-0.4,0-0.8,0.1-1,0.4s-0.4,0.7-0.5,1.2h2.8c0-0.5-0.1-0.9-0.3-1.2
			C153.9,84.4,153.6,84.3,153.1,84.3z"/>
		<path d="M160.4,88.3L160.4,88.3c-0.4,0.5-1,0.8-1.7,0.8c-0.7,0-1.2-0.2-1.6-0.7s-0.6-1.2-0.6-2s0.2-1.6,0.6-2.1s0.9-0.7,1.6-0.7
			c0.7,0,1.3,0.3,1.7,0.8h0.1l0-0.4l0-0.4v-2.2h0.8V89h-0.7L160.4,88.3z M158.7,88.5c0.6,0,1-0.2,1.2-0.5c0.2-0.3,0.4-0.8,0.4-1.5
			v-0.2c0-0.8-0.1-1.3-0.4-1.6c-0.3-0.3-0.7-0.5-1.2-0.5c-0.5,0-0.8,0.2-1.1,0.6c-0.3,0.4-0.4,0.9-0.4,1.6c0,0.7,0.1,1.2,0.4,1.5
			S158.2,88.5,158.7,88.5z"/>
		<path d="M162.8,82.2c0-0.2,0-0.3,0.1-0.4c0.1-0.1,0.2-0.1,0.3-0.1c0.1,0,0.2,0,0.3,0.1s0.1,0.2,0.1,0.4s0,0.3-0.1,0.4
			c-0.1,0.1-0.2,0.1-0.3,0.1c-0.1,0-0.3,0-0.3-0.1C162.8,82.6,162.8,82.4,162.8,82.2z M163.6,89h-0.8v-5.4h0.8V89z"/>
		<path d="M168.7,89l-0.2-0.8h0c-0.3,0.3-0.5,0.6-0.8,0.7c-0.3,0.1-0.6,0.2-1,0.2c-0.5,0-0.9-0.1-1.2-0.4s-0.5-0.7-0.5-1.2
			c0-1.1,0.9-1.6,2.6-1.7l0.9,0v-0.3c0-0.4-0.1-0.7-0.3-0.9c-0.2-0.2-0.5-0.3-0.9-0.3c-0.4,0-1,0.1-1.5,0.4l-0.2-0.6
			c0.3-0.1,0.6-0.3,0.9-0.3s0.6-0.1,0.9-0.1c0.6,0,1.1,0.1,1.4,0.4s0.5,0.7,0.5,1.4V89H168.7z M166.8,88.5c0.5,0,0.9-0.1,1.2-0.4
			s0.4-0.7,0.4-1.2v-0.5l-0.8,0c-0.6,0-1.1,0.1-1.4,0.3c-0.3,0.2-0.4,0.5-0.4,0.8c0,0.3,0.1,0.5,0.3,0.7S166.5,88.5,166.8,88.5z"/>
	</g>
</g>
<g>
	<rect x="55.4" y="57.5" class="st6" width="114.7" height="10.7"/>
	<g class="st7">
		<path class="st4" d="M138.6,65.1h-5v-1l1.8-1.8c0.5-0.5,0.9-0.9,1-1.1c0.2-0.2,0.3-0.4,0.4-0.6s0.1-0.4,0.1-0.6
			c0-0.3-0.1-0.5-0.2-0.6s-0.4-0.2-0.6-0.2c-0.3,0-0.5,0.1-0.8,0.2s-0.5,0.3-0.8,0.5l-0.8-1c0.4-0.3,0.6-0.5,0.9-0.6
			s0.5-0.2,0.8-0.3c0.3-0.1,0.6-0.1,0.9-0.1c0.4,0,0.8,0.1,1.2,0.2s0.6,0.4,0.8,0.7s0.3,0.6,0.3,1c0,0.3-0.1,0.6-0.2,0.9
			c-0.1,0.3-0.3,0.6-0.5,0.9s-0.7,0.7-1.3,1.3l-0.9,0.9v0.1h3.1V65.1z"/>
		<path class="st4" d="M142.6,60.1c0,0.7-0.1,1.3-0.4,1.7c-0.3,0.4-0.7,0.6-1.3,0.6c-0.5,0-1-0.2-1.2-0.6c-0.3-0.4-0.4-0.9-0.4-1.7
			c0-1.5,0.6-2.2,1.7-2.2c0.6,0,1,0.2,1.3,0.6C142.5,58.8,142.6,59.4,142.6,60.1z M140.5,60.1c0,0.4,0,0.7,0.1,0.9
			c0.1,0.2,0.2,0.3,0.4,0.3c0.3,0,0.5-0.4,0.5-1.2c0-0.8-0.2-1.2-0.5-1.2c-0.2,0-0.3,0.1-0.4,0.3C140.5,59.4,140.5,59.7,140.5,60.1z
			 M146,58l-4,7.1h-1.2l4-7.1H146z M147.6,63c0,0.7-0.1,1.3-0.4,1.7c-0.3,0.4-0.7,0.6-1.3,0.6c-0.5,0-1-0.2-1.2-0.6
			c-0.3-0.4-0.4-0.9-0.4-1.7c0-1.5,0.6-2.2,1.7-2.2c0.6,0,1,0.2,1.3,0.6C147.5,61.7,147.6,62.2,147.6,63z M145.5,63
			c0,0.4,0,0.7,0.1,0.9c0.1,0.2,0.2,0.3,0.4,0.3c0.3,0,0.5-0.4,0.5-1.2c0-0.8-0.2-1.2-0.5-1.2c-0.2,0-0.3,0.1-0.4,0.3
			C145.5,62.3,145.5,62.6,145.5,63z"/>
	</g>
	<g class="st7">
		<path d="M152.4,65.1h-0.8V58h4v0.7h-3.1v2.6h3v0.7h-3V65.1z"/>
		<path d="M156.5,58.3c0-0.2,0-0.3,0.1-0.4c0.1-0.1,0.2-0.1,0.3-0.1c0.1,0,0.2,0,0.3,0.1s0.1,0.2,0.1,0.4s0,0.3-0.1,0.4
			c-0.1,0.1-0.2,0.1-0.3,0.1c-0.1,0-0.3,0-0.3-0.1C156.5,58.6,156.5,58.5,156.5,58.3z M157.4,65.1h-0.8v-5.4h0.8V65.1z"/>
		<path d="M159.9,65.1h-0.8v-7.6h0.8V65.1z"/>
		<path d="M168.4,65.1v-3.5c0-0.4-0.1-0.7-0.3-1c-0.2-0.2-0.5-0.3-0.8-0.3c-0.5,0-0.9,0.1-1.1,0.4s-0.4,0.7-0.4,1.3v3H165v-3.5
			c0-0.4-0.1-0.7-0.3-1c-0.2-0.2-0.5-0.3-0.9-0.3c-0.5,0-0.9,0.2-1.1,0.5c-0.2,0.3-0.4,0.8-0.4,1.5v2.8h-0.8v-5.4h0.7l0.1,0.7h0
			c0.2-0.3,0.4-0.5,0.6-0.6s0.6-0.2,0.9-0.2c0.8,0,1.4,0.3,1.6,0.9h0c0.2-0.3,0.4-0.5,0.7-0.7s0.6-0.2,1-0.2c0.6,0,1.1,0.2,1.4,0.5
			c0.3,0.3,0.5,0.8,0.5,1.5v3.5H168.4z"/>
	</g>
</g>
<rect x="128.7" y="326.4" class="st6" width="190.6" height="11"/>
<g class="st7">
	<path d="M189.5,337l-2.4-7.8H187c0.1,1.6,0.1,2.7,0.1,3.2v4.6h-1.9v-10h2.9l2.4,7.6h0l2.5-7.6h2.9v10h-2v-4.7c0-0.2,0-0.5,0-0.8
		s0-1.1,0.1-2.3H194l-2.6,7.8H189.5z"/>
	<path d="M201.8,337.2c-1.2,0-2.2-0.3-2.9-1s-1-1.6-1-2.9c0-1.3,0.3-2.3,1-3c0.6-0.7,1.5-1,2.7-1c1.1,0,1.9,0.3,2.5,0.9
		s0.9,1.5,0.9,2.5v1H200c0,0.6,0.2,1.1,0.5,1.4s0.8,0.5,1.4,0.5c0.5,0,0.9,0,1.3-0.1s0.8-0.2,1.3-0.5v1.6c-0.4,0.2-0.8,0.3-1.2,0.4
		C202.9,337.1,202.4,337.2,201.8,337.2z M201.5,330.7c-0.4,0-0.8,0.1-1,0.4c-0.3,0.3-0.4,0.7-0.4,1.2h2.9c0-0.5-0.1-0.9-0.4-1.2
		C202.3,330.9,201.9,330.7,201.5,330.7z"/>
	<path d="M209,337.2c-0.9,0-1.6-0.3-2.1-1s-0.8-1.7-0.8-2.9c0-1.3,0.3-2.2,0.8-2.9c0.5-0.7,1.2-1,2.2-1c1,0,1.7,0.4,2.2,1.1h0.1
		c-0.1-0.6-0.2-1.1-0.2-1.5v-2.4h2.1V337h-1.6l-0.4-1h-0.1C210.7,336.8,210,337.2,209,337.2z M209.7,335.5c0.5,0,0.9-0.2,1.2-0.5
		s0.4-0.8,0.4-1.6v-0.2c0-0.8-0.1-1.4-0.4-1.8s-0.7-0.5-1.2-0.5c-0.5,0-0.8,0.2-1.1,0.6c-0.3,0.4-0.4,1-0.4,1.7s0.1,1.3,0.4,1.7
		C208.9,335.3,209.3,335.5,209.7,335.5z"/>
	<path d="M215.4,327.4c0-0.7,0.4-1,1.1-1s1.1,0.3,1.1,1c0,0.3-0.1,0.6-0.3,0.8c-0.2,0.2-0.5,0.3-0.9,0.3
		C215.7,328.4,215.4,328.1,215.4,327.4z M217.5,337h-2.1v-7.6h2.1V337z"/>
	<path d="M224.6,337l-0.4-1h-0.1c-0.4,0.4-0.7,0.7-1.1,0.9c-0.4,0.2-0.9,0.3-1.5,0.3c-0.7,0-1.3-0.2-1.7-0.6s-0.6-1-0.6-1.8
		c0-0.8,0.3-1.4,0.9-1.8c0.6-0.4,1.4-0.6,2.6-0.6l1.3,0v-0.3c0-0.8-0.4-1.2-1.2-1.2c-0.6,0-1.3,0.2-2.2,0.6l-0.7-1.4
		c0.9-0.5,1.9-0.7,2.9-0.7c1,0,1.8,0.2,2.4,0.7s0.8,1.1,0.8,2v5.1H224.6z M224,333.5l-0.8,0c-0.6,0-1.1,0.1-1.4,0.3
		s-0.4,0.5-0.4,0.9c0,0.6,0.3,0.9,1,0.9c0.5,0,0.9-0.1,1.2-0.4s0.4-0.6,0.4-1.1V333.5z"/>
	<path d="M235.8,337h-2.1v-8.2H231V327h7.5v1.8h-2.7V337z"/>
	<path d="M238.8,329.4h2.3l1.4,4.3c0.1,0.4,0.2,0.8,0.3,1.3h0c0.1-0.5,0.1-0.9,0.3-1.3l1.4-4.3h2.2l-3.2,8.6
		c-0.3,0.8-0.7,1.4-1.3,1.8s-1.2,0.6-1.9,0.6c-0.4,0-0.7,0-1.1-0.1v-1.7c0.3,0.1,0.5,0.1,0.8,0.1c0.4,0,0.7-0.1,1-0.3
		c0.3-0.2,0.5-0.6,0.6-1l0.1-0.4L238.8,329.4z"/>
	<path d="M252.1,337.2c-0.9,0-1.6-0.3-2.1-1h-0.1c0.1,0.6,0.1,1,0.1,1.1v3.1h-2.1v-11h1.7l0.3,1h0.1c0.5-0.8,1.2-1.1,2.2-1.1
		c0.9,0,1.6,0.3,2.1,1s0.8,1.7,0.8,2.9c0,0.8-0.1,1.5-0.4,2.1s-0.6,1.1-1,1.4S252.7,337.2,252.1,337.2z M251.5,330.9
		c-0.5,0-0.9,0.2-1.1,0.5c-0.2,0.3-0.4,0.8-0.4,1.6v0.2c0,0.8,0.1,1.4,0.4,1.8s0.6,0.5,1.2,0.5c0.9,0,1.4-0.8,1.4-2.3
		c0-0.8-0.1-1.3-0.3-1.7C252.3,331.1,252,330.9,251.5,330.9z"/>
	<path d="M260.2,337.2c-1.2,0-2.2-0.3-2.9-1s-1-1.6-1-2.9c0-1.3,0.3-2.3,1-3c0.6-0.7,1.5-1,2.7-1c1.1,0,1.9,0.3,2.5,0.9
		s0.9,1.5,0.9,2.5v1h-4.9c0,0.6,0.2,1.1,0.5,1.4s0.8,0.5,1.4,0.5c0.5,0,0.9,0,1.3-0.1s0.8-0.2,1.3-0.5v1.6c-0.4,0.2-0.8,0.3-1.2,0.4
		C261.3,337.1,260.8,337.2,260.2,337.2z M259.9,330.7c-0.4,0-0.8,0.1-1,0.4c-0.3,0.3-0.4,0.7-0.4,1.2h2.9c0-0.5-0.1-0.9-0.4-1.2
		C260.7,330.9,260.3,330.7,259.9,330.7z"/>
</g>
<rect x="375.6" y="348.3" class="st6" width="190.6" height="11"/>
<g class="st7">
	<path d="M405,358.9l-0.7-2.4h-3.6l-0.7,2.4h-2.3l3.5-10h2.6l3.5,10H405z M403.8,354.8c-0.7-2.2-1-3.4-1.1-3.7
		c-0.1-0.3-0.1-0.5-0.2-0.7c-0.2,0.6-0.6,2-1.3,4.3H403.8z"/>
	<path d="M412.6,351.1c0.3,0,0.5,0,0.7,0.1l-0.2,2c-0.2,0-0.4-0.1-0.6-0.1c-0.7,0-1.2,0.2-1.6,0.5c-0.4,0.3-0.6,0.8-0.6,1.4v3.9
		h-2.1v-7.6h1.6l0.3,1.3h0.1c0.2-0.4,0.6-0.8,1-1C411.7,351.3,412.2,351.1,412.6,351.1z"/>
	<path d="M417.9,357.4c0.4,0,0.8-0.1,1.3-0.2v1.6c-0.5,0.2-1.2,0.3-1.9,0.3c-0.8,0-1.4-0.2-1.8-0.6c-0.4-0.4-0.6-1.1-0.6-1.9v-3.7
		h-1V352l1.1-0.7l0.6-1.6h1.3v1.6h2.1v1.6H417v3.7c0,0.3,0.1,0.5,0.2,0.7C417.4,357.3,417.7,357.4,417.9,357.4z"/>
	<path d="M420.7,349.3c0-0.7,0.4-1,1.1-1c0.8,0,1.1,0.3,1.1,1c0,0.3-0.1,0.6-0.3,0.8c-0.2,0.2-0.5,0.3-0.9,0.3
		C421.1,350.3,420.7,350,420.7,349.3z M422.9,358.9h-2.1v-7.6h2.1V358.9z"/>
	<path d="M430.4,356.7c0,0.8-0.3,1.4-0.8,1.8c-0.5,0.4-1.4,0.6-2.4,0.6c-0.6,0-1,0-1.4-0.1c-0.4-0.1-0.8-0.2-1.1-0.3v-1.7
		c0.4,0.2,0.8,0.3,1.3,0.5s0.9,0.2,1.3,0.2c0.8,0,1.1-0.2,1.1-0.7c0-0.2-0.1-0.3-0.2-0.4c-0.1-0.1-0.3-0.2-0.5-0.3
		c-0.2-0.1-0.6-0.3-1-0.5c-0.6-0.2-1-0.5-1.3-0.7c-0.3-0.2-0.5-0.5-0.6-0.7c-0.1-0.3-0.2-0.6-0.2-1c0-0.7,0.3-1.2,0.8-1.6
		c0.5-0.4,1.3-0.6,2.2-0.6c0.9,0,1.8,0.2,2.7,0.6l-0.6,1.5c-0.4-0.2-0.7-0.3-1.1-0.4c-0.3-0.1-0.7-0.2-1-0.2c-0.6,0-0.9,0.2-0.9,0.5
		c0,0.2,0.1,0.3,0.3,0.5s0.6,0.3,1.3,0.6c0.6,0.2,1,0.5,1.3,0.7c0.3,0.2,0.5,0.5,0.6,0.7C430.3,356,430.4,356.3,430.4,356.7z"/>
	<path d="M435.2,357.4c0.4,0,0.8-0.1,1.3-0.2v1.6c-0.5,0.2-1.2,0.3-1.9,0.3c-0.8,0-1.4-0.2-1.8-0.6c-0.4-0.4-0.6-1.1-0.6-1.9v-3.7
		h-1V352l1.1-0.7l0.6-1.6h1.3v1.6h2.1v1.6h-2.1v3.7c0,0.3,0.1,0.5,0.2,0.7C434.8,357.3,435,357.4,435.2,357.4z"/>
	<path d="M448,358.9l-0.7-2.4h-3.6l-0.7,2.4h-2.3l3.5-10h2.6l3.5,10H448z M446.8,354.8c-0.7-2.2-1-3.4-1.1-3.7
		c-0.1-0.3-0.1-0.5-0.2-0.7c-0.2,0.6-0.6,2-1.3,4.3H446.8z"/>
	<path d="M455.7,351.1c0.3,0,0.5,0,0.7,0.1l-0.2,2c-0.2,0-0.4-0.1-0.6-0.1c-0.7,0-1.2,0.2-1.6,0.5c-0.4,0.3-0.6,0.8-0.6,1.4v3.9
		h-2.1v-7.6h1.6l0.3,1.3h0.1c0.2-0.4,0.6-0.8,1-1C454.8,351.3,455.2,351.1,455.7,351.1z"/>
	<path d="M461,357.4c0.4,0,0.8-0.1,1.3-0.2v1.6c-0.5,0.2-1.2,0.3-1.9,0.3c-0.8,0-1.4-0.2-1.8-0.6c-0.4-0.4-0.6-1.1-0.6-1.9v-3.7h-1
		V352l1.1-0.7l0.6-1.6h1.3v1.6h2.1v1.6h-2.1v3.7c0,0.3,0.1,0.5,0.2,0.7C460.5,357.3,460.7,357.4,461,357.4z"/>
	<path d="M470.1,358.9l-0.6-2.7l-0.8-3.4h0l-1.4,6h-2.2l-2.2-7.6h2.1l0.9,3.4c0.1,0.6,0.3,1.4,0.4,2.5h0c0-0.3,0.1-0.9,0.2-1.6
		l0.1-0.6l0.9-3.7h2.3l0.9,3.7c0,0.1,0,0.2,0.1,0.4c0,0.2,0.1,0.4,0.1,0.6c0,0.2,0.1,0.4,0.1,0.6c0,0.2,0,0.4,0.1,0.5h0
		c0-0.3,0.1-0.8,0.2-1.3c0.1-0.6,0.2-1,0.2-1.2l0.9-3.4h2l-2.2,7.6H470.1z"/>
	<path d="M482.8,355.1c0,1.2-0.3,2.2-1,2.9s-1.6,1.1-2.7,1.1c-0.7,0-1.4-0.2-1.9-0.5c-0.6-0.3-1-0.8-1.3-1.4s-0.5-1.3-0.5-2.1
		c0-1.2,0.3-2.2,1-2.9c0.7-0.7,1.6-1,2.7-1c0.7,0,1.4,0.2,1.9,0.5s1,0.8,1.3,1.4S482.8,354.3,482.8,355.1z M477.5,355.1
		c0,0.8,0.1,1.3,0.4,1.7c0.2,0.4,0.7,0.6,1.2,0.6c0.6,0,1-0.2,1.2-0.6c0.2-0.4,0.4-1,0.4-1.7c0-0.8-0.1-1.3-0.4-1.7
		s-0.6-0.6-1.2-0.6c-0.6,0-1,0.2-1.2,0.6C477.6,353.8,477.5,354.3,477.5,355.1z"/>
	<path d="M488.8,351.1c0.3,0,0.5,0,0.7,0.1l-0.2,2c-0.2,0-0.4-0.1-0.6-0.1c-0.7,0-1.2,0.2-1.6,0.5c-0.4,0.3-0.6,0.8-0.6,1.4v3.9
		h-2.1v-7.6h1.6l0.3,1.3h0.1c0.2-0.4,0.6-0.8,1-1C487.8,351.3,488.3,351.1,488.8,351.1z"/>
	<path d="M492.8,354.8l0.9-1.2l2.1-2.3h2.4l-3,3.3l3.2,4.3H496l-2.2-3.1l-0.9,0.7v2.4h-2.1v-10.6h2.1v4.7L492.8,354.8L492.8,354.8z"
		/>
	<path d="M507.6,350.6c-0.8,0-1.4,0.3-1.9,0.9c-0.4,0.6-0.7,1.4-0.7,2.5c0,2.2,0.8,3.3,2.5,3.3c0.7,0,1.6-0.2,2.5-0.5v1.8
		c-0.8,0.3-1.7,0.5-2.7,0.5c-1.5,0-2.6-0.4-3.3-1.3c-0.8-0.9-1.2-2.1-1.2-3.8c0-1,0.2-1.9,0.6-2.7c0.4-0.8,0.9-1.4,1.6-1.8
		c0.7-0.4,1.5-0.6,2.5-0.6c1,0,1.9,0.2,2.9,0.7l-0.7,1.7c-0.4-0.2-0.8-0.3-1.1-0.5C508.3,350.6,507.9,350.6,507.6,350.6z"/>
	<path d="M519,355.1c0,1.2-0.3,2.2-1,2.9s-1.6,1.1-2.7,1.1c-0.7,0-1.4-0.2-1.9-0.5c-0.6-0.3-1-0.8-1.3-1.4s-0.5-1.3-0.5-2.1
		c0-1.2,0.3-2.2,1-2.9c0.7-0.7,1.6-1,2.7-1c0.7,0,1.4,0.2,1.9,0.5s1,0.8,1.3,1.4S519,354.3,519,355.1z M513.7,355.1
		c0,0.8,0.1,1.3,0.4,1.7c0.2,0.4,0.7,0.6,1.2,0.6c0.6,0,1-0.2,1.2-0.6c0.2-0.4,0.4-1,0.4-1.7c0-0.8-0.1-1.3-0.4-1.7
		s-0.6-0.6-1.2-0.6c-0.6,0-1,0.2-1.2,0.6C513.9,353.8,513.7,354.3,513.7,355.1z"/>
	<path d="M526.2,358.9l-0.3-1h-0.1c-0.2,0.4-0.5,0.6-1,0.8c-0.4,0.2-0.9,0.3-1.4,0.3c-0.9,0-1.6-0.2-2-0.7c-0.5-0.5-0.7-1.2-0.7-2.1
		v-5h2.1v4.5c0,0.6,0.1,1,0.3,1.2c0.2,0.3,0.5,0.4,0.9,0.4c0.6,0,1-0.2,1.3-0.6c0.3-0.4,0.4-1,0.4-1.9v-3.6h2.1v7.6H526.2z"/>
	<path d="M537,358.9h-2.1v-4.5c0-0.6-0.1-1-0.3-1.2c-0.2-0.3-0.5-0.4-0.9-0.4c-0.6,0-1,0.2-1.3,0.6c-0.3,0.4-0.4,1-0.4,1.9v3.6H530
		v-7.6h1.6l0.3,1h0.1c0.2-0.4,0.6-0.6,1-0.8c0.4-0.2,0.9-0.3,1.4-0.3c0.9,0,1.6,0.2,2,0.7c0.5,0.5,0.7,1.2,0.7,2.1V358.9z"/>
	<path d="M542.4,357.4c0.4,0,0.8-0.1,1.3-0.2v1.6c-0.5,0.2-1.2,0.3-1.9,0.3c-0.8,0-1.4-0.2-1.8-0.6c-0.4-0.4-0.6-1.1-0.6-1.9v-3.7
		h-1V352l1.1-0.7l0.6-1.6h1.3v1.6h2.1v1.6h-2.1v3.7c0,0.3,0.1,0.5,0.2,0.7C541.9,357.3,542.1,357.4,542.4,357.4z"/>
</g>
</svg>
