<?xml version="1.0" encoding="utf-8"?>
<!-- Generator: Adobe Illustrator 23.0.3, SVG Export Plug-In . SVG Version: 6.00 Build 0)  -->
<svg version="1.1" id="Layer_1" xmlns="http://www.w3.org/2000/svg" xmlns:xlink="http://www.w3.org/1999/xlink" x="0px" y="0px"
	 viewBox="0 0 687.71 365.34" style="enable-background:new 0 0 687.71 365.34;" xml:space="preserve">
<style type="text/css">
	.st0{fill:none;stroke:#66696A;stroke-width:0.5;stroke-miterlimit:10;}
	.st1{fill:#EF4848;}
	.st2{fill:#FA7977;}
	.st3{fill:#61CCD8;}
	.st4{fill:#339AA5;}
	.st5{fill:#015059;}
	.st6{fill:none;}
	.st7{font-family:'OpenSans-Bold';}
	.st8{font-size:10px;}
	.st9{font-family:'OpenSans';}
	.st10{font-size:14px;}
</style>
<polyline class="st0" points="214.8,118.85 214.8,62.57 176.9,62.57 "/>
<polyline class="st0" points="197.33,120.48 197.33,86.42 176.9,86.42 "/>
<polyline class="st0" points="474.36,73.69 474.36,17.41 512.25,17.41 "/>
<polyline class="st0" points="491.82,75.33 491.82,41.26 512.25,41.26 "/>
<path class="st1" d="M222.81,114.66c53.82,0,97.45,43.63,97.45,97.45s-43.63,97.45-97.45,97.45s-97.45-43.63-97.45-97.45
	c0-10.23,1.61-20.39,4.77-30.11l92.68,30.11V114.66z"/>
<path class="st2" d="M130.13,182c9.2-28.31,30.84-50.87,58.75-61.23l33.93,91.35L130.13,182z"/>
<path class="st3" d="M188.88,120.76c6.5-2.42,13.25-4.13,20.11-5.11l13.82,96.46L188.88,120.76z"/>
<path class="st4" d="M208.99,115.65c4.58-0.66,9.19-0.98,13.82-0.98l0,97.44L208.99,115.65z"/>
<g>
	<path class="st1" d="M468.52,71.58c3.88,0,7.77,0.17,11.63,0.52l-11.63,129.26V71.58z"/>
	<path class="st2" d="M480.15,72.1c7.74,0.7,15.4,2.09,22.89,4.15l-34.53,125.1L480.15,72.1z"/>
	<path class="st3" d="M503.05,76.26c7.49,2.07,14.78,4.8,21.78,8.18l-56.31,116.93L503.05,76.26z"/>
	<path class="st4" d="M524.83,84.43c24.69,11.89,44.99,31.29,57.97,55.43l-114.28,61.5L524.83,84.43z"/>
	<path class="st5" d="M582.8,139.86c33.96,63.12,10.33,141.82-52.78,175.78c-63.12,33.96-141.82,10.33-175.78-52.78
		c-33.96-63.12-10.33-141.82,52.78-175.78c18.9-10.17,40.03-15.5,61.5-15.5v129.78L582.8,139.86z"/>
</g>
<g>
	<rect x="613.08" y="190.67" class="st6" width="127.29" height="10.7"/>
	<text transform="matrix(1 0 0 1 613.0818 198.2725)"><tspan x="0" y="0" class="st5 st7 st8">83% </tspan><tspan x="23.02" y="0" class="st9 st8">1 Artwork</tspan></text>
</g>
<g>
	<rect x="582.8" y="103.97" class="st6" width="114.72" height="10.7"/>
	<text transform="matrix(1 0 0 1 582.8043 111.5654)"><tspan x="0" y="0" class="st4 st7 st8">10%</tspan><tspan x="20.42" y="0" class="st5 st7 st8"> </tspan><tspan x="23.02" y="0" class="st9 st8">2 Artworks</tspan></text>
</g>
<g>
	<rect x="519.38" y="61.88" class="st6" width="114.72" height="10.7"/>
	<text transform="matrix(1 0 0 1 519.3801 69.4802)"><tspan x="0" y="0" class="st3 st7 st8">3% </tspan><tspan x="17.31" y="0" class="st9 st8">3 Artworks</tspan></text>
</g>
<g>
	<rect x="519.38" y="36.97" class="st6" width="114.72" height="10.7"/>
	<text transform="matrix(1 0 0 1 519.3801 44.5676)"><tspan x="0" y="0" class="st2 st7 st8">3%</tspan><tspan x="14.72" y="0" class="st5 st7 st8"> </tspan><tspan x="17.31" y="0" class="st9 st8">6 Artworks</tspan></text>
</g>
<g>
	<rect x="519.38" y="13.06" class="st6" width="114.72" height="10.7"/>
	<text transform="matrix(1 0 0 1 519.3801 20.6548)"><tspan x="0" y="0" class="st1 st7 st8">1%</tspan><tspan x="14.72" y="0" class="st5 st7 st8"> </tspan><tspan x="17.31" y="0" class="st9 st8">175 Artworks</tspan></text>
</g>
<g>
	<rect y="241.95" class="st6" width="114.72" height="28.12"/>
	<text transform="matrix(1 0 0 1 30.7275 249.553)"><tspan x="0" y="0" class="st1 st7 st8">80%</tspan><tspan x="20.42" y="0" class="st5 st7 st8"> </tspan><tspan x="23.02" y="0" class="st9 st8">Digital Video: </tspan><tspan x="-18.53" y="14" class="st9 st8">Transferred from Film</tspan></text>
</g>
<g>
	<rect x="19.97" y="137.01" class="st6" width="114.72" height="10.7"/>
	<text transform="matrix(1 0 0 1 53.3557 144.6057)"><tspan x="0" y="0" class="st2 st7 st8">14%</tspan><tspan x="20.42" y="0" class="st3 st7 st8"> </tspan><tspan x="23.02" y="0" class="st9 st8">Digital Video</tspan></text>
</g>
<g>
	<rect x="55.36" y="81.44" class="st6" width="114.72" height="10.7"/>
	<text transform="matrix(1 0 0 1 96.9307 89.0347)"><tspan x="0" y="0" class="st3 st7 st8">3%</tspan><tspan x="14.72" y="0" class="st5 st7 st8"> </tspan><tspan x="17.31" y="0" class="st9 st8">Multi-Media</tspan></text>
</g>
<g>
	<rect x="55.36" y="57.52" class="st6" width="114.72" height="10.7"/>
	<text transform="matrix(1 0 0 1 133.2393 65.1218)"><tspan x="0" y="0" class="st4 st7 st8">2%</tspan><tspan x="14.72" y="0" class="st5 st7 st8"> </tspan><tspan x="17.31" y="0" class="st9 st8">Film</tspan></text>
</g>
<rect x="128.68" y="326.38" class="st6" width="190.57" height="11.02"/>
<text transform="matrix(1 0 0 1 184.019 337.0146)" class="st7 st10">Media Type</text>
<rect x="375.59" y="348.29" class="st6" width="190.57" height="11.02"/>
<text transform="matrix(1 0 0 1 397.6092 358.9314)" class="st7 st10">Artist Artwork Count</text>
</svg>
