<?xml version="1.0" encoding="utf-8"?>
<!-- Generator: Adobe Illustrator 23.0.3, SVG Export Plug-In . SVG Version: 6.00 Build 0)  -->
<svg version="1.1" id="Layer_1" xmlns="http://www.w3.org/2000/svg" xmlns:xlink="http://www.w3.org/1999/xlink" x="0px" y="0px"
	 viewBox="0 0 721.76 76.32" style="enable-background:new 0 0 721.76 76.32;" xml:space="preserve">
<style type="text/css">
	.st0{fill:#339AA5;}
	.st1{fill:#EF4848;}
	.st2{fill:#917177;}
	.st3{fill:none;}
	.st4{font-family:'OpenSans';}
	.st5{font-size:14px;}
	.st6{font-family:'OpenSans-Bold';}
</style>
<circle class="st0" cx="15.89" cy="17.87" r="7.15"/>
<circle class="st1" cx="35.05" cy="17.87" r="7.15"/>
<circle class="st1" cx="54.21" cy="17.87" r="7.15"/>
<circle class="st0" cx="15.89" cy="60.41" r="7.15"/>
<circle class="st0" cx="35.05" cy="60.41" r="7.15"/>
<circle class="st1" cx="73.37" cy="60.41" r="7.15"/>
<circle class="st0" cx="54.21" cy="60.41" r="7.15"/>
<circle class="st0" cx="92.53" cy="60.41" r="7.15"/>
<circle class="st0" cx="111.68" cy="60.41" r="7.15"/>
<circle class="st1" cx="150" cy="60.41" r="7.15"/>
<circle class="st0" cx="130.84" cy="60.41" r="7.15"/>
<circle class="st0" cx="188.32" cy="60.41" r="7.15"/>
<circle class="st1" cx="169.16" cy="60.41" r="7.15"/>
<circle class="st0" cx="73.32" cy="17.87" r="7.15"/>
<circle class="st1" cx="92.48" cy="17.87" r="7.15"/>
<circle class="st0" cx="111.64" cy="17.87" r="7.15"/>
<circle class="st0" cx="130.8" cy="17.87" r="7.15"/>
<circle class="st0" cx="149.95" cy="17.87" r="7.15"/>
<circle class="st2" cx="169.11" cy="17.87" r="7.15"/>
<circle class="st0" cx="188.27" cy="17.87" r="7.15"/>
<circle class="st0" cx="208.13" cy="17.68" r="7.15"/>
<circle class="st0" cx="227.29" cy="17.68" r="7.15"/>
<circle class="st0" cx="246.44" cy="17.68" r="7.15"/>
<circle class="st2" cx="208.13" cy="60.22" r="7.15"/>
<circle class="st0" cx="227.29" cy="60.22" r="7.15"/>
<circle class="st0" cx="265.6" cy="60.22" r="7.15"/>
<circle class="st1" cx="246.44" cy="60.22" r="7.15"/>
<circle class="st2" cx="284.76" cy="60.22" r="7.15"/>
<circle class="st0" cx="303.92" cy="60.22" r="7.15"/>
<circle class="st0" cx="342.24" cy="60.22" r="7.15"/>
<circle class="st0" cx="323.08" cy="60.22" r="7.15"/>
<circle class="st0" cx="380.55" cy="60.22" r="7.15"/>
<circle class="st0" cx="361.39" cy="60.22" r="7.15"/>
<circle class="st0" cx="265.55" cy="17.68" r="7.15"/>
<circle class="st0" cx="284.71" cy="17.68" r="7.15"/>
<circle class="st1" cx="303.95" cy="17.68" r="7.15"/>
<circle class="st1" cx="323.11" cy="17.68" r="7.15"/>
<circle class="st1" cx="342.27" cy="17.68" r="7.15"/>
<circle class="st1" cx="361.43" cy="17.68" r="7.15"/>
<circle class="st1" cx="380.68" cy="17.68" r="7.15"/>
<circle class="st1" cx="399.84" cy="17.68" r="7.15"/>
<circle class="st1" cx="418.99" cy="17.68" r="7.15"/>
<circle class="st1" cx="438.11" cy="17.68" r="7.15"/>
<circle class="st2" cx="457.26" cy="17.68" r="7.15"/>
<circle class="st1" cx="476.38" cy="17.68" r="7.15"/>
<circle class="st0" cx="15.85" cy="39.14" r="7.15"/>
<circle class="st2" cx="54.16" cy="39.14" r="7.15"/>
<circle class="st1" cx="35" cy="39.14" r="7.15"/>
<circle class="st0" cx="73.32" cy="39.14" r="7.15"/>
<circle class="st0" cx="92.48" cy="39.14" r="7.15"/>
<circle class="st1" cx="130.8" cy="39.14" r="7.15"/>
<circle class="st0" cx="111.64" cy="39.14" r="7.15"/>
<circle class="st0" cx="169.11" cy="39.14" r="7.15"/>
<circle class="st0" cx="149.95" cy="39.14" r="7.15"/>
<circle class="st0" cx="188.92" cy="38.95" r="7.15"/>
<circle class="st2" cx="208.08" cy="38.95" r="7.15"/>
<circle class="st1" cx="246.4" cy="38.95" r="7.15"/>
<circle class="st0" cx="227.24" cy="38.95" r="7.15"/>
<circle class="st1" cx="265.55" cy="38.95" r="7.15"/>
<circle class="st1" cx="284.71" cy="38.95" r="7.15"/>
<circle class="st1" cx="323.03" cy="38.95" r="7.15"/>
<circle class="st1" cx="303.87" cy="38.95" r="7.15"/>
<circle class="st1" cx="361.35" cy="38.95" r="7.15"/>
<circle class="st0" cx="342.19" cy="38.95" r="7.15"/>
<circle class="st1" cx="380.55" cy="38.95" r="7.15"/>
<circle class="st1" cx="399.71" cy="38.95" r="7.15"/>
<circle class="st0" cx="438.03" cy="38.95" r="7.15"/>
<circle class="st1" cx="418.87" cy="38.95" r="7.15"/>
<circle class="st0" cx="457.19" cy="38.56" r="7.15"/>
<circle class="st0" cx="476.38" cy="38.56" r="7.15"/>
<rect x="502.95" y="9.32" class="st3" width="218.81" height="58.05"/>
<text transform="matrix(1 0 0 1 502.9496 19.9624)"><tspan x="0" y="0" class="st4 st5">New media artists are </tspan><tspan x="0" y="18" class="st0 st6 st5">53% male</tspan><tspan x="66.98" y="18" class="st4 st5">, </tspan><tspan x="74.05" y="18" class="st1 st6 st5">39% female</tspan><tspan x="154.72" y="18" class="st4 st5"> and </tspan><tspan x="186.95" y="18" class="st2 st6 st5">9% </tspan><tspan x="0" y="36" class="st2 st6 st5">a collaborative</tspan><tspan x="103.89" y="36" class="st4 st5"> (both genders).</tspan></text>
</svg>
