<?xml version="1.0" encoding="utf-8"?>
<!-- Generator: Adobe Illustrator 23.0.3, SVG Export Plug-In . SVG Version: 6.00 Build 0)  -->
<svg version="1.1" id="Layer_1" xmlns="http://www.w3.org/2000/svg" xmlns:xlink="http://www.w3.org/1999/xlink" x="0px" y="0px"
	 viewBox="0 0 673.02 259.59" style="enable-background:new 0 0 673.02 259.59;" xml:space="preserve">
<style type="text/css">
	.st0{fill:#015059;}
	.st1{fill:#61CCD8;}
</style>
<g>
	<circle class="st0" cx="129.8" cy="129.8" r="129.8"/>
	<circle class="st1" cx="39.55" cy="76.33" r="3.81"/>
</g>
<g>
	<g>
		<path d="M331.07,82.26h3.17l2.88,6.8l1.17,3.01h0.07c-0.14-1.44-0.43-3.36-0.43-4.97v-4.84h2.95v13.68h-3.17l-2.88-6.82
			l-1.17-2.99h-0.07c0.14,1.51,0.43,3.35,0.43,4.96v4.85h-2.95V82.26z"/>
		<path d="M343.44,90.73c0-3.41,2.63-5.45,5.42-5.45c3.21,0,4.9,2.17,4.9,5c0,0.57-0.09,1.12-0.13,1.38h-7.9v-2.07h5.81l-0.49,0.59
			c0-1.67-0.73-2.55-2.1-2.55c-1.53,0-2.53,1.03-2.53,3.1c0,2.16,1.18,3.11,3.2,3.11c0.95,0,1.76-0.26,2.68-0.72l1.02,1.86
			c-1.19,0.76-2.73,1.22-4.13,1.22C345.97,96.19,343.44,94.19,343.44,90.73z"/>
		<path d="M354.96,85.53h2.99l0.64,4.83c0.13,1.03,0.21,2.03,0.34,3.09h0.07c0.11-1.06,0.27-2.1,0.48-3.09l0.65-3.44h2.24l0.67,3.44
			c0.2,1.03,0.38,2.03,0.52,3.09h0.08c0.14-1.06,0.18-2.06,0.3-3.09l0.58-4.83h2.87l-1.61,10.42h-3.62l-0.57-3.39
			c-0.14-0.9-0.26-1.89-0.38-3.08h-0.08c-0.09,0.88-0.18,1.78-0.35,3.08l-0.56,3.39h-3.56L354.96,85.53z"/>
		<path d="M381.29,82.26h3.25l1.34,4.85l0.46,1.89h0.08l0.45-1.89l1.35-4.85h3.25v13.68h-2.62v-4.24c0-1.54,0.27-4.88,0.42-6.36
			h-0.06l-1.05,3.67l-1.06,3.3h-1.5l-1.08-3.3l-0.98-3.67h-0.07c0.16,1.48,0.42,4.82,0.42,6.36v4.24h-2.58V82.26z"/>
		<path d="M393.84,90.73c0-3.41,2.63-5.45,5.42-5.45c3.21,0,4.9,2.17,4.9,5c0,0.57-0.09,1.12-0.13,1.38h-7.9v-2.07h5.81l-0.49,0.59
			c0-1.67-0.73-2.55-2.1-2.55c-1.53,0-2.53,1.03-2.53,3.1c0,2.16,1.18,3.11,3.2,3.11c0.95,0,1.76-0.26,2.68-0.72l1.02,1.86
			c-1.19,0.76-2.73,1.22-4.13,1.22C396.36,96.19,393.84,94.19,393.84,90.73z"/>
		<path d="M406.27,90.74c0-3.41,2.19-5.47,4.45-5.47c1.14,0,1.92,0.41,2.63,1.12h0.07l-0.14-1.61v-3.55h3.09v14.71h-2.52l-0.22-1.07
			h-0.08c-0.76,0.75-1.84,1.32-2.88,1.32C408,96.19,406.27,94.14,406.27,90.74z M413.27,92.7v-4.2c-0.56-0.51-1.13-0.69-1.74-0.69
			c-1.13,0-2.1,0.92-2.1,2.9c0,2.04,0.75,2.96,2.02,2.96C412.15,93.66,412.74,93.4,413.27,92.7z"/>
		<path d="M423.72,87.95h-4.19v-2.42h7.28v10.42h-3.09V87.95z M423.07,82.01c0-1.13,0.86-1.92,2.05-1.92s2.05,0.79,2.05,1.92
			c0,1.14-0.86,1.89-2.05,1.89S423.07,83.15,423.07,82.01z"/>
		<path d="M431.77,93.06c0-2.33,1.93-3.52,6.85-3.82c-0.11-0.93-0.81-1.5-2.21-1.5c-1,0-2,0.39-3.18,0.97l-1.1-2.02
			c1.44-0.82,3.1-1.41,4.87-1.41c2.93,0,4.7,1.52,4.7,4.71v5.95h-2.52l-0.22-1.17h-0.08c-1.05,0.79-2.35,1.43-3.69,1.43
			C433.08,96.19,431.77,94.81,431.77,93.06z M438.62,92.81V91.1c-3.06,0.15-3.89,0.82-3.89,1.71c0,0.67,0.56,1,1.44,1
			C437.1,93.8,437.88,93.38,438.62,92.81z"/>
		<path d="M460.12,82.26h3.71l4.26,13.68h-3.28l-1.77-6.93c-0.35-1.37-0.76-2.97-1.09-4.41h-0.08c-0.33,1.44-0.71,3.05-1.06,4.41
			l-1.78,6.93h-3.17L460.12,82.26z M458.68,90.28h6.55v2.41h-6.55V90.28z"/>
		<path d="M470.7,85.53h2.54l0.24,2.28h0.07c1.03-1.7,2.56-2.53,4.22-2.53c0.91,0,1.4,0.15,2,0.42l-0.63,2.6
			c-0.65-0.2-1.08-0.31-1.84-0.31c-1.29,0-2.62,0.67-3.52,2.54v5.42h-3.09V85.53z"/>
		<path d="M484.54,91.63v-3.68h-2.62v-2.3l2.76-0.12l0.4-3.18h2.55v3.18h4.39v2.42h-4.39v3.64c0,1.58,0.67,2.18,2.19,2.18
			c0.78,0,1.44-0.16,2.06-0.37l0.56,2.24c-0.92,0.28-2.02,0.56-3.4,0.56C485.72,96.19,484.54,94.36,484.54,91.63z"/>
		<path d="M508.5,85.53h2.54l0.24,2.28h0.07c1.03-1.7,2.56-2.53,4.22-2.53c0.91,0,1.4,0.15,2,0.42l-0.63,2.6
			c-0.65-0.2-1.08-0.31-1.84-0.31c-1.29,0-2.62,0.67-3.52,2.54v5.42h-3.09V85.53z"/>
		<path d="M519.83,90.73c0-3.41,2.63-5.45,5.42-5.45c3.21,0,4.9,2.17,4.9,5c0,0.57-0.09,1.12-0.13,1.38h-7.9v-2.07h5.81l-0.49,0.59
			c0-1.67-0.73-2.55-2.1-2.55c-1.53,0-2.53,1.03-2.53,3.1c0,2.16,1.18,3.11,3.2,3.11c0.95,0,1.76-0.26,2.68-0.72l1.02,1.86
			c-1.19,0.76-2.73,1.22-4.13,1.22C522.36,96.19,519.83,94.19,519.83,90.73z"/>
		<path d="M532.79,85.53h2.52l0.22,1.06h0.08c0.84-0.77,1.99-1.31,3.1-1.31c2.6,0,4.17,2.08,4.17,5.3c0,3.57-2.18,5.62-4.52,5.62
			c-0.92,0-1.82-0.41-2.56-1.13h-0.07l0.14,1.69v3.05h-3.09V85.53z M539.73,90.6c0-1.87-0.61-2.8-1.92-2.8
			c-0.66,0-1.27,0.28-1.92,0.97v4.2c0.58,0.51,1.24,0.69,1.78,0.69C538.81,93.66,539.73,92.76,539.73,90.6z"/>
		<path d="M546.3,85.53h2.54l0.24,2.28h0.07c1.03-1.7,2.56-2.53,4.22-2.53c0.91,0,1.4,0.15,2,0.42l-0.63,2.6
			c-0.65-0.2-1.08-0.31-1.84-0.31c-1.29,0-2.62,0.67-3.52,2.54v5.42h-3.09V85.53z"/>
		<path d="M557.63,90.73c0-3.41,2.63-5.45,5.42-5.45c3.21,0,4.9,2.17,4.9,5c0,0.57-0.09,1.12-0.13,1.38h-7.9v-2.07h5.81l-0.49,0.59
			c0-1.67-0.73-2.55-2.1-2.55c-1.53,0-2.53,1.03-2.53,3.1c0,2.16,1.18,3.11,3.2,3.11c0.95,0,1.76-0.26,2.68-0.72l1.02,1.86
			c-1.19,0.76-2.73,1.22-4.13,1.22C560.16,96.19,557.63,94.19,557.63,90.73z"/>
		<path d="M570.19,94.6l1.31-1.93c1.28,0.79,2.71,1.23,4.2,1.23c1.15,0,1.65-0.38,1.65-0.89c0-0.58-0.5-0.79-2.55-1.22
			c-2.83-0.61-3.96-1.65-3.96-3.25c0-1.94,1.81-3.26,4.79-3.26c1.86,0,3.43,0.73,4.51,1.42l-1.38,1.86c-1.05-0.64-2.26-1-3.41-1
			c-0.96,0-1.44,0.34-1.44,0.83c0,0.58,0.64,0.71,2.41,1.11c3.21,0.72,4.11,1.63,4.11,3.33c0,1.89-1.8,3.36-5.14,3.36
			C573.42,96.19,571.5,95.48,570.19,94.6z"/>
		<path d="M582.83,90.73c0-3.41,2.63-5.45,5.42-5.45c3.21,0,4.9,2.17,4.9,5c0,0.57-0.09,1.12-0.13,1.38h-7.9v-2.07h5.81l-0.49,0.59
			c0-1.67-0.73-2.55-2.1-2.55c-1.53,0-2.53,1.03-2.53,3.1c0,2.16,1.18,3.11,3.2,3.11c0.95,0,1.76-0.26,2.68-0.72l1.02,1.86
			c-1.19,0.76-2.73,1.22-4.13,1.22C585.36,96.19,582.83,94.19,582.83,90.73z"/>
		<path d="M595.79,85.53h2.52l0.22,1.39h0.08c0.9-0.89,2.05-1.64,3.6-1.64c2.35,0,3.39,1.61,3.39,4.24v6.43h-3.09v-6.03
			c0-1.39-0.4-2-1.53-2c-0.82,0-1.39,0.38-2.11,1.08v6.95h-3.09V85.53z"/>
		<path d="M610.53,91.63v-3.68h-2.62v-2.3l2.76-0.12l0.4-3.18h2.55v3.18h4.39v2.42h-4.39v3.64c0,1.58,0.67,2.18,2.19,2.18
			c0.78,0,1.44-0.16,2.06-0.37l0.56,2.24c-0.92,0.28-2.02,0.56-3.4,0.56C611.71,96.19,610.53,94.36,610.53,91.63z"/>
		<path d="M620.59,94.6l1.31-1.93c1.28,0.79,2.71,1.23,4.2,1.23c1.15,0,1.65-0.38,1.65-0.89c0-0.58-0.5-0.79-2.55-1.22
			c-2.83-0.61-3.96-1.65-3.96-3.25c0-1.94,1.81-3.26,4.79-3.26c1.86,0,3.43,0.73,4.51,1.42l-1.38,1.86c-1.05-0.64-2.26-1-3.41-1
			c-0.96,0-1.44,0.34-1.44,0.83c0,0.58,0.64,0.71,2.41,1.11c3.21,0.72,4.11,1.63,4.11,3.33c0,1.89-1.8,3.36-5.14,3.36
			C623.82,96.19,621.9,95.48,620.59,94.6z"/>
		<path class="st1" d="M331.34,118.65h3.59v-7.71h-2.96v-1.92c1.8-0.27,2.75-0.6,3.78-1.21h2.27v10.84h3.03v2.49h-9.71V118.65z"/>
		<path class="st1" d="M346.14,118.93c0-1.37,1-2.47,2.44-2.47s2.44,1.1,2.44,2.47c0,1.39-1,2.47-2.44,2.47
			S346.14,120.32,346.14,118.93z"/>
		<path class="st1" d="M362.88,110.41h-6.69v-2.6h10.02v1.9c-3.38,3.72-3.91,6.23-4.16,11.43h-3.12
			C359.19,116.7,360.09,113.92,362.88,110.41z"/>
		<path class="st1" d="M367.84,119.03l3.92-3.64l1.07,0.99l-3.4,4.19L367.84,119.03z M368,111.05c0-2.18,1.34-3.5,3.12-3.5
			s3.12,1.31,3.12,3.5c0,2.17-1.34,3.55-3.12,3.55S368,113.22,368,111.05z M372.12,111.05c0-1.44-0.47-1.84-1-1.84s-1,0.4-1,1.84
			c0,1.43,0.47,1.89,1,1.89S372.12,112.48,372.12,111.05z M373.33,117.85c0-2.18,1.34-3.5,3.12-3.5s3.12,1.31,3.12,3.5
			c0,2.17-1.34,3.55-3.12,3.55S373.33,120.02,373.33,117.85z M374.76,112.23l3.4-4.19l1.59,1.54l-3.92,3.64L374.76,112.23z
			 M377.44,117.85c0-1.44-0.47-1.84-1-1.84s-1,0.41-1,1.84c0,1.43,0.47,1.89,1,1.89S377.44,119.27,377.44,117.85z"/>
		<path d="M393.67,115.94c0-3.47,2.56-5.47,5.31-5.47s5.31,2,5.31,5.47c0,3.46-2.56,5.45-5.31,5.45S393.67,119.4,393.67,115.94z
			 M401.13,115.94c0-1.81-0.73-2.97-2.15-2.97s-2.15,1.17-2.15,2.97c0,1.8,0.73,2.96,2.15,2.96S401.13,117.74,401.13,115.94z"/>
		<path d="M407.01,110.85l2.85-0.12h6.56v2.42h-9.42V110.85z M409.76,110.46c0-2.39,1.39-4.27,4.66-4.27c1.19,0,2.28,0.26,3.15,0.56
			l-0.6,2.27c-0.66-0.25-1.38-0.41-2.18-0.41c-1.33,0-1.96,0.57-1.96,1.83v10.7h-3.08V110.46z"/>
		<path d="M431.77,118.25c0-2.33,1.93-3.52,6.85-3.82c-0.11-0.93-0.81-1.5-2.21-1.5c-1,0-2,0.39-3.18,0.97l-1.1-2.02
			c1.44-0.82,3.1-1.41,4.87-1.41c2.93,0,4.7,1.52,4.7,4.71v5.95h-2.52l-0.22-1.17h-0.08c-1.05,0.79-2.35,1.43-3.69,1.43
			C433.08,121.39,431.77,120.01,431.77,118.25z M438.62,118.01v-1.71c-3.06,0.15-3.89,0.82-3.89,1.71c0,0.67,0.56,1,1.44,1
			C437.1,119,437.88,118.58,438.62,118.01z"/>
		<path d="M447.4,117.07v-8.21h-3.28v-2.42h6.37v10.76c0,1.29,0.83,1.71,1.7,1.71c0.48,0,0.99-0.1,1.62-0.34l0.68,2.27
			c-1.08,0.35-1.81,0.56-3.11,0.56C448.76,121.39,447.4,119.71,447.4,117.07z"/>
		<path d="M460,117.07v-8.21h-3.28v-2.42h6.37v10.76c0,1.29,0.83,1.71,1.7,1.71c0.48,0,0.99-0.1,1.62-0.34l0.68,2.27
			c-1.08,0.35-1.81,0.56-3.11,0.56C461.36,121.39,460,119.71,460,117.07z"/>
		<path d="M481.87,115.94c0-3.47,2.56-5.47,5.31-5.47s5.31,2,5.31,5.47c0,3.46-2.56,5.45-5.31,5.45S481.87,119.4,481.87,115.94z
			 M489.33,115.94c0-1.81-0.73-2.97-2.15-2.97s-2.15,1.17-2.15,2.97c0,1.8,0.73,2.96,2.15,2.96S489.33,117.74,489.33,115.94z"/>
		<path d="M497.75,120.01h-0.08l-0.26,1.13h-2.42v-14.71h3.09v3.59l-0.11,1.64h0.08c0.77-0.75,1.83-1.19,2.85-1.19
			c2.6,0,4.2,2.08,4.2,5.28c0,3.59-2.18,5.64-4.51,5.64C499.62,121.39,498.6,120.91,497.75,120.01z M501.93,115.8
			c0-1.87-0.61-2.8-1.92-2.8c-0.66,0-1.27,0.28-1.92,0.97v4.2c0.58,0.51,1.24,0.69,1.8,0.69
			C501.01,118.86,501.93,117.96,501.93,115.8z"/>
		<path d="M506.96,124.55l0.9-2.21c0.84,0.37,1.51,0.49,2.12,0.49c1.49,0,1.94-0.68,1.94-2.19v-7.49h-4.19v-2.42h7.28v9.79
			c0,2.54-1.06,4.74-4.84,4.74C508.88,125.26,507.85,124.97,506.96,124.55z M511.27,107.21c0-1.13,0.86-1.92,2.05-1.92
			s2.05,0.79,2.05,1.92c0,1.14-0.86,1.89-2.05,1.89S511.27,108.35,511.27,107.21z"/>
		<path d="M519.83,115.93c0-3.41,2.63-5.45,5.42-5.45c3.21,0,4.9,2.17,4.9,5c0,0.57-0.09,1.12-0.13,1.38h-7.9v-2.07h5.81l-0.49,0.59
			c0-1.67-0.73-2.55-2.1-2.55c-1.53,0-2.53,1.03-2.53,3.1c0,2.16,1.18,3.11,3.2,3.11c0.95,0,1.76-0.26,2.68-0.72l1.02,1.86
			c-1.19,0.76-2.73,1.22-4.13,1.22C522.36,121.39,519.83,119.39,519.83,115.93z"/>
		<path d="M532.69,115.94c0-3.47,2.82-5.47,6.02-5.47c1.64,0,3.03,0.58,3.9,1.42l-1.42,1.92c-0.79-0.58-1.53-0.84-2.31-0.84
			c-1.79,0-3.03,1.17-3.03,2.97c0,1.8,1.22,2.96,2.93,2.96c1.09,0,1.99-0.48,2.74-0.99l1.25,1.95c-1.25,1.05-2.86,1.54-4.28,1.54
			C535.2,121.39,532.69,119.4,532.69,115.94z"/>
		<path d="M547.54,116.83v-3.68h-2.62v-2.3l2.76-0.12l0.4-3.18h2.55v3.18h4.39v2.42h-4.39v3.64c0,1.58,0.67,2.18,2.19,2.18
			c0.78,0,1.44-0.16,2.06-0.37l0.56,2.24c-0.92,0.28-2.02,0.56-3.4,0.56C548.71,121.39,547.54,119.56,547.54,116.83z"/>
		<path d="M557.59,119.8l1.31-1.93c1.28,0.79,2.71,1.23,4.2,1.23c1.15,0,1.65-0.38,1.65-0.89c0-0.58-0.5-0.79-2.55-1.22
			c-2.83-0.61-3.96-1.65-3.96-3.25c0-1.94,1.81-3.26,4.79-3.26c1.86,0,3.43,0.73,4.51,1.42l-1.38,1.86c-1.05-0.64-2.26-1-3.41-1
			c-0.96,0-1.44,0.34-1.44,0.83c0,0.58,0.64,0.71,2.41,1.11c3.21,0.72,4.11,1.63,4.11,3.33c0,1.89-1.8,3.36-5.14,3.36
			C560.82,121.39,558.9,120.67,557.59,119.8z"/>
		<path d="M587.52,113.15h-4.19v-2.42h7.28v10.42h-3.09V113.15z M586.87,107.21c0-1.13,0.86-1.92,2.05-1.92s2.05,0.79,2.05,1.92
			c0,1.14-0.86,1.89-2.05,1.89S586.87,108.35,586.87,107.21z"/>
		<path d="M595.79,110.73h2.52l0.22,1.39h0.08c0.9-0.89,2.05-1.64,3.6-1.64c2.35,0,3.39,1.61,3.39,4.24v6.43h-3.09v-6.03
			c0-1.39-0.4-2-1.53-2c-0.82,0-1.39,0.38-2.11,1.08v6.95h-3.09V110.73z"/>
		<path d="M623.13,116.83v-3.68h-2.62v-2.3l2.76-0.12l0.4-3.18h2.55v3.18h4.39v2.42h-4.39v3.64c0,1.58,0.67,2.18,2.19,2.18
			c0.78,0,1.44-0.16,2.06-0.37l0.56,2.24c-0.92,0.28-2.02,0.56-3.4,0.56C624.31,121.39,623.13,119.56,623.13,116.83z"/>
		<path d="M633.59,106.44h3.09v3.59l-0.18,2h0.08c0.77-0.8,1.89-1.55,3.45-1.55c2.34,0,3.38,1.61,3.38,4.24v6.43h-3.09v-6.03
			c0-1.39-0.4-2-1.53-2c-0.82,0-1.39,0.38-2.11,1.08v6.95h-3.09V106.44z"/>
		<path d="M645.83,115.93c0-3.41,2.63-5.45,5.42-5.45c3.21,0,4.9,2.17,4.9,5c0,0.57-0.09,1.12-0.13,1.38h-7.9v-2.07h5.81l-0.49,0.59
			c0-1.67-0.73-2.55-2.1-2.55c-1.53,0-2.53,1.03-2.53,3.1c0,2.16,1.18,3.11,3.2,3.11c0.95,0,1.76-0.26,2.68-0.72l1.02,1.86
			c-1.19,0.76-2.73,1.22-4.13,1.22C648.36,121.39,645.83,119.39,645.83,115.93z"/>
		<path d="M331.25,132.66h4.85c2.97,0,5.36,1.07,5.36,4.4c0,3.22-2.46,4.64-5.36,4.64h-1.76v4.64h-3.1V132.66z M335.92,139.24
			c1.7,0,2.5-0.76,2.5-2.18c0-1.43-0.87-1.94-2.5-1.94h-1.58v4.13H335.92z"/>
		<path d="M343.8,131.64h3.09v3.59l-0.18,2h0.08c0.77-0.8,1.89-1.55,3.45-1.55c2.34,0,3.38,1.61,3.38,4.24v6.43h-3.09v-6.03
			c0-1.39-0.4-2-1.53-2c-0.82,0-1.39,0.38-2.11,1.08v6.95h-3.09V131.64z"/>
		<path d="M355.87,141.14c0-3.47,2.56-5.47,5.31-5.47s5.31,2,5.31,5.47c0,3.46-2.56,5.45-5.31,5.45S355.87,144.6,355.87,141.14z
			 M363.33,141.14c0-1.81-0.73-2.97-2.15-2.97s-2.15,1.17-2.15,2.97c0,1.8,0.73,2.96,2.15,2.96S363.33,142.94,363.33,141.14z"/>
		<path d="M371.14,142.03v-3.68h-2.62v-2.3l2.76-0.12l0.4-3.18h2.55v3.18h4.39v2.42h-4.39v3.64c0,1.58,0.67,2.18,2.19,2.18
			c0.78,0,1.44-0.16,2.06-0.37l0.56,2.24c-0.92,0.28-2.02,0.56-3.4,0.56C372.32,146.59,371.14,144.76,371.14,142.03z"/>
		<path d="M381.07,141.14c0-3.47,2.56-5.47,5.31-5.47s5.31,2,5.31,5.47c0,3.46-2.56,5.45-5.31,5.45S381.07,144.6,381.07,141.14z
			 M388.53,141.14c0-1.81-0.73-2.97-2.15-2.97s-2.15,1.17-2.15,2.97c0,1.8,0.73,2.96,2.15,2.96S388.53,142.94,388.53,141.14z"/>
		<path d="M393.77,148.1c0-0.85,0.56-1.55,1.62-2.09v-0.08c-0.58-0.35-1.05-0.89-1.05-1.77c0-0.7,0.5-1.45,1.25-1.96v-0.08
			c-0.77-0.51-1.38-1.46-1.38-2.68c0-2.5,2.1-3.77,4.46-3.77c0.62,0,1.21,0.08,1.71,0.25h4.24v2.27h-2.1
			c0.23,0.32,0.45,0.83,0.45,1.36c0,2.4-1.88,3.49-4.3,3.49c-0.42,0-0.91-0.07-1.43-0.21c-0.32,0.22-0.46,0.42-0.46,0.77
			c0,0.56,0.55,0.78,1.77,0.78h1.92c2.73,0,4.23,0.76,4.23,2.64c0,2.17-2.42,3.75-6.21,3.75
			C395.78,150.77,393.77,149.97,393.77,148.1z M401.76,147.55c0-0.66-0.64-0.8-1.83-0.8h-1.31c-0.75,0-1.2-0.04-1.58-0.14
			c-0.53,0.33-0.74,0.64-0.74,1.02c0,0.78,1.02,1.18,2.64,1.18C400.61,148.82,401.76,148.27,401.76,147.55z M400.25,139.45
			c0-1.09-0.72-1.7-1.58-1.7c-0.86,0-1.56,0.6-1.56,1.7c0,1.14,0.71,1.73,1.56,1.73C399.53,141.18,400.25,140.59,400.25,139.45z"/>
		<path d="M407.7,135.93h2.54l0.24,2.28h0.07c1.03-1.7,2.56-2.53,4.22-2.53c0.91,0,1.4,0.15,2,0.42l-0.63,2.6
			c-0.65-0.2-1.08-0.31-1.84-0.31c-1.29,0-2.62,0.67-3.52,2.54v5.42h-3.09V135.93z"/>
		<path d="M419.17,143.45c0-2.33,1.93-3.52,6.85-3.82c-0.11-0.93-0.81-1.5-2.21-1.5c-1,0-2,0.39-3.18,0.97l-1.1-2.02
			c1.44-0.82,3.1-1.41,4.87-1.41c2.93,0,4.7,1.52,4.7,4.71v5.95h-2.52l-0.22-1.17h-0.08c-1.05,0.79-2.35,1.43-3.69,1.43
			C420.48,146.59,419.17,145.21,419.17,143.45z M426.02,143.21v-1.71c-3.06,0.15-3.89,0.82-3.89,1.71c0,0.67,0.56,1,1.44,1
			C424.5,144.2,425.28,143.78,426.02,143.21z"/>
		<path d="M431.99,135.93h2.52l0.22,1.06h0.08c0.84-0.77,1.99-1.31,3.1-1.31c2.6,0,4.17,2.08,4.17,5.3c0,3.57-2.18,5.62-4.52,5.62
			c-0.92,0-1.82-0.41-2.56-1.13h-0.07l0.14,1.69v3.05h-3.09V135.93z M438.93,141c0-1.87-0.61-2.8-1.92-2.8
			c-0.66,0-1.27,0.28-1.92,0.97v4.2c0.58,0.51,1.24,0.69,1.78,0.69C438.01,144.06,438.93,143.16,438.93,141z"/>
		<path d="M444.59,131.64h3.09v3.59l-0.18,2h0.08c0.77-0.8,1.89-1.55,3.45-1.55c2.34,0,3.38,1.61,3.38,4.24v6.43h-3.09v-6.03
			c0-1.39-0.4-2-1.53-2c-0.82,0-1.39,0.38-2.11,1.08v6.95h-3.09V131.64z"/>
		<path d="M457.09,150.2l0.55-2.36c0.27,0.08,0.55,0.13,0.8,0.13c1.2,0,1.85-0.55,2.19-1.36l0.2-0.54l-4.5-10.15h3.07l1.75,4.48
			c0.37,0.98,0.7,2.03,1.03,3.13h0.08c0.28-1.04,0.63-2.11,0.96-3.13l1.52-4.48h2.92l-4.1,10.53c-1.01,2.61-2.25,3.96-4.89,3.96
			C458.07,150.41,457.53,150.33,457.09,150.2z"/>
		<path d="M482.17,143.45c0-2.33,1.93-3.52,6.85-3.82c-0.11-0.93-0.81-1.5-2.21-1.5c-1,0-2,0.39-3.18,0.97l-1.1-2.02
			c1.44-0.82,3.1-1.41,4.87-1.41c2.93,0,4.7,1.52,4.7,4.71v5.95h-2.52l-0.22-1.17h-0.08c-1.05,0.79-2.35,1.43-3.69,1.43
			C483.48,146.59,482.17,145.21,482.17,143.45z M489.02,143.21v-1.71c-3.06,0.15-3.89,0.82-3.89,1.71c0,0.67,0.56,1,1.44,1
			C487.49,144.2,488.28,143.78,489.02,143.21z"/>
		<path d="M494.99,135.93h2.52l0.22,1.39h0.08c0.9-0.89,2.05-1.64,3.6-1.64c2.35,0,3.39,1.61,3.39,4.24v6.43h-3.09v-6.03
			c0-1.39-0.4-2-1.53-2c-0.82,0-1.39,0.38-2.11,1.08v6.95h-3.09V135.93z"/>
		<path d="M507.07,141.14c0-3.41,2.19-5.47,4.45-5.47c1.14,0,1.92,0.41,2.63,1.12h0.07l-0.14-1.61v-3.55h3.09v14.71h-2.52
			l-0.22-1.07h-0.08c-0.76,0.75-1.84,1.32-2.88,1.32C508.8,146.59,507.07,144.54,507.07,141.14z M514.07,143.1v-4.2
			c-0.56-0.51-1.13-0.69-1.74-0.69c-1.13,0-2.1,0.92-2.1,2.9c0,2.04,0.75,2.96,2.02,2.96C512.95,144.06,513.53,143.8,514.07,143.1z"
			/>
		<path d="M532.49,132.66h3.25l1.34,4.85l0.46,1.89h0.08l0.45-1.89l1.35-4.85h3.25v13.68h-2.62v-4.24c0-1.54,0.27-4.88,0.42-6.36
			h-0.06l-1.05,3.67l-1.06,3.3h-1.5l-1.08-3.3l-0.98-3.67h-0.07c0.16,1.48,0.42,4.82,0.42,6.36v4.24h-2.58V132.66z"/>
		<path d="M544.86,141.14c0-3.47,2.56-5.47,5.31-5.47s5.31,2,5.31,5.47c0,3.46-2.56,5.45-5.31,5.45S544.86,144.6,544.86,141.14z
			 M552.32,141.14c0-1.81-0.73-2.97-2.15-2.97s-2.15,1.17-2.15,2.97c0,1.8,0.73,2.96,2.15,2.96S552.32,142.94,552.32,141.14z"/>
		<path d="M557.46,141.14c0-3.41,2.19-5.47,4.45-5.47c1.14,0,1.92,0.41,2.63,1.12h0.07l-0.14-1.61v-3.55h3.09v14.71h-2.52
			l-0.22-1.07h-0.08c-0.76,0.75-1.84,1.32-2.88,1.32C559.2,146.59,557.46,144.54,557.46,141.14z M564.47,143.1v-4.2
			c-0.56-0.51-1.13-0.69-1.74-0.69c-1.13,0-2.1,0.92-2.1,2.9c0,2.04,0.75,2.96,2.02,2.96C563.35,144.06,563.93,143.8,564.47,143.1z"
			/>
		<path d="M570.23,141.13c0-3.41,2.63-5.45,5.42-5.45c3.21,0,4.9,2.17,4.9,5c0,0.57-0.09,1.12-0.13,1.38h-7.9v-2.07h5.81l-0.49,0.59
			c0-1.67-0.73-2.55-2.1-2.55c-1.53,0-2.53,1.03-2.53,3.1c0,2.16,1.18,3.11,3.2,3.11c0.95,0,1.76-0.26,2.68-0.72l1.02,1.86
			c-1.19,0.76-2.73,1.22-4.13,1.22C572.76,146.59,570.23,144.59,570.23,141.13z"/>
		<path d="M584.1,135.93h2.54l0.24,2.28h0.07c1.03-1.7,2.56-2.53,4.22-2.53c0.91,0,1.4,0.15,2,0.42l-0.63,2.6
			c-0.65-0.2-1.08-0.31-1.84-0.31c-1.29,0-2.62,0.67-3.52,2.54v5.42h-3.09V135.93z"/>
		<path d="M595.79,135.93h2.52l0.22,1.39h0.08c0.9-0.89,2.05-1.64,3.6-1.64c2.35,0,3.39,1.61,3.39,4.24v6.43h-3.09v-6.03
			c0-1.39-0.4-2-1.53-2c-0.82,0-1.39,0.38-2.11,1.08v6.95h-3.09V135.93z"/>
		<path d="M623.92,132.66h3.71l4.26,13.68h-3.28l-1.77-6.93c-0.35-1.37-0.76-2.97-1.09-4.41h-0.08c-0.33,1.44-0.71,3.05-1.06,4.41
			l-1.78,6.93h-3.17L623.92,132.66z M622.48,140.68h6.55v2.41h-6.55V140.68z"/>
		<path d="M634.5,135.93h2.54l0.24,2.28h0.07c1.03-1.7,2.56-2.53,4.22-2.53c0.91,0,1.4,0.15,2,0.42l-0.63,2.6
			c-0.65-0.2-1.08-0.31-1.84-0.31c-1.29,0-2.62,0.67-3.52,2.54v5.42h-3.09V135.93z"/>
		<path d="M648.33,142.03v-3.68h-2.62v-2.3l2.76-0.12l0.4-3.18h2.55v3.18h4.39v2.42h-4.39v3.64c0,1.58,0.67,2.18,2.19,2.18
			c0.78,0,1.44-0.16,2.06-0.37l0.56,2.24c-0.92,0.28-2.02,0.56-3.4,0.56C649.51,146.59,648.33,144.76,648.33,142.03z"/>
		<path d="M330.67,166.34c0-3.41,2.19-5.47,4.45-5.47c1.14,0,1.92,0.41,2.63,1.12h0.07l-0.14-1.61v-3.55h3.09v14.71h-2.52
			l-0.22-1.07h-0.08c-0.76,0.75-1.84,1.32-2.88,1.32C332.4,171.79,330.67,169.74,330.67,166.34z M337.68,168.3v-4.2
			c-0.56-0.51-1.13-0.69-1.74-0.69c-1.13,0-2.1,0.92-2.1,2.9c0,2.04,0.75,2.96,2.02,2.96C336.56,169.26,337.14,169,337.68,168.3z"/>
		<path d="M343.44,166.33c0-3.41,2.63-5.45,5.42-5.45c3.21,0,4.9,2.17,4.9,5c0,0.57-0.09,1.12-0.13,1.38h-7.9v-2.07h5.81l-0.49,0.59
			c0-1.67-0.73-2.55-2.1-2.55c-1.53,0-2.53,1.03-2.53,3.1c0,2.16,1.18,3.11,3.2,3.11c0.95,0,1.76-0.26,2.68-0.72l1.02,1.86
			c-1.19,0.76-2.73,1.22-4.13,1.22C345.97,171.79,343.44,169.79,343.44,166.33z"/>
		<path d="M356.4,161.13h2.52l0.22,1.06h0.08c0.84-0.77,1.99-1.31,3.1-1.31c2.6,0,4.17,2.08,4.17,5.3c0,3.57-2.18,5.62-4.52,5.62
			c-0.92,0-1.82-0.41-2.56-1.13h-0.07l0.14,1.69v3.05h-3.09V161.13z M363.33,166.2c0-1.87-0.61-2.8-1.92-2.8
			c-0.66,0-1.27,0.28-1.92,0.97v4.2c0.58,0.51,1.24,0.69,1.78,0.69C362.41,169.26,363.33,168.36,363.33,166.2z"/>
		<path d="M368.77,168.65c0-2.33,1.93-3.52,6.85-3.82c-0.11-0.93-0.81-1.5-2.21-1.5c-1,0-2,0.39-3.18,0.97l-1.1-2.02
			c1.44-0.82,3.1-1.41,4.87-1.41c2.93,0,4.7,1.52,4.7,4.71v5.95h-2.52l-0.22-1.17h-0.08c-1.05,0.79-2.35,1.43-3.69,1.43
			C370.09,171.79,368.77,170.41,368.77,168.65z M375.62,168.41v-1.71c-3.06,0.15-3.89,0.82-3.89,1.71c0,0.67,0.56,1,1.44,1
			C374.1,169.4,374.88,168.98,375.62,168.41z"/>
		<path d="M382.51,161.13h2.54l0.24,2.28h0.07c1.03-1.7,2.56-2.53,4.22-2.53c0.91,0,1.4,0.15,2,0.42l-0.63,2.6
			c-0.65-0.2-1.08-0.31-1.84-0.31c-1.29,0-2.62,0.67-3.52,2.54v5.42h-3.09V161.13z"/>
		<path d="M396.34,167.23v-3.68h-2.62v-2.3l2.76-0.12l0.4-3.18h2.55v3.18h4.39v2.42h-4.39v3.64c0,1.58,0.67,2.18,2.19,2.18
			c0.78,0,1.44-0.16,2.06-0.37l0.56,2.24c-0.92,0.28-2.02,0.56-3.4,0.56C397.52,171.79,396.34,169.96,396.34,167.23z"/>
		<path d="M406.02,161.13h2.32l0.22,1.28h0.07c0.39-0.84,1.05-1.54,2.25-1.54c0.9,0,1.56,0.59,1.81,1.7c0.38-0.94,1.11-1.7,2.3-1.7
			c1.49,0,2.33,1.28,2.33,3.36v7.31h-2.93v-7.09c0-0.65-0.15-0.95-0.56-0.95c-0.4,0-0.67,0.33-0.96,1.01v7.03h-2.41v-7.09
			c0-0.65-0.19-0.95-0.6-0.95c-0.38,0-0.65,0.33-0.92,1.01v7.03h-2.93V161.13z"/>
		<path d="M419.04,166.33c0-3.41,2.63-5.45,5.42-5.45c3.21,0,4.9,2.17,4.9,5c0,0.57-0.09,1.12-0.13,1.38h-7.9v-2.07h5.81l-0.49,0.59
			c0-1.67-0.73-2.55-2.1-2.55c-1.53,0-2.53,1.03-2.53,3.1c0,2.16,1.18,3.11,3.2,3.11c0.95,0,1.76-0.26,2.68-0.72l1.02,1.86
			c-1.19,0.76-2.73,1.22-4.13,1.22C421.56,171.79,419.04,169.79,419.04,166.33z"/>
		<path d="M431.99,161.13h2.52l0.22,1.39h0.08c0.9-0.89,2.05-1.64,3.6-1.64c2.35,0,3.39,1.61,3.39,4.24v6.43h-3.09v-6.03
			c0-1.39-0.4-2-1.53-2c-0.82,0-1.39,0.38-2.11,1.08v6.95h-3.09V161.13z"/>
		<path d="M446.74,167.23v-3.68h-2.62v-2.3l2.76-0.12l0.4-3.18h2.55v3.18h4.39v2.42h-4.39v3.64c0,1.58,0.67,2.18,2.19,2.18
			c0.78,0,1.44-0.16,2.06-0.37l0.56,2.24c-0.92,0.28-2.02,0.56-3.4,0.56C447.92,171.79,446.74,169.96,446.74,167.23z"/>
		<path d="M456.79,170.2l1.31-1.93c1.28,0.79,2.71,1.23,4.2,1.23c1.15,0,1.65-0.38,1.65-0.89c0-0.58-0.5-0.79-2.55-1.22
			c-2.83-0.61-3.96-1.65-3.96-3.25c0-1.94,1.81-3.26,4.79-3.26c1.86,0,3.43,0.73,4.51,1.42l-1.38,1.86c-1.05-0.64-2.26-1-3.41-1
			c-0.96,0-1.44,0.34-1.44,0.83c0,0.58,0.64,0.71,2.41,1.11c3.21,0.72,4.11,1.63,4.11,3.33c0,1.89-1.8,3.36-5.14,3.36
			C460.03,171.79,458.11,171.07,456.79,170.2z"/>
		<path class="st0" d="M482.29,166.34c0-3.47,2.82-5.47,6.02-5.47c1.64,0,3.03,0.58,3.9,1.42l-1.42,1.92
			c-0.79-0.58-1.53-0.84-2.31-0.84c-1.79,0-3.03,1.17-3.03,2.97c0,1.8,1.22,2.96,2.93,2.96c1.09,0,1.99-0.48,2.74-0.99l1.25,1.95
			c-1.25,1.05-2.86,1.54-4.28,1.54C484.8,171.79,482.29,169.8,482.29,166.34z"/>
		<path class="st0" d="M494.47,166.34c0-3.47,2.56-5.47,5.31-5.47s5.31,2,5.31,5.47c0,3.46-2.56,5.45-5.31,5.45
			S494.47,169.8,494.47,166.34z M501.93,166.34c0-1.81-0.73-2.97-2.15-2.97s-2.15,1.17-2.15,2.97c0,1.8,0.73,2.96,2.15,2.96
			S501.93,168.14,501.93,166.34z"/>
		<path class="st0" d="M506.81,161.13h2.32l0.22,1.28h0.07c0.39-0.84,1.05-1.54,2.25-1.54c0.9,0,1.56,0.59,1.81,1.7
			c0.38-0.94,1.11-1.7,2.3-1.7c1.49,0,2.33,1.28,2.33,3.36v7.31h-2.93v-7.09c0-0.65-0.15-0.95-0.56-0.95c-0.4,0-0.67,0.33-0.96,1.01
			v7.03h-2.41v-7.09c0-0.65-0.19-0.95-0.6-0.95c-0.38,0-0.65,0.33-0.92,1.01v7.03h-2.93V161.13z"/>
		<path class="st0" d="M522.94,170.41h-0.08l-0.26,1.13h-2.42v-14.71h3.09v3.59l-0.11,1.64h0.08c0.77-0.75,1.83-1.19,2.85-1.19
			c2.6,0,4.2,2.08,4.2,5.28c0,3.59-2.18,5.64-4.51,5.64C524.82,171.79,523.8,171.31,522.94,170.41z M527.13,166.2
			c0-1.87-0.61-2.8-1.92-2.8c-0.66,0-1.27,0.28-1.92,0.97v4.2c0.58,0.51,1.24,0.69,1.8,0.69
			C526.21,169.26,527.13,168.36,527.13,166.2z"/>
		<path class="st0" d="M537.12,163.55h-4.19v-2.42h7.28v10.42h-3.09V163.55z M536.47,157.61c0-1.13,0.86-1.92,2.05-1.92
			s2.05,0.79,2.05,1.92c0,1.14-0.86,1.89-2.05,1.89S536.47,158.75,536.47,157.61z"/>
		<path class="st0" d="M545.39,161.13h2.52l0.22,1.39h0.08c0.9-0.89,2.05-1.64,3.6-1.64c2.35,0,3.39,1.61,3.39,4.24v6.43h-3.09
			v-6.03c0-1.39-0.4-2-1.53-2c-0.82,0-1.39,0.38-2.11,1.08v6.95h-3.09V161.13z"/>
		<path class="st0" d="M557.63,166.33c0-3.41,2.63-5.45,5.42-5.45c3.21,0,4.9,2.17,4.9,5c0,0.57-0.09,1.12-0.13,1.38h-7.9v-2.07
			h5.81l-0.49,0.59c0-1.67-0.73-2.55-2.1-2.55c-1.53,0-2.53,1.03-2.53,3.1c0,2.16,1.18,3.11,3.2,3.11c0.95,0,1.76-0.26,2.68-0.72
			l1.02,1.86c-1.19,0.76-2.73,1.22-4.13,1.22C560.16,171.79,557.63,169.79,557.63,166.33z"/>
		<path class="st0" d="M570.06,166.34c0-3.41,2.19-5.47,4.45-5.47c1.14,0,1.92,0.41,2.63,1.12h0.07l-0.14-1.61v-3.55h3.09v14.71
			h-2.52l-0.22-1.07h-0.08c-0.76,0.75-1.84,1.32-2.88,1.32C571.8,171.79,570.06,169.74,570.06,166.34z M577.07,168.3v-4.2
			c-0.56-0.51-1.13-0.69-1.74-0.69c-1.13,0-2.1,0.92-2.1,2.9c0,2.04,0.75,2.96,2.02,2.96C575.95,169.26,576.53,169,577.07,168.3z"/>
		<path class="st0" d="M585.53,169.33c0-1.37,1-2.47,2.44-2.47s2.44,1.1,2.44,2.47c0,1.39-1,2.47-2.44,2.47
			S585.53,170.72,585.53,169.33z"/>
	</g>
</g>
</svg>
