<?xml version="1.0" encoding="utf-8"?>
<!-- Generator: Adobe Illustrator 23.0.3, SVG Export Plug-In . SVG Version: 6.00 Build 0)  -->
<svg version="1.1" id="Layer_1" xmlns="http://www.w3.org/2000/svg" xmlns:xlink="http://www.w3.org/1999/xlink" x="0px" y="0px"
	 viewBox="0 0 718.2 321.44" style="enable-background:new 0 0 718.2 321.44;" xml:space="preserve">
<style type="text/css">
	.st0{fill:none;stroke:#66696A;stroke-width:0.5;stroke-miterlimit:10;}
	.st1{fill:none;stroke:#61CCD8;stroke-width:2;stroke-miterlimit:10;}
	.st2{fill:#66696A;}
	.st3{fill:none;}
	.st4{font-family:'HelveticaNeue-Light';}
	.st5{font-size:8.2704px;}
	.st6{fill:none;stroke:#66696A;stroke-miterlimit:10;}
	.st7{fill:#F8F8F8;stroke:#66696A;stroke-miterlimit:10;}
	.st8{fill:none;stroke:#015059;stroke-width:2;stroke-miterlimit:10;}
	.st9{font-family:'OpenSans';}
	.st10{font-size:10px;}
</style>
<g>
	<line class="st0" x1="48.86" y1="16.83" x2="707.16" y2="16.83"/>
	<line class="st0" x1="48.86" y1="44.22" x2="707.16" y2="44.22"/>
	<line class="st0" x1="48.86" y1="71.22" x2="707.16" y2="71.22"/>
	<line class="st0" x1="48.86" y1="97.44" x2="707.16" y2="97.44"/>
	<line class="st0" x1="48.86" y1="124.04" x2="707.16" y2="124.04"/>
	<line class="st0" x1="48.86" y1="151.05" x2="707.16" y2="151.05"/>
	<line class="st0" x1="48.86" y1="178.05" x2="707.16" y2="178.05"/>
	<line class="st0" x1="48.86" y1="204.26" x2="707.16" y2="204.26"/>
	<line class="st0" x1="48.86" y1="231.26" x2="707.16" y2="231.26"/>
	<line class="st0" x1="48.86" y1="258.26" x2="707.16" y2="258.26"/>
	<line class="st0" x1="48.86" y1="284.48" x2="707.16" y2="284.48"/>
	<polyline class="st1" points="62.22,284.5 387.98,284.5 407.88,283.79 431.02,284.5 595.43,284.5 627.06,274.91 658.42,284.5 
		689.82,284.5 	"/>
	<g>
		<path class="st2" d="M55.99,305.58c0.15-0.11,0.27-0.22,0.36-0.35c0.08-0.13,0.13-0.28,0.14-0.45c0.01-0.17-0.03-0.38-0.13-0.63
			l0.37-0.2l2.78,5.08l-0.46,0.25l-2.06-3.77l-1.34,0.73l-0.18-0.33C55.67,305.8,55.84,305.69,55.99,305.58z"/>
		<path class="st2" d="M61.91,307.02c0.28,0.07,0.57,0.03,0.86-0.13c0.3-0.16,0.5-0.37,0.6-0.62c0.1-0.25,0.14-0.52,0.12-0.8
			s-0.09-0.57-0.2-0.85c-0.11-0.28-0.23-0.54-0.36-0.77l-0.01,0.01c0.02,0.32-0.06,0.62-0.21,0.91c-0.16,0.29-0.38,0.51-0.67,0.67
			c-0.25,0.14-0.5,0.22-0.76,0.25c-0.25,0.03-0.5,0.01-0.72-0.06c-0.23-0.07-0.44-0.19-0.63-0.35c-0.19-0.16-0.36-0.37-0.49-0.62
			c-0.13-0.25-0.22-0.5-0.25-0.76c-0.03-0.26-0.01-0.5,0.06-0.74c0.07-0.24,0.19-0.45,0.35-0.66c0.16-0.2,0.37-0.37,0.62-0.51
			c0.31-0.17,0.6-0.27,0.88-0.29c0.27-0.03,0.54,0.03,0.81,0.16c0.26,0.14,0.52,0.36,0.78,0.66c0.26,0.31,0.52,0.7,0.79,1.2
			c0.06,0.1,0.12,0.24,0.2,0.41c0.08,0.17,0.15,0.36,0.2,0.57c0.06,0.21,0.1,0.43,0.12,0.67c0.02,0.23,0.01,0.46-0.04,0.69
			c-0.05,0.23-0.15,0.44-0.29,0.65c-0.15,0.21-0.36,0.38-0.63,0.53c-0.45,0.25-0.87,0.34-1.26,0.27c-0.38-0.07-0.73-0.32-1.02-0.74
			l0.46-0.25C61.4,306.78,61.63,306.95,61.91,307.02z M62.31,304.65c0.12-0.16,0.2-0.32,0.24-0.5c0.04-0.18,0.05-0.37,0.01-0.56
			c-0.03-0.19-0.1-0.38-0.2-0.57c-0.1-0.18-0.22-0.34-0.35-0.47c-0.13-0.13-0.29-0.23-0.45-0.29c-0.17-0.06-0.35-0.08-0.55-0.06
			c-0.2,0.02-0.41,0.09-0.63,0.21c-0.18,0.1-0.32,0.22-0.44,0.37c-0.11,0.15-0.19,0.32-0.23,0.5c-0.04,0.18-0.05,0.36-0.02,0.55
			c0.03,0.19,0.09,0.37,0.19,0.55c0.1,0.18,0.22,0.34,0.37,0.48c0.15,0.13,0.3,0.23,0.47,0.3c0.17,0.06,0.35,0.09,0.54,0.08
			c0.19-0.01,0.38-0.07,0.58-0.18C62.03,304.94,62.19,304.81,62.31,304.65z"/>
		<path class="st2" d="M65.95,304.81c0.28,0.07,0.57,0.03,0.86-0.13c0.3-0.16,0.5-0.37,0.6-0.62c0.1-0.25,0.14-0.52,0.12-0.8
			s-0.09-0.57-0.2-0.85s-0.23-0.54-0.36-0.77l-0.01,0.01c0.02,0.32-0.06,0.62-0.21,0.91c-0.16,0.29-0.38,0.51-0.67,0.67
			c-0.25,0.14-0.5,0.22-0.76,0.25c-0.25,0.03-0.5,0.01-0.72-0.06c-0.23-0.07-0.44-0.19-0.63-0.35c-0.19-0.16-0.36-0.37-0.49-0.62
			c-0.13-0.25-0.22-0.5-0.25-0.76c-0.03-0.26-0.01-0.5,0.06-0.74c0.07-0.24,0.19-0.45,0.35-0.66c0.16-0.2,0.37-0.37,0.62-0.51
			c0.31-0.17,0.6-0.27,0.88-0.29c0.27-0.03,0.54,0.03,0.81,0.16c0.26,0.14,0.52,0.36,0.78,0.66c0.26,0.31,0.52,0.7,0.79,1.2
			c0.06,0.1,0.12,0.24,0.2,0.41c0.08,0.17,0.15,0.36,0.2,0.57s0.1,0.43,0.12,0.67c0.02,0.23,0.01,0.46-0.04,0.69
			c-0.05,0.23-0.15,0.44-0.29,0.65c-0.15,0.21-0.36,0.38-0.63,0.53c-0.45,0.25-0.87,0.34-1.26,0.27c-0.38-0.07-0.73-0.32-1.02-0.74
			l0.46-0.25C65.43,304.58,65.67,304.74,65.95,304.81z M66.34,302.44c0.12-0.16,0.2-0.32,0.24-0.5c0.04-0.18,0.05-0.37,0.01-0.56
			c-0.03-0.19-0.1-0.38-0.2-0.57c-0.1-0.18-0.22-0.34-0.35-0.47c-0.13-0.13-0.29-0.23-0.45-0.29c-0.17-0.06-0.35-0.08-0.55-0.06
			c-0.2,0.02-0.41,0.09-0.63,0.21c-0.18,0.1-0.32,0.22-0.44,0.37c-0.11,0.15-0.19,0.32-0.23,0.5c-0.04,0.18-0.05,0.36-0.02,0.55
			c0.03,0.19,0.09,0.37,0.19,0.55c0.1,0.18,0.22,0.34,0.37,0.48c0.15,0.13,0.3,0.23,0.47,0.3c0.17,0.06,0.35,0.09,0.54,0.08
			c0.19-0.01,0.38-0.07,0.58-0.18C66.06,302.73,66.22,302.6,66.34,302.44z"/>
		<path class="st2" d="M69.98,302.61c0.28,0.07,0.57,0.03,0.86-0.13c0.3-0.16,0.5-0.37,0.6-0.62c0.1-0.25,0.14-0.52,0.12-0.8
			s-0.09-0.57-0.2-0.85c-0.11-0.28-0.23-0.54-0.36-0.77l-0.01,0.01c0.02,0.32-0.06,0.62-0.21,0.91c-0.16,0.29-0.38,0.51-0.67,0.67
			c-0.25,0.14-0.5,0.22-0.76,0.25c-0.25,0.03-0.5,0.01-0.72-0.06c-0.23-0.07-0.44-0.19-0.63-0.35c-0.19-0.16-0.36-0.37-0.49-0.62
			c-0.13-0.25-0.22-0.5-0.25-0.76c-0.03-0.26-0.01-0.5,0.06-0.74c0.07-0.24,0.19-0.45,0.35-0.66c0.16-0.2,0.37-0.37,0.62-0.51
			c0.31-0.17,0.6-0.27,0.88-0.29c0.27-0.03,0.54,0.03,0.81,0.16c0.26,0.14,0.52,0.36,0.78,0.66c0.26,0.31,0.52,0.7,0.79,1.2
			c0.06,0.1,0.12,0.24,0.2,0.41c0.08,0.17,0.15,0.36,0.2,0.57c0.06,0.21,0.1,0.43,0.12,0.67c0.02,0.23,0.01,0.46-0.04,0.69
			c-0.05,0.23-0.15,0.44-0.29,0.65c-0.15,0.21-0.36,0.38-0.63,0.53c-0.45,0.25-0.87,0.34-1.26,0.27c-0.38-0.07-0.73-0.32-1.02-0.74
			l0.46-0.25C69.47,302.37,69.7,302.54,69.98,302.61z M70.38,300.24c0.12-0.16,0.2-0.32,0.24-0.5c0.04-0.18,0.05-0.37,0.01-0.56
			c-0.03-0.19-0.1-0.38-0.2-0.57c-0.1-0.18-0.22-0.34-0.35-0.47c-0.13-0.13-0.29-0.23-0.45-0.29c-0.17-0.06-0.35-0.08-0.55-0.06
			c-0.2,0.02-0.41,0.09-0.63,0.21c-0.18,0.1-0.32,0.22-0.44,0.37c-0.11,0.15-0.19,0.32-0.23,0.5c-0.04,0.18-0.05,0.36-0.02,0.55
			c0.03,0.19,0.09,0.37,0.19,0.55c0.1,0.18,0.22,0.34,0.37,0.48c0.15,0.13,0.3,0.23,0.47,0.3c0.17,0.06,0.35,0.09,0.54,0.08
			c0.19-0.01,0.38-0.07,0.58-0.18C70.1,300.53,70.26,300.4,70.38,300.24z"/>
	</g>
	<g>
		<path class="st2" d="M87.31,309.32c-0.13-0.25-0.21-0.5-0.23-0.74c-0.02-0.24-0.01-0.47,0.04-0.7s0.13-0.45,0.23-0.67
			c0.1-0.22,0.21-0.44,0.32-0.66c0.11-0.22,0.23-0.43,0.34-0.65c0.11-0.22,0.2-0.44,0.26-0.66c0.06-0.22,0.09-0.42,0.08-0.6
			c-0.01-0.19-0.07-0.38-0.18-0.58c-0.09-0.16-0.2-0.29-0.33-0.39c-0.13-0.1-0.27-0.16-0.43-0.19c-0.15-0.03-0.31-0.03-0.47,0
			c-0.16,0.03-0.32,0.09-0.48,0.17c-0.21,0.11-0.36,0.25-0.47,0.41c-0.11,0.16-0.17,0.33-0.19,0.51c-0.02,0.18,0,0.37,0.05,0.56
			c0.05,0.19,0.13,0.38,0.24,0.57l-0.46,0.25c-0.15-0.26-0.25-0.52-0.3-0.77c-0.06-0.26-0.06-0.5-0.01-0.73
			c0.05-0.23,0.15-0.45,0.31-0.65c0.16-0.2,0.37-0.38,0.65-0.53c0.22-0.12,0.45-0.2,0.67-0.25c0.22-0.04,0.44-0.05,0.65-0.01
			c0.21,0.04,0.4,0.13,0.58,0.26c0.18,0.14,0.33,0.32,0.46,0.56c0.12,0.21,0.19,0.43,0.21,0.64c0.02,0.21,0.02,0.42-0.02,0.63
			c-0.04,0.21-0.1,0.42-0.19,0.62c-0.09,0.21-0.18,0.41-0.29,0.61c-0.08,0.15-0.17,0.32-0.28,0.51c-0.11,0.19-0.21,0.39-0.29,0.59
			c-0.09,0.2-0.15,0.41-0.19,0.62c-0.04,0.21-0.03,0.4,0.04,0.59l2.82-1.54l0.23,0.42L87.31,309.32z"/>
		<path class="st2" d="M91.34,300.78c0.32,0.04,0.61,0.15,0.88,0.33c0.27,0.18,0.51,0.41,0.72,0.7c0.22,0.28,0.4,0.57,0.56,0.87
			c0.16,0.3,0.31,0.62,0.43,0.95c0.12,0.33,0.19,0.66,0.2,0.98c0.01,0.32-0.06,0.63-0.2,0.91c-0.14,0.29-0.4,0.53-0.77,0.73
			c-0.37,0.2-0.71,0.28-1.03,0.25c-0.32-0.03-0.61-0.14-0.88-0.32c-0.27-0.18-0.51-0.41-0.72-0.7c-0.22-0.28-0.4-0.57-0.57-0.87
			c-0.16-0.3-0.31-0.62-0.43-0.95c-0.12-0.33-0.19-0.66-0.2-0.98c-0.01-0.32,0.06-0.63,0.2-0.92c0.14-0.29,0.4-0.53,0.77-0.73
			C90.68,300.83,91.02,300.74,91.34,300.78z M89.94,302.02c-0.09,0.25-0.12,0.5-0.09,0.78c0.03,0.27,0.11,0.55,0.22,0.82
			c0.11,0.28,0.23,0.52,0.35,0.74c0.12,0.22,0.27,0.46,0.44,0.7c0.17,0.24,0.36,0.45,0.57,0.63c0.21,0.18,0.45,0.29,0.7,0.35
			c0.26,0.05,0.53,0,0.82-0.16c0.29-0.16,0.48-0.36,0.57-0.61c0.09-0.25,0.12-0.5,0.09-0.78c-0.03-0.27-0.11-0.55-0.22-0.82
			c-0.11-0.27-0.23-0.52-0.35-0.75c-0.12-0.22-0.26-0.45-0.44-0.69c-0.17-0.25-0.36-0.45-0.57-0.63c-0.21-0.17-0.44-0.29-0.7-0.34
			c-0.26-0.05-0.53,0-0.82,0.16C90.22,301.57,90.03,301.77,89.94,302.02z"/>
		<path class="st2" d="M95.37,298.57c0.32,0.04,0.61,0.15,0.88,0.33c0.27,0.18,0.51,0.41,0.72,0.7c0.22,0.28,0.4,0.57,0.56,0.87
			c0.16,0.3,0.31,0.62,0.43,0.95c0.12,0.33,0.19,0.66,0.2,0.98c0.01,0.32-0.06,0.63-0.2,0.91c-0.14,0.29-0.4,0.53-0.77,0.73
			c-0.37,0.2-0.71,0.28-1.03,0.25s-0.61-0.14-0.88-0.32c-0.27-0.18-0.51-0.41-0.72-0.7c-0.22-0.28-0.4-0.57-0.57-0.87
			c-0.16-0.3-0.31-0.62-0.43-0.95c-0.12-0.33-0.19-0.66-0.2-0.98c-0.01-0.32,0.06-0.63,0.2-0.92c0.14-0.29,0.4-0.53,0.77-0.73
			C94.71,298.62,95.06,298.54,95.37,298.57z M93.97,299.81c-0.09,0.25-0.12,0.5-0.09,0.78c0.03,0.27,0.11,0.55,0.22,0.82
			c0.11,0.28,0.23,0.52,0.35,0.74c0.12,0.22,0.27,0.46,0.44,0.7c0.17,0.24,0.36,0.45,0.57,0.63c0.21,0.18,0.45,0.29,0.7,0.35
			c0.26,0.05,0.53,0,0.82-0.16c0.29-0.16,0.48-0.36,0.57-0.61c0.09-0.25,0.12-0.5,0.09-0.78c-0.03-0.27-0.11-0.55-0.22-0.82
			c-0.11-0.27-0.23-0.52-0.35-0.75c-0.12-0.22-0.26-0.45-0.44-0.69c-0.17-0.25-0.36-0.45-0.57-0.63c-0.21-0.17-0.44-0.29-0.7-0.34
			c-0.26-0.05-0.53,0-0.82,0.16C94.26,299.37,94.07,299.57,93.97,299.81z"/>
		<path class="st2" d="M99.41,296.37c0.32,0.04,0.61,0.15,0.88,0.33c0.27,0.18,0.51,0.41,0.72,0.7c0.22,0.28,0.4,0.57,0.56,0.87
			c0.16,0.3,0.31,0.62,0.43,0.95c0.12,0.33,0.19,0.66,0.2,0.98c0.01,0.32-0.06,0.63-0.2,0.91c-0.14,0.29-0.4,0.53-0.77,0.73
			c-0.37,0.2-0.71,0.28-1.03,0.25s-0.61-0.14-0.88-0.32c-0.27-0.18-0.51-0.41-0.72-0.7c-0.22-0.28-0.4-0.57-0.57-0.87
			c-0.16-0.3-0.31-0.62-0.43-0.95c-0.12-0.33-0.19-0.66-0.2-0.98c-0.01-0.32,0.06-0.63,0.2-0.92c0.14-0.29,0.4-0.53,0.77-0.73
			C98.74,296.41,99.09,296.33,99.41,296.37z M98.01,297.61c-0.09,0.25-0.12,0.5-0.09,0.78c0.03,0.27,0.11,0.55,0.22,0.82
			c0.11,0.28,0.23,0.52,0.35,0.74c0.12,0.22,0.27,0.46,0.44,0.7c0.17,0.24,0.36,0.45,0.57,0.63c0.21,0.18,0.45,0.29,0.7,0.35
			c0.26,0.05,0.53,0,0.82-0.16c0.29-0.16,0.48-0.36,0.57-0.61c0.09-0.25,0.12-0.5,0.09-0.78c-0.03-0.27-0.11-0.55-0.22-0.82
			c-0.11-0.27-0.23-0.52-0.35-0.75c-0.12-0.22-0.26-0.45-0.44-0.69c-0.17-0.25-0.36-0.45-0.57-0.63c-0.21-0.17-0.44-0.29-0.7-0.34
			c-0.26-0.05-0.53,0-0.82,0.16C98.29,297.16,98.1,297.36,98.01,297.61z"/>
	</g>
	<g>
		<path class="st2" d="M117.02,309.3c-0.13-0.25-0.21-0.5-0.23-0.74c-0.02-0.24-0.01-0.47,0.04-0.7c0.05-0.23,0.13-0.45,0.23-0.67
			c0.1-0.22,0.21-0.44,0.32-0.66c0.11-0.22,0.23-0.43,0.34-0.65c0.11-0.22,0.2-0.44,0.26-0.66c0.06-0.22,0.09-0.42,0.08-0.6
			c-0.01-0.19-0.07-0.38-0.18-0.58c-0.09-0.16-0.2-0.29-0.33-0.39c-0.13-0.09-0.27-0.16-0.43-0.19c-0.15-0.03-0.31-0.03-0.47,0
			c-0.16,0.03-0.32,0.09-0.48,0.17c-0.21,0.11-0.36,0.25-0.47,0.41c-0.11,0.16-0.17,0.33-0.19,0.51c-0.02,0.18,0,0.37,0.05,0.56
			c0.05,0.19,0.13,0.38,0.24,0.57l-0.46,0.25c-0.15-0.26-0.25-0.52-0.3-0.77c-0.06-0.26-0.06-0.5-0.01-0.73s0.15-0.45,0.31-0.65
			c0.16-0.2,0.37-0.38,0.65-0.53c0.22-0.12,0.45-0.2,0.67-0.25c0.22-0.04,0.44-0.05,0.65-0.01c0.21,0.04,0.4,0.13,0.58,0.26
			c0.18,0.14,0.33,0.32,0.46,0.56c0.12,0.21,0.19,0.43,0.21,0.64c0.02,0.21,0.02,0.42-0.02,0.63c-0.04,0.21-0.1,0.42-0.19,0.62
			c-0.09,0.21-0.18,0.41-0.29,0.61c-0.08,0.15-0.17,0.32-0.28,0.51c-0.11,0.19-0.21,0.39-0.3,0.59c-0.09,0.2-0.15,0.41-0.19,0.62
			c-0.04,0.21-0.03,0.4,0.04,0.59l2.82-1.54l0.23,0.42L117.02,309.3z"/>
		<path class="st2" d="M121.04,300.76c0.32,0.04,0.61,0.15,0.88,0.33c0.27,0.18,0.51,0.41,0.72,0.7c0.22,0.28,0.4,0.57,0.56,0.87
			c0.16,0.3,0.31,0.62,0.43,0.95c0.12,0.33,0.19,0.66,0.2,0.98c0.01,0.32-0.06,0.63-0.2,0.91c-0.14,0.29-0.4,0.53-0.77,0.73
			c-0.37,0.2-0.71,0.29-1.03,0.25c-0.32-0.03-0.61-0.14-0.88-0.32c-0.27-0.18-0.51-0.41-0.72-0.7c-0.22-0.28-0.4-0.57-0.57-0.87
			c-0.16-0.3-0.31-0.62-0.43-0.95c-0.12-0.33-0.19-0.66-0.2-0.98c-0.01-0.32,0.06-0.63,0.2-0.92c0.14-0.29,0.4-0.53,0.77-0.73
			C120.38,300.81,120.72,300.72,121.04,300.76z M119.64,302c-0.09,0.25-0.12,0.5-0.09,0.78s0.1,0.55,0.22,0.82
			c0.11,0.28,0.23,0.52,0.35,0.74c0.12,0.22,0.27,0.46,0.44,0.7s0.36,0.45,0.57,0.63c0.21,0.18,0.45,0.29,0.7,0.35
			c0.26,0.06,0.53,0,0.82-0.16c0.29-0.16,0.48-0.36,0.57-0.61c0.09-0.25,0.12-0.5,0.09-0.78c-0.03-0.27-0.11-0.55-0.22-0.82
			c-0.11-0.27-0.23-0.52-0.35-0.75c-0.12-0.22-0.26-0.45-0.44-0.69c-0.17-0.25-0.36-0.45-0.57-0.63c-0.21-0.17-0.44-0.29-0.7-0.34
			c-0.26-0.05-0.53,0-0.82,0.16C119.93,301.55,119.74,301.76,119.64,302z"/>
		<path class="st2" d="M125.08,298.55c0.32,0.04,0.61,0.15,0.88,0.33c0.27,0.18,0.51,0.41,0.72,0.7c0.22,0.28,0.4,0.57,0.56,0.87
			c0.16,0.3,0.31,0.62,0.43,0.95c0.12,0.33,0.19,0.66,0.2,0.98c0.01,0.32-0.06,0.63-0.2,0.91c-0.14,0.29-0.4,0.53-0.77,0.73
			c-0.37,0.2-0.71,0.29-1.03,0.25c-0.32-0.03-0.61-0.14-0.88-0.32c-0.27-0.18-0.51-0.41-0.72-0.7c-0.22-0.28-0.4-0.57-0.57-0.87
			c-0.16-0.3-0.31-0.62-0.43-0.95c-0.12-0.33-0.19-0.66-0.2-0.98c-0.01-0.32,0.06-0.63,0.2-0.92c0.14-0.29,0.4-0.53,0.77-0.73
			C124.41,298.6,124.76,298.52,125.08,298.55z M123.68,299.8c-0.09,0.25-0.12,0.5-0.09,0.78s0.1,0.55,0.22,0.82
			c0.11,0.28,0.23,0.52,0.35,0.74c0.12,0.22,0.27,0.46,0.44,0.7s0.36,0.45,0.57,0.63c0.21,0.18,0.45,0.29,0.7,0.35
			c0.26,0.06,0.53,0,0.82-0.16c0.29-0.16,0.48-0.36,0.57-0.61c0.09-0.25,0.12-0.5,0.09-0.78c-0.03-0.27-0.11-0.55-0.22-0.82
			s-0.23-0.52-0.35-0.75c-0.12-0.22-0.26-0.45-0.44-0.69c-0.17-0.25-0.36-0.45-0.57-0.63c-0.21-0.17-0.44-0.29-0.7-0.34
			c-0.26-0.05-0.53,0-0.82,0.16C123.96,299.35,123.77,299.55,123.68,299.8z"/>
		<path class="st2" d="M127.84,298.01c0.15-0.11,0.27-0.22,0.36-0.35c0.08-0.13,0.13-0.28,0.14-0.45c0.01-0.17-0.03-0.38-0.13-0.63
			l0.37-0.2l2.78,5.08l-0.46,0.25l-2.06-3.77l-1.34,0.73l-0.18-0.33C127.52,298.23,127.69,298.12,127.84,298.01z"/>
	</g>
	<g>
		<path class="st2" d="M146.9,309.31c-0.13-0.25-0.21-0.5-0.23-0.74c-0.02-0.24-0.01-0.47,0.04-0.7c0.05-0.23,0.13-0.45,0.22-0.67
			c0.1-0.22,0.21-0.44,0.32-0.66c0.11-0.22,0.23-0.43,0.34-0.65s0.2-0.44,0.26-0.66c0.06-0.22,0.09-0.42,0.08-0.6
			c-0.01-0.19-0.07-0.38-0.18-0.58c-0.09-0.16-0.2-0.29-0.33-0.39c-0.13-0.09-0.27-0.16-0.43-0.19c-0.15-0.03-0.31-0.03-0.47-0.01
			c-0.16,0.03-0.32,0.09-0.48,0.17c-0.21,0.11-0.36,0.25-0.47,0.41c-0.11,0.16-0.17,0.33-0.19,0.51c-0.02,0.18-0.01,0.37,0.05,0.56
			c0.05,0.19,0.13,0.38,0.24,0.57l-0.46,0.25c-0.15-0.26-0.25-0.52-0.3-0.77c-0.06-0.26-0.06-0.5-0.01-0.73
			c0.05-0.23,0.15-0.45,0.31-0.65c0.16-0.2,0.37-0.38,0.65-0.53c0.22-0.12,0.45-0.2,0.67-0.25c0.22-0.04,0.44-0.05,0.65-0.01
			c0.21,0.04,0.4,0.13,0.58,0.26c0.18,0.14,0.33,0.32,0.46,0.56c0.12,0.21,0.19,0.43,0.21,0.64c0.02,0.21,0.02,0.42-0.02,0.63
			c-0.04,0.21-0.1,0.42-0.19,0.62c-0.09,0.21-0.18,0.41-0.29,0.61c-0.08,0.15-0.17,0.32-0.28,0.51c-0.11,0.19-0.21,0.39-0.29,0.59
			c-0.09,0.2-0.15,0.41-0.19,0.62s-0.03,0.4,0.04,0.59l2.82-1.54l0.23,0.42L146.9,309.31z"/>
		<path class="st2" d="M150.92,300.77c0.32,0.04,0.61,0.15,0.88,0.33c0.27,0.18,0.51,0.41,0.72,0.7c0.22,0.28,0.4,0.57,0.56,0.87
			c0.16,0.3,0.31,0.62,0.43,0.95c0.12,0.33,0.19,0.66,0.2,0.98c0.01,0.32-0.06,0.63-0.2,0.91c-0.14,0.29-0.4,0.53-0.77,0.73
			c-0.37,0.2-0.71,0.29-1.03,0.25c-0.32-0.03-0.61-0.14-0.88-0.32c-0.27-0.18-0.51-0.41-0.72-0.7c-0.22-0.28-0.4-0.57-0.56-0.87
			c-0.16-0.3-0.31-0.62-0.43-0.95c-0.12-0.33-0.19-0.66-0.2-0.98c-0.01-0.32,0.06-0.63,0.2-0.92c0.14-0.29,0.4-0.53,0.77-0.73
			C150.26,300.82,150.6,300.74,150.92,300.77z M149.52,302.01c-0.09,0.25-0.12,0.5-0.09,0.78c0.03,0.27,0.11,0.55,0.22,0.82
			c0.11,0.28,0.23,0.52,0.35,0.74c0.12,0.22,0.27,0.46,0.44,0.7s0.36,0.45,0.57,0.63c0.21,0.18,0.45,0.29,0.7,0.35
			c0.26,0.05,0.53,0,0.82-0.16c0.29-0.16,0.48-0.36,0.57-0.61c0.09-0.25,0.12-0.5,0.09-0.78c-0.03-0.27-0.11-0.55-0.22-0.82
			c-0.11-0.27-0.23-0.52-0.35-0.75c-0.12-0.22-0.26-0.45-0.44-0.69c-0.17-0.25-0.36-0.45-0.57-0.63c-0.21-0.17-0.44-0.29-0.7-0.34
			c-0.26-0.05-0.53,0-0.82,0.16C149.81,301.57,149.61,301.77,149.52,302.01z"/>
		<path class="st2" d="M154.96,298.57c0.32,0.04,0.61,0.15,0.88,0.33c0.27,0.18,0.51,0.41,0.72,0.7c0.22,0.28,0.4,0.57,0.56,0.87
			c0.16,0.3,0.31,0.62,0.43,0.95c0.12,0.33,0.19,0.66,0.2,0.98c0.01,0.32-0.06,0.63-0.2,0.91c-0.14,0.29-0.4,0.53-0.77,0.73
			c-0.37,0.2-0.71,0.29-1.03,0.25c-0.32-0.03-0.61-0.14-0.88-0.32c-0.27-0.18-0.51-0.41-0.72-0.7c-0.22-0.28-0.4-0.57-0.56-0.87
			c-0.16-0.3-0.31-0.62-0.43-0.95c-0.12-0.33-0.19-0.66-0.2-0.98c-0.01-0.32,0.06-0.63,0.2-0.92c0.14-0.29,0.4-0.53,0.77-0.73
			C154.29,298.61,154.64,298.53,154.96,298.57z M153.56,299.81c-0.09,0.25-0.12,0.5-0.09,0.78c0.03,0.27,0.11,0.55,0.22,0.82
			c0.11,0.28,0.23,0.52,0.35,0.74c0.12,0.22,0.27,0.46,0.44,0.7s0.36,0.45,0.57,0.63c0.21,0.18,0.45,0.29,0.7,0.35
			c0.26,0.05,0.53,0,0.82-0.16c0.29-0.16,0.48-0.36,0.57-0.61c0.09-0.25,0.12-0.5,0.09-0.78c-0.03-0.27-0.11-0.55-0.22-0.82
			c-0.11-0.27-0.23-0.52-0.35-0.75c-0.12-0.22-0.26-0.45-0.44-0.69c-0.17-0.25-0.36-0.45-0.57-0.63c-0.21-0.17-0.44-0.29-0.7-0.34
			c-0.26-0.05-0.53,0-0.82,0.16C153.84,299.36,153.65,299.56,153.56,299.81z"/>
		<path class="st2" d="M159,302.7c-0.13-0.25-0.21-0.5-0.23-0.74c-0.02-0.24-0.01-0.47,0.04-0.7c0.05-0.23,0.13-0.45,0.22-0.67
			c0.1-0.22,0.21-0.44,0.32-0.66c0.11-0.22,0.23-0.43,0.34-0.65c0.11-0.22,0.2-0.44,0.26-0.66c0.06-0.22,0.09-0.42,0.08-0.6
			c-0.01-0.19-0.07-0.38-0.18-0.58c-0.09-0.16-0.2-0.29-0.33-0.39c-0.13-0.09-0.27-0.16-0.43-0.19c-0.15-0.03-0.31-0.03-0.47-0.01
			c-0.16,0.03-0.32,0.09-0.48,0.17c-0.21,0.11-0.36,0.25-0.47,0.41c-0.11,0.16-0.17,0.33-0.19,0.51c-0.02,0.18-0.01,0.37,0.05,0.56
			c0.05,0.19,0.13,0.38,0.24,0.57l-0.46,0.25c-0.15-0.26-0.25-0.52-0.3-0.77c-0.06-0.26-0.06-0.5-0.01-0.73
			c0.05-0.23,0.15-0.45,0.31-0.65c0.16-0.2,0.37-0.38,0.65-0.53c0.22-0.12,0.45-0.2,0.67-0.25c0.22-0.04,0.44-0.05,0.65-0.01
			c0.21,0.04,0.4,0.13,0.58,0.26c0.18,0.14,0.33,0.32,0.46,0.56c0.12,0.21,0.19,0.43,0.21,0.64c0.02,0.21,0.02,0.42-0.02,0.63
			c-0.04,0.21-0.1,0.42-0.19,0.62c-0.09,0.21-0.18,0.41-0.29,0.61c-0.08,0.15-0.17,0.32-0.28,0.51c-0.11,0.19-0.21,0.39-0.29,0.59
			c-0.09,0.2-0.15,0.41-0.19,0.62c-0.04,0.21-0.03,0.4,0.04,0.59l2.82-1.54l0.23,0.42L159,302.7z"/>
	</g>
	<g>
		<path class="st2" d="M175.78,309.34c-0.13-0.25-0.21-0.5-0.23-0.74c-0.02-0.24-0.01-0.47,0.04-0.7c0.05-0.23,0.13-0.45,0.22-0.67
			c0.1-0.22,0.21-0.44,0.32-0.66c0.11-0.22,0.23-0.43,0.34-0.65c0.11-0.22,0.2-0.44,0.26-0.66c0.06-0.22,0.09-0.42,0.08-0.6
			c-0.01-0.19-0.07-0.38-0.18-0.58c-0.09-0.16-0.2-0.29-0.33-0.39c-0.13-0.1-0.27-0.16-0.42-0.19c-0.15-0.03-0.31-0.03-0.47,0
			c-0.16,0.03-0.32,0.09-0.48,0.17c-0.21,0.11-0.36,0.25-0.47,0.41c-0.11,0.16-0.17,0.33-0.19,0.51c-0.02,0.18-0.01,0.37,0.05,0.56
			c0.05,0.19,0.13,0.38,0.24,0.57l-0.46,0.25c-0.15-0.26-0.25-0.52-0.3-0.77c-0.06-0.26-0.06-0.5-0.01-0.73
			c0.05-0.23,0.15-0.45,0.31-0.65c0.16-0.2,0.37-0.38,0.65-0.53c0.22-0.12,0.45-0.2,0.67-0.25c0.22-0.04,0.44-0.05,0.65-0.01
			c0.21,0.04,0.4,0.13,0.58,0.26c0.18,0.14,0.33,0.32,0.46,0.56c0.12,0.21,0.19,0.43,0.21,0.64c0.02,0.21,0.02,0.42-0.02,0.63
			c-0.04,0.21-0.1,0.42-0.19,0.62c-0.09,0.21-0.18,0.41-0.29,0.61c-0.08,0.15-0.17,0.32-0.28,0.51c-0.11,0.19-0.21,0.39-0.29,0.59
			c-0.09,0.2-0.15,0.41-0.19,0.62c-0.04,0.21-0.03,0.4,0.04,0.59l2.82-1.54l0.23,0.42L175.78,309.34z"/>
		<path class="st2" d="M179.81,300.8c0.32,0.04,0.61,0.15,0.88,0.33c0.27,0.18,0.51,0.41,0.72,0.7c0.22,0.28,0.4,0.57,0.56,0.87
			c0.16,0.3,0.31,0.62,0.43,0.95c0.12,0.33,0.19,0.66,0.2,0.98c0.01,0.32-0.06,0.63-0.2,0.91c-0.14,0.29-0.4,0.53-0.77,0.73
			c-0.37,0.2-0.71,0.29-1.03,0.25c-0.32-0.03-0.61-0.14-0.88-0.32c-0.27-0.18-0.51-0.41-0.72-0.7c-0.22-0.28-0.4-0.57-0.56-0.87
			c-0.16-0.3-0.31-0.62-0.43-0.95c-0.12-0.33-0.19-0.66-0.2-0.98c-0.01-0.32,0.06-0.63,0.2-0.92c0.14-0.29,0.4-0.53,0.77-0.74
			C179.14,300.85,179.49,300.77,179.81,300.8z M178.41,302.05c-0.09,0.25-0.12,0.5-0.09,0.77c0.03,0.27,0.1,0.55,0.22,0.82
			c0.11,0.28,0.23,0.52,0.35,0.74c0.12,0.22,0.27,0.46,0.44,0.7s0.36,0.45,0.57,0.63c0.21,0.18,0.45,0.29,0.7,0.35
			c0.26,0.05,0.53,0,0.82-0.16c0.29-0.16,0.48-0.36,0.57-0.61c0.09-0.25,0.12-0.5,0.09-0.78c-0.03-0.27-0.11-0.55-0.22-0.82
			c-0.11-0.27-0.23-0.52-0.35-0.75c-0.12-0.22-0.26-0.45-0.44-0.69c-0.17-0.25-0.36-0.45-0.57-0.63c-0.21-0.17-0.44-0.29-0.7-0.34
			c-0.26-0.05-0.53,0-0.82,0.16C178.69,301.6,178.5,301.8,178.41,302.05z"/>
		<path class="st2" d="M183.84,298.6c0.32,0.04,0.61,0.15,0.88,0.33c0.27,0.18,0.51,0.41,0.72,0.7c0.22,0.28,0.4,0.57,0.56,0.87
			c0.16,0.3,0.31,0.62,0.43,0.95c0.12,0.33,0.19,0.66,0.2,0.98c0.01,0.32-0.06,0.63-0.2,0.91c-0.14,0.29-0.4,0.53-0.77,0.73
			c-0.37,0.2-0.71,0.29-1.03,0.25c-0.32-0.03-0.61-0.14-0.88-0.32c-0.27-0.18-0.51-0.41-0.72-0.7c-0.22-0.28-0.4-0.57-0.56-0.87
			c-0.16-0.3-0.31-0.62-0.43-0.95c-0.12-0.33-0.19-0.66-0.2-0.98c-0.01-0.32,0.06-0.63,0.2-0.92c0.14-0.29,0.4-0.53,0.77-0.74
			C183.18,298.65,183.52,298.56,183.84,298.6z M182.44,299.84c-0.09,0.25-0.12,0.5-0.09,0.77c0.03,0.27,0.1,0.55,0.22,0.82
			c0.11,0.28,0.23,0.52,0.35,0.74c0.12,0.22,0.27,0.46,0.44,0.7s0.36,0.45,0.57,0.63c0.21,0.18,0.45,0.29,0.7,0.35
			c0.26,0.05,0.53,0,0.82-0.16c0.29-0.16,0.48-0.36,0.57-0.61c0.09-0.25,0.12-0.5,0.09-0.78c-0.03-0.27-0.11-0.55-0.22-0.82
			c-0.11-0.27-0.23-0.52-0.35-0.75c-0.12-0.22-0.26-0.45-0.44-0.69c-0.17-0.25-0.36-0.45-0.57-0.63c-0.21-0.17-0.44-0.29-0.7-0.34
			c-0.26-0.05-0.53,0-0.82,0.16C182.73,299.39,182.53,299.59,182.44,299.84z"/>
		<path class="st2" d="M187.81,301.39c0.15,0.13,0.3,0.23,0.48,0.29c0.17,0.06,0.36,0.07,0.56,0.05c0.2-0.02,0.4-0.09,0.6-0.2
			c0.17-0.09,0.32-0.21,0.45-0.34c0.13-0.13,0.23-0.28,0.29-0.44c0.07-0.16,0.1-0.33,0.1-0.51c0-0.18-0.05-0.36-0.15-0.54
			c-0.1-0.18-0.22-0.32-0.35-0.42c-0.14-0.1-0.28-0.16-0.44-0.19c-0.16-0.03-0.33-0.02-0.5,0.01c-0.17,0.04-0.34,0.1-0.51,0.19
			l-0.38,0.21l-0.21-0.38l0.38-0.21c0.12-0.06,0.23-0.15,0.33-0.25c0.1-0.1,0.18-0.22,0.24-0.35c0.06-0.13,0.09-0.27,0.09-0.42
			c0-0.15-0.04-0.31-0.13-0.47c-0.09-0.17-0.2-0.3-0.32-0.38c-0.12-0.09-0.26-0.14-0.4-0.17c-0.15-0.02-0.29-0.02-0.45,0.02
			c-0.15,0.04-0.31,0.1-0.46,0.18c-0.19,0.1-0.34,0.23-0.45,0.37c-0.11,0.14-0.18,0.3-0.22,0.47c-0.04,0.17-0.04,0.34,0,0.53
			c0.04,0.18,0.11,0.37,0.22,0.55l-0.46,0.25c-0.13-0.24-0.22-0.49-0.25-0.73c-0.04-0.24-0.03-0.48,0.03-0.7
			c0.06-0.22,0.16-0.43,0.31-0.62c0.15-0.19,0.35-0.36,0.6-0.49c0.2-0.11,0.41-0.19,0.62-0.24c0.22-0.05,0.43-0.07,0.63-0.04
			c0.2,0.02,0.4,0.09,0.57,0.2c0.18,0.11,0.33,0.28,0.45,0.51c0.15,0.28,0.21,0.56,0.17,0.84c-0.04,0.28-0.17,0.54-0.41,0.75
			l0.01,0.01c0.36-0.13,0.7-0.13,1-0.01c0.3,0.13,0.55,0.36,0.73,0.69c0.14,0.25,0.21,0.5,0.22,0.74c0.01,0.24-0.03,0.47-0.12,0.69
			c-0.09,0.22-0.22,0.42-0.4,0.6c-0.18,0.18-0.38,0.34-0.61,0.46c-0.26,0.14-0.52,0.24-0.79,0.28c-0.26,0.04-0.51,0.03-0.75-0.02
			c-0.24-0.06-0.45-0.17-0.65-0.34c-0.2-0.17-0.36-0.4-0.49-0.68l0.46-0.25C187.54,301.08,187.66,301.25,187.81,301.39z"/>
	</g>
	<g>
		<path class="st2" d="M205.78,309.77c-0.13-0.25-0.21-0.5-0.23-0.74c-0.02-0.24-0.01-0.47,0.04-0.7c0.05-0.23,0.13-0.45,0.22-0.67
			c0.1-0.22,0.21-0.44,0.32-0.66c0.11-0.22,0.23-0.43,0.34-0.65c0.11-0.22,0.2-0.44,0.26-0.66c0.06-0.22,0.09-0.42,0.08-0.6
			c-0.01-0.19-0.07-0.38-0.18-0.58c-0.09-0.16-0.2-0.29-0.33-0.39c-0.13-0.1-0.27-0.16-0.42-0.19c-0.15-0.03-0.31-0.03-0.47,0
			c-0.16,0.03-0.32,0.09-0.48,0.17c-0.21,0.11-0.36,0.25-0.47,0.41c-0.11,0.16-0.17,0.33-0.19,0.51c-0.02,0.18-0.01,0.37,0.05,0.56
			c0.05,0.19,0.13,0.38,0.24,0.57l-0.46,0.25c-0.15-0.26-0.25-0.52-0.3-0.77c-0.06-0.26-0.06-0.5-0.01-0.73
			c0.05-0.23,0.15-0.45,0.31-0.65c0.16-0.2,0.37-0.38,0.65-0.53c0.22-0.12,0.45-0.2,0.67-0.25c0.22-0.04,0.44-0.05,0.65-0.01
			c0.21,0.04,0.4,0.13,0.58,0.26c0.18,0.14,0.33,0.32,0.46,0.56c0.12,0.21,0.19,0.43,0.21,0.64c0.02,0.21,0.02,0.42-0.02,0.63
			c-0.04,0.21-0.1,0.42-0.19,0.62c-0.09,0.21-0.18,0.41-0.29,0.61c-0.08,0.15-0.17,0.32-0.28,0.51c-0.11,0.19-0.21,0.39-0.29,0.59
			c-0.09,0.2-0.15,0.41-0.19,0.62s-0.03,0.4,0.04,0.59l2.82-1.54l0.23,0.42L205.78,309.77z"/>
		<path class="st2" d="M209.8,301.23c0.32,0.04,0.61,0.15,0.88,0.33c0.27,0.18,0.51,0.41,0.72,0.7c0.22,0.28,0.4,0.57,0.56,0.87
			c0.16,0.3,0.31,0.62,0.43,0.95c0.12,0.33,0.19,0.66,0.2,0.98c0.01,0.32-0.06,0.63-0.2,0.91c-0.14,0.29-0.4,0.53-0.77,0.73
			c-0.37,0.2-0.71,0.29-1.03,0.25c-0.32-0.03-0.61-0.14-0.88-0.32c-0.27-0.18-0.51-0.41-0.72-0.7c-0.22-0.28-0.4-0.57-0.56-0.87
			c-0.16-0.3-0.31-0.62-0.43-0.95c-0.12-0.33-0.19-0.66-0.2-0.98c-0.01-0.32,0.06-0.63,0.2-0.92c0.14-0.29,0.4-0.53,0.77-0.74
			C209.14,301.28,209.48,301.19,209.8,301.23z M208.4,302.47c-0.09,0.25-0.12,0.5-0.09,0.77c0.03,0.27,0.1,0.55,0.22,0.82
			c0.11,0.28,0.23,0.52,0.35,0.74c0.12,0.22,0.27,0.46,0.44,0.7s0.36,0.45,0.57,0.63c0.21,0.18,0.45,0.29,0.7,0.35
			c0.26,0.05,0.53,0,0.82-0.16c0.29-0.16,0.48-0.36,0.57-0.61c0.09-0.25,0.12-0.5,0.09-0.78c-0.03-0.27-0.11-0.55-0.22-0.82
			s-0.23-0.52-0.35-0.75c-0.12-0.22-0.26-0.45-0.44-0.69c-0.17-0.25-0.36-0.45-0.57-0.63c-0.21-0.17-0.44-0.29-0.7-0.34
			c-0.26-0.05-0.53,0-0.82,0.16C208.69,302.02,208.49,302.23,208.4,302.47z"/>
		<path class="st2" d="M213.84,299.02c0.32,0.04,0.61,0.15,0.88,0.33c0.27,0.18,0.51,0.41,0.72,0.7c0.22,0.28,0.4,0.57,0.56,0.87
			c0.16,0.3,0.31,0.62,0.43,0.95c0.12,0.33,0.19,0.66,0.2,0.98c0.01,0.32-0.06,0.63-0.2,0.91c-0.14,0.29-0.4,0.53-0.77,0.73
			c-0.37,0.2-0.71,0.29-1.03,0.25c-0.32-0.03-0.61-0.14-0.88-0.32c-0.27-0.18-0.51-0.41-0.72-0.7c-0.22-0.28-0.4-0.57-0.56-0.87
			c-0.16-0.3-0.31-0.62-0.43-0.95c-0.12-0.33-0.19-0.66-0.2-0.98c-0.01-0.32,0.06-0.63,0.2-0.92c0.14-0.29,0.4-0.53,0.77-0.74
			C213.17,299.07,213.52,298.99,213.84,299.02z M212.44,300.27c-0.09,0.25-0.12,0.5-0.09,0.77c0.03,0.27,0.1,0.55,0.22,0.82
			c0.11,0.28,0.23,0.52,0.35,0.74c0.12,0.22,0.27,0.46,0.44,0.7s0.36,0.45,0.57,0.63c0.21,0.18,0.45,0.29,0.7,0.35
			c0.26,0.05,0.53,0,0.82-0.16c0.29-0.16,0.48-0.36,0.57-0.61c0.09-0.25,0.12-0.5,0.09-0.78c-0.03-0.27-0.11-0.55-0.22-0.82
			s-0.23-0.52-0.35-0.75c-0.12-0.22-0.26-0.45-0.44-0.69c-0.17-0.25-0.36-0.45-0.57-0.63c-0.21-0.17-0.44-0.29-0.7-0.34
			c-0.26-0.05-0.53,0-0.82,0.16C212.72,299.82,212.53,300.02,212.44,300.27z"/>
		<path class="st2" d="M217.41,296.81l0.41-0.23l1.88,3.43l0.76-0.42l0.21,0.38l-0.76,0.42l0.69,1.26l-0.42,0.23l-0.69-1.26
			l-2.34,1.28l-0.24-0.44L217.41,296.81z M217.77,297.48l-0.01,0.01l-0.4,3.81l1.93-1.06L217.77,297.48z"/>
	</g>
	<g>
		<path class="st2" d="M237.49,309.76c-0.13-0.25-0.21-0.5-0.23-0.74c-0.02-0.24-0.01-0.47,0.04-0.7c0.05-0.23,0.13-0.45,0.22-0.67
			c0.1-0.22,0.21-0.44,0.32-0.66c0.11-0.22,0.23-0.43,0.34-0.65c0.11-0.22,0.2-0.44,0.26-0.66c0.06-0.22,0.09-0.42,0.08-0.6
			c-0.01-0.19-0.07-0.38-0.18-0.58c-0.09-0.16-0.2-0.29-0.33-0.39c-0.13-0.1-0.27-0.16-0.42-0.19c-0.15-0.03-0.31-0.03-0.47,0
			c-0.16,0.03-0.32,0.09-0.48,0.17c-0.21,0.11-0.36,0.25-0.47,0.41c-0.11,0.16-0.17,0.33-0.19,0.51c-0.02,0.18-0.01,0.37,0.05,0.56
			c0.05,0.19,0.13,0.38,0.24,0.57l-0.46,0.25c-0.15-0.26-0.25-0.52-0.3-0.77c-0.06-0.26-0.06-0.5-0.01-0.73
			c0.05-0.23,0.15-0.45,0.31-0.65c0.16-0.2,0.37-0.38,0.65-0.53c0.22-0.12,0.45-0.2,0.67-0.25c0.22-0.04,0.44-0.05,0.65-0.01
			c0.21,0.04,0.4,0.13,0.58,0.26c0.18,0.14,0.33,0.32,0.46,0.56c0.12,0.21,0.19,0.43,0.21,0.64c0.02,0.21,0.02,0.42-0.02,0.63
			c-0.04,0.21-0.1,0.42-0.19,0.62c-0.09,0.21-0.18,0.41-0.29,0.61c-0.08,0.15-0.17,0.32-0.28,0.51c-0.11,0.19-0.21,0.39-0.29,0.59
			c-0.09,0.2-0.15,0.41-0.19,0.62s-0.03,0.4,0.04,0.59l2.82-1.54l0.23,0.42L237.49,309.76z"/>
		<path class="st2" d="M241.51,301.22c0.32,0.04,0.61,0.15,0.88,0.33c0.27,0.18,0.51,0.41,0.72,0.7c0.22,0.28,0.4,0.57,0.56,0.87
			c0.16,0.3,0.31,0.62,0.43,0.95c0.12,0.33,0.19,0.66,0.2,0.98c0.01,0.32-0.06,0.63-0.2,0.91c-0.14,0.29-0.4,0.53-0.77,0.73
			c-0.37,0.2-0.71,0.29-1.03,0.25c-0.32-0.03-0.61-0.14-0.88-0.32c-0.27-0.18-0.51-0.41-0.72-0.7c-0.22-0.28-0.4-0.57-0.56-0.87
			c-0.16-0.3-0.31-0.62-0.43-0.95c-0.12-0.33-0.19-0.66-0.2-0.98c-0.01-0.32,0.06-0.63,0.2-0.92c0.14-0.29,0.4-0.53,0.77-0.74
			C240.85,301.26,241.19,301.18,241.51,301.22z M240.11,302.46c-0.09,0.25-0.12,0.5-0.09,0.77c0.03,0.27,0.1,0.55,0.22,0.82
			c0.11,0.28,0.23,0.52,0.35,0.74c0.12,0.22,0.27,0.46,0.44,0.7c0.17,0.24,0.36,0.45,0.57,0.63c0.21,0.18,0.45,0.29,0.7,0.35
			c0.26,0.05,0.53,0,0.82-0.16c0.29-0.16,0.48-0.36,0.57-0.61c0.09-0.25,0.12-0.5,0.09-0.78c-0.03-0.27-0.11-0.55-0.22-0.82
			c-0.11-0.27-0.23-0.52-0.35-0.75c-0.12-0.22-0.26-0.45-0.44-0.69c-0.17-0.25-0.36-0.45-0.57-0.63c-0.21-0.17-0.44-0.29-0.7-0.34
			c-0.26-0.05-0.53,0-0.82,0.16C240.4,302.01,240.2,302.21,240.11,302.46z"/>
		<path class="st2" d="M245.55,299.01c0.32,0.04,0.61,0.15,0.88,0.33c0.27,0.18,0.51,0.41,0.72,0.7c0.22,0.28,0.4,0.57,0.56,0.87
			c0.16,0.3,0.31,0.62,0.43,0.95c0.12,0.33,0.19,0.66,0.2,0.98c0.01,0.32-0.06,0.63-0.2,0.91c-0.14,0.29-0.4,0.53-0.77,0.73
			c-0.37,0.2-0.71,0.29-1.03,0.25c-0.32-0.03-0.61-0.14-0.88-0.32c-0.27-0.18-0.51-0.41-0.72-0.7c-0.22-0.28-0.4-0.57-0.56-0.87
			c-0.16-0.3-0.31-0.62-0.43-0.95c-0.12-0.33-0.19-0.66-0.2-0.98c-0.01-0.32,0.06-0.63,0.2-0.92c0.14-0.29,0.4-0.53,0.77-0.74
			C244.88,299.06,245.23,298.97,245.55,299.01z M244.15,300.25c-0.09,0.25-0.12,0.5-0.09,0.77c0.03,0.27,0.1,0.55,0.22,0.82
			c0.11,0.28,0.23,0.52,0.35,0.74c0.12,0.22,0.27,0.46,0.44,0.7s0.36,0.45,0.57,0.63c0.21,0.18,0.45,0.29,0.7,0.35
			c0.26,0.05,0.53,0,0.82-0.16c0.29-0.16,0.48-0.36,0.57-0.61c0.09-0.25,0.12-0.5,0.09-0.78c-0.03-0.27-0.11-0.55-0.22-0.82
			c-0.11-0.27-0.23-0.52-0.35-0.75c-0.12-0.22-0.26-0.45-0.44-0.69c-0.17-0.25-0.36-0.45-0.57-0.63c-0.21-0.17-0.44-0.29-0.7-0.34
			c-0.26-0.05-0.53,0-0.82,0.16C244.43,299.8,244.24,300.01,244.15,300.25z"/>
		<path class="st2" d="M249.62,301.86c0.14,0.11,0.3,0.19,0.47,0.23c0.17,0.04,0.34,0.05,0.52,0.03c0.18-0.03,0.36-0.09,0.53-0.18
			c0.2-0.11,0.35-0.24,0.47-0.4c0.11-0.16,0.19-0.33,0.23-0.52c0.04-0.19,0.05-0.38,0.01-0.58c-0.03-0.2-0.1-0.39-0.2-0.57
			c-0.1-0.19-0.23-0.34-0.38-0.47c-0.15-0.12-0.32-0.21-0.5-0.27c-0.18-0.06-0.37-0.07-0.56-0.06c-0.2,0.02-0.39,0.08-0.58,0.18
			c-0.23,0.13-0.42,0.3-0.56,0.51c-0.14,0.21-0.22,0.45-0.24,0.71l-0.39,0.21l-0.95-2.9l2.54-1.39l0.23,0.42l-2.22,1.21l0.59,1.86
			l0.02,0.01c0.04-0.22,0.14-0.42,0.29-0.61c0.15-0.19,0.32-0.34,0.53-0.45c0.26-0.14,0.52-0.23,0.78-0.26
			c0.26-0.03,0.5,0,0.74,0.07c0.23,0.07,0.45,0.2,0.64,0.37c0.2,0.17,0.37,0.39,0.51,0.64c0.13,0.25,0.21,0.5,0.24,0.76
			c0.02,0.26,0,0.51-0.08,0.75c-0.08,0.24-0.2,0.46-0.37,0.66c-0.17,0.2-0.37,0.37-0.62,0.5c-0.24,0.13-0.48,0.21-0.71,0.25
			c-0.24,0.04-0.47,0.03-0.69-0.02c-0.22-0.05-0.43-0.15-0.62-0.3c-0.19-0.15-0.36-0.34-0.5-0.58l0.46-0.25
			C249.35,301.61,249.48,301.75,249.62,301.86z"/>
	</g>
	<g>
		<path class="st2" d="M268.81,309.78c-0.13-0.25-0.21-0.5-0.23-0.74c-0.02-0.24-0.01-0.47,0.04-0.7s0.13-0.45,0.23-0.67
			c0.1-0.22,0.21-0.44,0.32-0.66c0.11-0.22,0.23-0.43,0.33-0.65c0.11-0.22,0.2-0.44,0.26-0.66c0.06-0.22,0.09-0.42,0.08-0.6
			c-0.01-0.19-0.07-0.38-0.18-0.58c-0.09-0.16-0.2-0.29-0.33-0.39c-0.13-0.09-0.27-0.16-0.43-0.19c-0.15-0.03-0.31-0.03-0.47-0.01
			c-0.16,0.03-0.32,0.09-0.48,0.17c-0.21,0.11-0.36,0.25-0.47,0.41c-0.11,0.16-0.17,0.33-0.19,0.51c-0.02,0.18,0,0.37,0.05,0.56
			s0.13,0.38,0.24,0.57l-0.46,0.25c-0.15-0.26-0.25-0.52-0.3-0.77c-0.05-0.26-0.06-0.5-0.01-0.73c0.05-0.23,0.15-0.45,0.31-0.65
			c0.16-0.2,0.37-0.38,0.65-0.53c0.22-0.12,0.45-0.2,0.67-0.25c0.22-0.04,0.44-0.05,0.65-0.01c0.21,0.04,0.4,0.13,0.58,0.26
			c0.18,0.14,0.33,0.32,0.46,0.56c0.12,0.21,0.19,0.43,0.21,0.64c0.02,0.21,0.02,0.42-0.02,0.63c-0.04,0.21-0.1,0.42-0.19,0.62
			s-0.18,0.41-0.29,0.61c-0.08,0.15-0.17,0.32-0.28,0.51c-0.11,0.19-0.21,0.39-0.3,0.59c-0.09,0.2-0.15,0.41-0.19,0.62
			s-0.03,0.4,0.04,0.59l2.82-1.54l0.23,0.42L268.81,309.78z"/>
		<path class="st2" d="M272.84,301.24c0.32,0.04,0.61,0.15,0.88,0.33c0.27,0.18,0.51,0.41,0.72,0.7c0.22,0.28,0.4,0.57,0.56,0.87
			c0.16,0.3,0.31,0.62,0.43,0.95c0.12,0.33,0.19,0.66,0.2,0.98c0.01,0.32-0.06,0.63-0.2,0.91c-0.14,0.29-0.4,0.53-0.77,0.73
			c-0.37,0.2-0.71,0.29-1.03,0.25c-0.32-0.03-0.61-0.14-0.88-0.32c-0.27-0.18-0.51-0.41-0.72-0.7c-0.22-0.28-0.4-0.57-0.57-0.87
			c-0.16-0.3-0.31-0.62-0.43-0.95c-0.12-0.33-0.19-0.66-0.2-0.98c-0.01-0.32,0.06-0.63,0.2-0.92c0.14-0.29,0.4-0.53,0.77-0.73
			C272.18,301.29,272.52,301.21,272.84,301.24z M271.44,302.48c-0.09,0.25-0.12,0.5-0.09,0.78c0.03,0.27,0.1,0.55,0.22,0.82
			c0.11,0.28,0.23,0.52,0.35,0.74c0.12,0.22,0.27,0.46,0.44,0.7c0.17,0.24,0.36,0.45,0.57,0.63c0.21,0.18,0.45,0.29,0.7,0.35
			c0.26,0.05,0.53,0,0.82-0.16c0.29-0.16,0.48-0.36,0.57-0.61c0.09-0.25,0.12-0.5,0.09-0.78c-0.03-0.27-0.11-0.55-0.22-0.82
			c-0.11-0.27-0.23-0.52-0.35-0.75c-0.12-0.22-0.26-0.45-0.44-0.69c-0.17-0.25-0.36-0.45-0.57-0.63c-0.21-0.17-0.44-0.29-0.7-0.34
			c-0.26-0.05-0.53,0-0.82,0.16S271.53,302.24,271.44,302.48z"/>
		<path class="st2" d="M276.88,299.04c0.32,0.04,0.61,0.15,0.88,0.33c0.27,0.18,0.51,0.41,0.72,0.7c0.22,0.28,0.4,0.57,0.56,0.87
			c0.16,0.3,0.31,0.62,0.43,0.95c0.12,0.33,0.19,0.66,0.2,0.98c0.01,0.32-0.06,0.63-0.2,0.91c-0.14,0.29-0.4,0.53-0.77,0.73
			c-0.37,0.2-0.71,0.29-1.03,0.25s-0.61-0.14-0.88-0.32c-0.27-0.18-0.51-0.41-0.72-0.7c-0.22-0.28-0.4-0.57-0.57-0.87
			c-0.16-0.3-0.31-0.62-0.43-0.95c-0.12-0.33-0.19-0.66-0.2-0.98c-0.01-0.32,0.06-0.63,0.2-0.92c0.14-0.29,0.4-0.53,0.77-0.73
			C276.21,299.08,276.56,299,276.88,299.04z M275.48,300.28c-0.09,0.25-0.12,0.5-0.09,0.78c0.03,0.27,0.1,0.55,0.22,0.82
			c0.11,0.28,0.23,0.52,0.35,0.74c0.12,0.22,0.27,0.46,0.44,0.7c0.17,0.24,0.36,0.45,0.57,0.63c0.21,0.18,0.45,0.29,0.7,0.35
			c0.26,0.05,0.53,0,0.82-0.16c0.29-0.16,0.48-0.36,0.57-0.61c0.09-0.25,0.12-0.5,0.09-0.78c-0.03-0.27-0.11-0.55-0.22-0.82
			c-0.11-0.27-0.23-0.52-0.35-0.75c-0.12-0.22-0.26-0.45-0.44-0.69c-0.17-0.25-0.36-0.45-0.57-0.63c-0.21-0.17-0.44-0.29-0.7-0.34
			c-0.26-0.05-0.53,0-0.82,0.16C275.76,299.83,275.57,300.03,275.48,300.28z"/>
		<path class="st2" d="M281.08,297.26c-0.28-0.07-0.57-0.03-0.86,0.13c-0.3,0.16-0.49,0.37-0.6,0.62c-0.1,0.25-0.14,0.52-0.12,0.8
			c0.02,0.28,0.09,0.57,0.2,0.85c0.11,0.28,0.23,0.54,0.36,0.77l0.01-0.01c-0.02-0.32,0.06-0.62,0.21-0.91
			c0.16-0.29,0.38-0.51,0.67-0.67c0.26-0.14,0.51-0.22,0.76-0.25c0.25-0.03,0.49-0.01,0.72,0.06c0.23,0.07,0.44,0.19,0.63,0.35
			c0.19,0.16,0.36,0.37,0.49,0.62c0.13,0.25,0.22,0.5,0.25,0.76c0.03,0.26,0.01,0.5-0.06,0.74s-0.19,0.45-0.35,0.65
			c-0.16,0.2-0.37,0.37-0.62,0.51c-0.31,0.17-0.6,0.27-0.88,0.29c-0.27,0.03-0.54-0.03-0.8-0.16c-0.26-0.13-0.52-0.35-0.78-0.65
			c-0.26-0.3-0.52-0.7-0.79-1.2c-0.06-0.1-0.12-0.24-0.2-0.41c-0.08-0.17-0.15-0.36-0.2-0.57s-0.1-0.43-0.12-0.67
			c-0.02-0.23-0.01-0.47,0.04-0.69c0.05-0.23,0.15-0.44,0.29-0.65c0.15-0.21,0.36-0.38,0.63-0.53c0.45-0.25,0.87-0.34,1.26-0.26
			c0.38,0.07,0.73,0.32,1.03,0.74l-0.46,0.25C281.6,297.5,281.36,297.33,281.08,297.26z M280.69,299.63
			c-0.12,0.16-0.2,0.32-0.24,0.5c-0.04,0.18-0.05,0.37-0.01,0.56c0.03,0.19,0.1,0.38,0.2,0.57c0.1,0.18,0.21,0.34,0.35,0.47
			c0.14,0.13,0.29,0.23,0.46,0.29c0.17,0.06,0.35,0.08,0.55,0.06c0.2-0.02,0.41-0.09,0.63-0.21c0.18-0.1,0.33-0.23,0.44-0.38
			c0.11-0.15,0.19-0.32,0.23-0.49c0.04-0.18,0.05-0.36,0.02-0.55c-0.03-0.19-0.09-0.37-0.19-0.55c-0.1-0.18-0.22-0.34-0.37-0.48
			c-0.15-0.13-0.3-0.23-0.47-0.3c-0.17-0.06-0.35-0.09-0.54-0.08c-0.19,0.01-0.38,0.07-0.58,0.18
			C280.96,299.34,280.81,299.47,280.69,299.63z"/>
	</g>
	<g>
		<path class="st2" d="M301,309.37c-0.13-0.25-0.21-0.5-0.23-0.74c-0.02-0.24-0.01-0.47,0.04-0.7c0.05-0.23,0.13-0.45,0.22-0.67
			c0.1-0.22,0.21-0.44,0.32-0.66c0.11-0.22,0.23-0.43,0.34-0.65c0.11-0.22,0.2-0.44,0.26-0.66c0.06-0.22,0.09-0.42,0.08-0.6
			c-0.01-0.19-0.07-0.38-0.18-0.58c-0.09-0.16-0.2-0.29-0.33-0.39c-0.13-0.1-0.27-0.16-0.43-0.19c-0.15-0.03-0.31-0.03-0.47,0
			c-0.16,0.03-0.32,0.09-0.48,0.17c-0.21,0.11-0.36,0.25-0.47,0.41c-0.11,0.16-0.17,0.33-0.19,0.51c-0.02,0.18-0.01,0.37,0.05,0.56
			c0.05,0.19,0.13,0.38,0.24,0.57l-0.46,0.25c-0.15-0.26-0.25-0.52-0.3-0.77c-0.06-0.26-0.06-0.5-0.01-0.73
			c0.05-0.23,0.15-0.45,0.31-0.65c0.16-0.2,0.37-0.38,0.65-0.53c0.22-0.12,0.45-0.2,0.67-0.25c0.22-0.04,0.44-0.05,0.65-0.01
			c0.21,0.04,0.4,0.13,0.58,0.26c0.18,0.14,0.33,0.32,0.46,0.56c0.12,0.21,0.19,0.43,0.21,0.64c0.02,0.21,0.02,0.42-0.02,0.63
			c-0.04,0.21-0.1,0.42-0.19,0.62c-0.09,0.21-0.18,0.41-0.29,0.61c-0.08,0.15-0.17,0.32-0.28,0.51c-0.11,0.19-0.21,0.39-0.29,0.59
			c-0.09,0.2-0.15,0.41-0.19,0.62c-0.04,0.21-0.03,0.4,0.04,0.59l2.82-1.54l0.23,0.42L301,309.37z"/>
		<path class="st2" d="M305.03,300.83c0.32,0.04,0.61,0.15,0.88,0.33c0.27,0.18,0.51,0.41,0.72,0.7c0.22,0.28,0.4,0.57,0.56,0.87
			c0.16,0.3,0.31,0.62,0.43,0.95c0.12,0.33,0.19,0.66,0.2,0.98c0.01,0.32-0.06,0.63-0.2,0.91c-0.14,0.29-0.4,0.53-0.77,0.73
			c-0.37,0.2-0.71,0.28-1.03,0.25s-0.61-0.14-0.88-0.32c-0.27-0.18-0.51-0.41-0.72-0.7c-0.22-0.28-0.4-0.57-0.56-0.87
			c-0.16-0.3-0.31-0.62-0.43-0.95c-0.12-0.33-0.19-0.66-0.2-0.98c-0.01-0.32,0.06-0.63,0.2-0.92c0.14-0.29,0.4-0.53,0.77-0.73
			C304.37,300.88,304.71,300.8,305.03,300.83z M303.63,302.07c-0.09,0.25-0.12,0.5-0.09,0.78c0.03,0.27,0.11,0.55,0.22,0.82
			c0.11,0.28,0.23,0.52,0.35,0.74c0.12,0.22,0.27,0.46,0.44,0.7s0.36,0.45,0.57,0.63c0.21,0.18,0.45,0.29,0.7,0.35
			c0.26,0.05,0.53,0,0.82-0.16c0.29-0.16,0.48-0.36,0.57-0.61c0.09-0.25,0.12-0.5,0.09-0.78c-0.03-0.27-0.11-0.55-0.22-0.82
			c-0.11-0.27-0.23-0.52-0.35-0.75c-0.12-0.22-0.26-0.45-0.44-0.69c-0.17-0.25-0.36-0.45-0.57-0.63c-0.21-0.17-0.44-0.29-0.7-0.34
			c-0.26-0.05-0.53,0-0.82,0.16C303.91,301.63,303.72,301.83,303.63,302.07z"/>
		<path class="st2" d="M309.06,298.63c0.32,0.04,0.61,0.15,0.88,0.33c0.27,0.18,0.51,0.41,0.72,0.7c0.22,0.28,0.4,0.57,0.56,0.87
			c0.16,0.3,0.31,0.62,0.43,0.95c0.12,0.33,0.19,0.66,0.2,0.98c0.01,0.32-0.06,0.63-0.2,0.91c-0.14,0.29-0.4,0.53-0.77,0.73
			c-0.37,0.2-0.71,0.28-1.03,0.25s-0.61-0.14-0.88-0.32c-0.27-0.18-0.51-0.41-0.72-0.7c-0.22-0.28-0.4-0.57-0.56-0.87
			c-0.16-0.3-0.31-0.62-0.43-0.95c-0.12-0.33-0.19-0.66-0.2-0.98c-0.01-0.32,0.06-0.63,0.2-0.92c0.14-0.29,0.4-0.53,0.77-0.73
			C308.4,298.67,308.75,298.59,309.06,298.63z M307.66,299.87c-0.09,0.25-0.12,0.5-0.09,0.78c0.03,0.27,0.11,0.55,0.22,0.82
			c0.11,0.28,0.23,0.52,0.35,0.74c0.12,0.22,0.27,0.46,0.44,0.7s0.36,0.45,0.57,0.63c0.21,0.18,0.45,0.29,0.7,0.35
			c0.26,0.05,0.53,0,0.82-0.16c0.29-0.16,0.48-0.36,0.57-0.61c0.09-0.25,0.12-0.5,0.09-0.78c-0.03-0.27-0.11-0.55-0.22-0.82
			c-0.11-0.27-0.23-0.52-0.35-0.75c-0.12-0.22-0.26-0.45-0.44-0.69c-0.17-0.25-0.36-0.45-0.57-0.63c-0.21-0.17-0.44-0.29-0.7-0.34
			c-0.26-0.05-0.53,0-0.82,0.16C307.95,299.42,307.76,299.62,307.66,299.87z"/>
		<path class="st2" d="M313.74,295.9l0.23,0.42c-0.07,0.25-0.14,0.58-0.21,0.98c-0.07,0.4-0.11,0.85-0.11,1.35
			c0,0.5,0.06,1.04,0.17,1.62c0.11,0.58,0.31,1.17,0.61,1.77l-0.49,0.27c-0.21-0.45-0.37-0.89-0.49-1.32
			c-0.12-0.43-0.2-0.87-0.23-1.33c-0.03-0.46-0.02-0.94,0.02-1.44c0.05-0.5,0.14-1.05,0.27-1.65l-2.81,1.54l-0.23-0.42L313.74,295.9
			z"/>
	</g>
	<g>
		<path class="st2" d="M332.72,309.41c-0.13-0.25-0.21-0.5-0.23-0.74c-0.02-0.24-0.01-0.47,0.04-0.7c0.05-0.23,0.13-0.45,0.23-0.67
			c0.1-0.22,0.21-0.44,0.32-0.66c0.11-0.22,0.23-0.43,0.33-0.65c0.11-0.22,0.2-0.44,0.26-0.66c0.06-0.22,0.09-0.42,0.08-0.6
			c-0.01-0.19-0.07-0.38-0.18-0.58c-0.09-0.16-0.2-0.29-0.33-0.39c-0.13-0.1-0.27-0.16-0.43-0.19c-0.15-0.03-0.31-0.03-0.47,0
			c-0.16,0.03-0.32,0.09-0.48,0.17c-0.21,0.11-0.36,0.25-0.47,0.41c-0.11,0.16-0.17,0.33-0.19,0.51c-0.02,0.18,0,0.37,0.05,0.56
			s0.13,0.38,0.24,0.57l-0.46,0.25c-0.15-0.26-0.25-0.52-0.3-0.77c-0.05-0.26-0.06-0.5-0.01-0.73c0.05-0.23,0.15-0.45,0.31-0.65
			c0.16-0.2,0.37-0.38,0.65-0.53c0.22-0.12,0.45-0.2,0.67-0.25s0.44-0.05,0.65-0.01c0.21,0.04,0.4,0.13,0.58,0.26
			c0.18,0.14,0.33,0.32,0.46,0.56c0.12,0.21,0.19,0.43,0.21,0.64c0.02,0.21,0.02,0.42-0.02,0.63c-0.04,0.21-0.1,0.42-0.19,0.62
			c-0.09,0.21-0.18,0.41-0.29,0.61c-0.08,0.15-0.17,0.32-0.28,0.51c-0.11,0.19-0.21,0.39-0.29,0.59c-0.09,0.2-0.15,0.41-0.19,0.62
			c-0.04,0.21-0.03,0.4,0.04,0.59l2.82-1.54l0.23,0.42L332.72,309.41z"/>
		<path class="st2" d="M336.75,300.87c0.32,0.04,0.61,0.15,0.88,0.33c0.27,0.18,0.51,0.41,0.72,0.7c0.22,0.28,0.4,0.57,0.56,0.87
			c0.16,0.3,0.31,0.62,0.43,0.95c0.12,0.33,0.19,0.66,0.2,0.98c0.01,0.32-0.06,0.63-0.2,0.91c-0.14,0.29-0.4,0.53-0.77,0.73
			c-0.37,0.2-0.71,0.28-1.03,0.25c-0.32-0.03-0.61-0.14-0.88-0.32c-0.27-0.18-0.51-0.41-0.72-0.7c-0.22-0.28-0.4-0.57-0.57-0.87
			c-0.16-0.3-0.31-0.62-0.43-0.95c-0.12-0.33-0.19-0.66-0.2-0.98c-0.01-0.32,0.06-0.63,0.2-0.92c0.14-0.29,0.4-0.53,0.77-0.73
			C336.09,300.92,336.43,300.83,336.75,300.87z M335.35,302.11c-0.09,0.25-0.12,0.5-0.09,0.78c0.03,0.27,0.1,0.55,0.22,0.82
			c0.11,0.28,0.23,0.52,0.35,0.74c0.12,0.22,0.27,0.46,0.44,0.7s0.36,0.45,0.57,0.63c0.21,0.18,0.45,0.29,0.7,0.35
			c0.26,0.05,0.53,0,0.82-0.16c0.29-0.16,0.48-0.36,0.57-0.61c0.09-0.25,0.12-0.5,0.09-0.78c-0.03-0.27-0.11-0.55-0.22-0.82
			s-0.23-0.52-0.35-0.75c-0.12-0.22-0.26-0.45-0.44-0.69c-0.17-0.25-0.36-0.45-0.57-0.63c-0.21-0.17-0.44-0.29-0.7-0.34
			c-0.26-0.05-0.53,0-0.82,0.16C335.64,301.66,335.44,301.86,335.35,302.11z"/>
		<path class="st2" d="M340.79,298.66c0.32,0.04,0.61,0.15,0.88,0.33c0.27,0.18,0.51,0.41,0.72,0.7c0.22,0.28,0.4,0.57,0.56,0.87
			c0.16,0.3,0.31,0.62,0.43,0.95c0.12,0.33,0.19,0.66,0.2,0.98c0.01,0.32-0.06,0.63-0.2,0.91c-0.14,0.29-0.4,0.53-0.77,0.73
			c-0.37,0.2-0.71,0.28-1.03,0.25c-0.32-0.03-0.61-0.14-0.88-0.32c-0.27-0.18-0.51-0.41-0.72-0.7c-0.22-0.28-0.4-0.57-0.57-0.87
			c-0.16-0.3-0.31-0.62-0.43-0.95c-0.12-0.33-0.19-0.66-0.2-0.98c-0.01-0.32,0.06-0.63,0.2-0.92c0.14-0.29,0.4-0.53,0.77-0.73
			C340.12,298.71,340.47,298.63,340.79,298.66z M339.39,299.9c-0.09,0.25-0.12,0.5-0.09,0.78c0.03,0.27,0.11,0.55,0.22,0.82
			c0.11,0.28,0.23,0.52,0.35,0.74c0.12,0.22,0.27,0.46,0.44,0.7s0.36,0.45,0.57,0.63c0.21,0.18,0.45,0.29,0.7,0.35
			c0.26,0.05,0.53,0,0.82-0.16s0.48-0.36,0.57-0.61c0.09-0.25,0.12-0.5,0.09-0.78c-0.03-0.27-0.11-0.55-0.22-0.82
			s-0.23-0.52-0.35-0.75c-0.12-0.22-0.26-0.45-0.44-0.69c-0.17-0.25-0.36-0.45-0.57-0.63c-0.21-0.17-0.44-0.29-0.7-0.34
			c-0.26-0.05-0.53,0-0.82,0.16C339.67,299.46,339.48,299.66,339.39,299.9z"/>
		<path class="st2" d="M346.19,297.96c-0.04,0.28-0.17,0.52-0.39,0.74l0.01,0.01c0.37-0.11,0.71-0.11,1.01,0.02
			c0.3,0.13,0.55,0.36,0.74,0.71c0.14,0.26,0.22,0.51,0.23,0.75c0.01,0.24-0.03,0.47-0.12,0.68c-0.09,0.21-0.22,0.41-0.4,0.59
			c-0.18,0.18-0.38,0.33-0.63,0.47c-0.24,0.13-0.48,0.22-0.73,0.27s-0.48,0.06-0.71,0.02c-0.23-0.04-0.44-0.13-0.64-0.27
			c-0.2-0.14-0.36-0.34-0.5-0.6c-0.17-0.34-0.23-0.68-0.19-1.01c0.05-0.33,0.22-0.62,0.51-0.85l-0.01-0.01
			c-0.31,0.06-0.59,0.04-0.84-0.07c-0.25-0.11-0.45-0.31-0.6-0.59c-0.12-0.22-0.18-0.43-0.18-0.64c0-0.21,0.05-0.4,0.14-0.59
			c0.09-0.18,0.21-0.35,0.37-0.5c0.16-0.15,0.33-0.28,0.52-0.38c0.19-0.1,0.39-0.18,0.6-0.23c0.21-0.05,0.42-0.06,0.62-0.04
			c0.2,0.02,0.39,0.09,0.57,0.2c0.18,0.11,0.32,0.27,0.44,0.49C346.17,297.41,346.22,297.69,346.19,297.96z M346.9,301.21
			c0.13-0.13,0.23-0.28,0.3-0.43c0.06-0.16,0.09-0.33,0.08-0.51s-0.07-0.37-0.18-0.56c-0.1-0.18-0.22-0.33-0.37-0.43
			c-0.15-0.1-0.3-0.16-0.47-0.19c-0.17-0.03-0.35-0.02-0.53,0.02c-0.18,0.04-0.36,0.11-0.52,0.21c-0.18,0.09-0.33,0.2-0.47,0.33
			c-0.13,0.13-0.23,0.27-0.3,0.43c-0.06,0.16-0.09,0.33-0.09,0.5c0.01,0.18,0.06,0.36,0.16,0.54c0.1,0.19,0.23,0.34,0.38,0.45
			c0.15,0.11,0.3,0.18,0.47,0.21c0.17,0.03,0.34,0.03,0.53-0.01c0.18-0.04,0.36-0.11,0.54-0.2
			C346.61,301.46,346.77,301.34,346.9,301.21z M345.38,298.65c0.11-0.11,0.19-0.23,0.25-0.36c0.06-0.13,0.08-0.27,0.08-0.43
			c-0.01-0.15-0.05-0.31-0.14-0.48c-0.08-0.15-0.18-0.26-0.29-0.34c-0.12-0.08-0.24-0.13-0.38-0.15c-0.14-0.02-0.28-0.01-0.43,0.02
			c-0.15,0.03-0.31,0.09-0.46,0.18c-0.14,0.08-0.27,0.17-0.37,0.28c-0.11,0.11-0.2,0.23-0.26,0.36c-0.06,0.13-0.09,0.26-0.09,0.41
			c0,0.14,0.04,0.29,0.12,0.43c0.09,0.17,0.2,0.3,0.33,0.38c0.13,0.09,0.27,0.14,0.41,0.16c0.14,0.02,0.29,0.01,0.44-0.02
			c0.15-0.04,0.29-0.1,0.42-0.17C345.14,298.85,345.26,298.76,345.38,298.65z"/>
	</g>
	<g>
		<path class="st2" d="M364.04,309.4c-0.13-0.25-0.21-0.5-0.23-0.74c-0.02-0.24-0.01-0.47,0.04-0.7c0.05-0.23,0.13-0.45,0.22-0.67
			c0.1-0.22,0.21-0.44,0.32-0.66c0.11-0.22,0.23-0.43,0.34-0.65c0.11-0.22,0.2-0.44,0.26-0.66c0.06-0.22,0.09-0.42,0.08-0.6
			c-0.01-0.19-0.07-0.38-0.18-0.58c-0.09-0.16-0.2-0.29-0.33-0.39c-0.13-0.1-0.27-0.16-0.42-0.19c-0.15-0.03-0.31-0.03-0.47,0
			s-0.32,0.09-0.48,0.17c-0.21,0.11-0.36,0.25-0.47,0.41c-0.11,0.16-0.17,0.33-0.19,0.51c-0.02,0.18-0.01,0.37,0.05,0.56
			c0.05,0.19,0.13,0.38,0.24,0.57l-0.46,0.25c-0.15-0.26-0.25-0.52-0.3-0.77c-0.06-0.26-0.06-0.5-0.01-0.73
			c0.05-0.23,0.15-0.45,0.31-0.65c0.16-0.2,0.37-0.38,0.65-0.53c0.22-0.12,0.45-0.2,0.67-0.25c0.22-0.04,0.44-0.05,0.65-0.01
			c0.21,0.04,0.4,0.13,0.58,0.26c0.18,0.14,0.33,0.32,0.46,0.56c0.12,0.21,0.19,0.43,0.21,0.64c0.02,0.21,0.02,0.42-0.02,0.63
			c-0.04,0.21-0.1,0.42-0.19,0.62c-0.09,0.21-0.18,0.41-0.29,0.61c-0.08,0.15-0.17,0.32-0.28,0.51c-0.11,0.19-0.21,0.39-0.29,0.59
			c-0.09,0.2-0.15,0.41-0.19,0.62c-0.04,0.21-0.03,0.4,0.04,0.59l2.82-1.54l0.23,0.42L364.04,309.4z"/>
		<path class="st2" d="M368.07,300.86c0.32,0.04,0.61,0.15,0.88,0.33s0.51,0.41,0.72,0.7c0.22,0.28,0.4,0.57,0.56,0.87
			c0.16,0.3,0.31,0.62,0.43,0.95c0.12,0.33,0.19,0.66,0.2,0.98c0.01,0.32-0.06,0.63-0.2,0.91c-0.14,0.29-0.4,0.53-0.77,0.73
			c-0.37,0.2-0.71,0.29-1.03,0.25c-0.32-0.03-0.61-0.14-0.88-0.32c-0.27-0.18-0.51-0.41-0.72-0.7c-0.22-0.28-0.4-0.57-0.56-0.87
			c-0.16-0.3-0.31-0.62-0.43-0.95c-0.12-0.33-0.19-0.66-0.2-0.98c-0.01-0.32,0.06-0.63,0.2-0.92c0.14-0.29,0.4-0.53,0.77-0.73
			C367.41,300.91,367.75,300.83,368.07,300.86z M366.67,302.1c-0.09,0.25-0.12,0.5-0.09,0.77c0.03,0.27,0.1,0.55,0.22,0.82
			c0.11,0.28,0.23,0.52,0.35,0.74c0.12,0.22,0.27,0.46,0.44,0.7c0.17,0.24,0.36,0.45,0.57,0.63c0.21,0.18,0.45,0.29,0.7,0.35
			c0.26,0.05,0.53,0,0.82-0.16c0.29-0.16,0.48-0.36,0.57-0.61c0.09-0.25,0.12-0.5,0.09-0.78c-0.03-0.27-0.11-0.55-0.22-0.82
			c-0.11-0.27-0.23-0.52-0.35-0.75c-0.12-0.22-0.26-0.45-0.44-0.69c-0.17-0.25-0.36-0.45-0.57-0.63c-0.21-0.17-0.44-0.29-0.7-0.34
			c-0.26-0.05-0.53,0-0.82,0.16C366.96,301.66,366.76,301.86,366.67,302.1z"/>
		<path class="st2" d="M372.11,298.66c0.32,0.04,0.61,0.15,0.88,0.33c0.27,0.18,0.51,0.41,0.72,0.7c0.22,0.28,0.4,0.57,0.56,0.87
			c0.16,0.3,0.31,0.62,0.43,0.95c0.12,0.33,0.19,0.66,0.2,0.98c0.01,0.32-0.06,0.63-0.2,0.91c-0.14,0.29-0.4,0.53-0.77,0.73
			c-0.37,0.2-0.71,0.29-1.03,0.25s-0.61-0.14-0.88-0.32c-0.27-0.18-0.51-0.41-0.72-0.7c-0.22-0.28-0.4-0.57-0.56-0.87
			c-0.16-0.3-0.31-0.62-0.43-0.95c-0.12-0.33-0.19-0.66-0.2-0.98c-0.01-0.32,0.06-0.63,0.2-0.92c0.14-0.29,0.4-0.53,0.77-0.73
			C371.44,298.7,371.79,298.62,372.11,298.66z M370.71,299.9c-0.09,0.25-0.12,0.5-0.09,0.77c0.03,0.27,0.11,0.55,0.22,0.82
			c0.11,0.28,0.23,0.52,0.35,0.74c0.12,0.22,0.27,0.46,0.44,0.7s0.36,0.45,0.57,0.63c0.21,0.18,0.45,0.29,0.7,0.35
			c0.26,0.05,0.53,0,0.82-0.16c0.29-0.16,0.48-0.36,0.57-0.61c0.09-0.25,0.12-0.5,0.09-0.78c-0.03-0.27-0.11-0.55-0.22-0.82
			c-0.11-0.27-0.23-0.52-0.35-0.75c-0.12-0.22-0.26-0.45-0.44-0.69c-0.17-0.25-0.36-0.45-0.57-0.63c-0.21-0.17-0.44-0.29-0.7-0.34
			c-0.26-0.05-0.53,0-0.82,0.16C370.99,299.45,370.8,299.65,370.71,299.9z"/>
		<path class="st2" d="M376.76,301.75c0.28,0.07,0.57,0.03,0.87-0.13c0.3-0.16,0.5-0.37,0.6-0.62c0.1-0.25,0.14-0.51,0.12-0.8
			c-0.02-0.28-0.09-0.57-0.2-0.85c-0.11-0.28-0.23-0.54-0.36-0.77l-0.01,0.01c0.02,0.32-0.06,0.62-0.21,0.91
			c-0.16,0.29-0.38,0.51-0.67,0.67c-0.25,0.14-0.5,0.22-0.76,0.25c-0.25,0.03-0.49,0.01-0.72-0.06c-0.23-0.07-0.44-0.19-0.63-0.35
			c-0.19-0.16-0.36-0.37-0.49-0.62c-0.13-0.25-0.22-0.5-0.25-0.76c-0.03-0.26-0.01-0.5,0.06-0.74c0.07-0.24,0.19-0.45,0.35-0.66
			c0.16-0.2,0.37-0.37,0.62-0.51c0.31-0.17,0.6-0.27,0.88-0.3c0.27-0.03,0.54,0.03,0.81,0.16c0.26,0.14,0.52,0.36,0.78,0.66
			c0.26,0.31,0.52,0.7,0.79,1.2c0.06,0.1,0.12,0.24,0.2,0.41c0.08,0.17,0.15,0.36,0.2,0.57s0.1,0.43,0.12,0.67
			c0.02,0.24,0.01,0.46-0.04,0.69c-0.05,0.23-0.15,0.44-0.29,0.65c-0.15,0.2-0.36,0.38-0.63,0.53c-0.45,0.25-0.87,0.34-1.26,0.27
			c-0.38-0.07-0.73-0.32-1.02-0.74l0.46-0.25C376.24,301.52,376.48,301.68,376.76,301.75z M377.15,299.39
			c0.12-0.16,0.2-0.32,0.24-0.5c0.04-0.18,0.05-0.37,0.02-0.56c-0.03-0.19-0.1-0.38-0.2-0.57c-0.1-0.18-0.22-0.34-0.35-0.47
			c-0.13-0.13-0.29-0.23-0.45-0.29c-0.17-0.06-0.35-0.08-0.55-0.06c-0.2,0.02-0.41,0.09-0.63,0.21c-0.18,0.1-0.32,0.22-0.44,0.37
			c-0.11,0.15-0.19,0.32-0.23,0.5c-0.04,0.18-0.05,0.36-0.02,0.55c0.03,0.19,0.09,0.37,0.19,0.55c0.1,0.18,0.22,0.34,0.37,0.48
			c0.15,0.13,0.3,0.23,0.47,0.3c0.17,0.06,0.35,0.09,0.54,0.08c0.19-0.01,0.38-0.07,0.58-0.18
			C376.87,299.68,377.03,299.54,377.15,299.39z"/>
	</g>
	<g>
		<path class="st2" d="M398.5,309.41c-0.13-0.25-0.21-0.5-0.23-0.74c-0.02-0.24-0.01-0.47,0.04-0.7c0.05-0.23,0.13-0.45,0.22-0.67
			c0.1-0.22,0.21-0.44,0.32-0.66c0.11-0.22,0.23-0.43,0.34-0.65c0.11-0.22,0.2-0.44,0.26-0.66c0.06-0.22,0.09-0.42,0.08-0.6
			c-0.01-0.19-0.07-0.38-0.18-0.58c-0.09-0.16-0.2-0.29-0.33-0.39c-0.13-0.1-0.27-0.16-0.43-0.19c-0.15-0.03-0.31-0.03-0.47,0
			c-0.16,0.03-0.32,0.09-0.48,0.17c-0.21,0.11-0.36,0.25-0.47,0.41c-0.11,0.16-0.17,0.33-0.19,0.51c-0.02,0.18-0.01,0.37,0.05,0.56
			c0.05,0.19,0.13,0.38,0.24,0.57l-0.46,0.25c-0.15-0.26-0.25-0.52-0.3-0.77c-0.06-0.26-0.06-0.5-0.01-0.73
			c0.05-0.23,0.15-0.45,0.31-0.65c0.16-0.2,0.37-0.38,0.65-0.53c0.22-0.12,0.45-0.2,0.67-0.25c0.22-0.04,0.44-0.05,0.65-0.01
			c0.21,0.04,0.4,0.13,0.58,0.26c0.18,0.14,0.33,0.32,0.46,0.56c0.12,0.21,0.19,0.43,0.21,0.64c0.02,0.21,0.02,0.42-0.02,0.63
			c-0.04,0.21-0.1,0.42-0.19,0.62c-0.09,0.21-0.18,0.41-0.29,0.61c-0.08,0.15-0.17,0.32-0.28,0.51c-0.11,0.19-0.21,0.39-0.29,0.59
			c-0.09,0.2-0.15,0.41-0.19,0.62c-0.04,0.21-0.03,0.4,0.04,0.59l2.82-1.54l0.23,0.42L398.5,309.41z"/>
		<path class="st2" d="M402.53,300.87c0.32,0.04,0.61,0.15,0.88,0.33c0.27,0.18,0.51,0.41,0.72,0.7c0.22,0.28,0.4,0.57,0.56,0.87
			c0.16,0.3,0.31,0.62,0.43,0.95c0.12,0.33,0.19,0.66,0.2,0.98c0.01,0.32-0.06,0.63-0.2,0.91c-0.14,0.29-0.4,0.53-0.77,0.73
			c-0.37,0.2-0.71,0.28-1.03,0.25s-0.61-0.14-0.88-0.32c-0.27-0.18-0.51-0.41-0.72-0.7c-0.22-0.28-0.4-0.57-0.56-0.87
			c-0.16-0.3-0.31-0.62-0.43-0.95c-0.12-0.33-0.19-0.66-0.2-0.98c-0.01-0.32,0.06-0.63,0.2-0.92c0.14-0.29,0.4-0.53,0.77-0.73
			C401.86,300.92,402.21,300.84,402.53,300.87z M401.13,302.12c-0.09,0.25-0.12,0.5-0.09,0.78c0.03,0.27,0.11,0.55,0.22,0.82
			c0.11,0.28,0.23,0.52,0.35,0.74c0.12,0.22,0.27,0.46,0.44,0.7s0.36,0.45,0.57,0.63c0.21,0.18,0.45,0.29,0.7,0.35
			c0.26,0.05,0.53,0,0.82-0.16c0.29-0.16,0.48-0.36,0.57-0.61c0.09-0.25,0.12-0.5,0.09-0.78c-0.03-0.27-0.11-0.55-0.22-0.82
			c-0.11-0.27-0.23-0.52-0.35-0.75c-0.12-0.22-0.26-0.45-0.44-0.69c-0.17-0.25-0.36-0.45-0.57-0.63c-0.21-0.17-0.44-0.29-0.7-0.34
			c-0.26-0.05-0.53,0-0.82,0.16C401.41,301.67,401.22,301.87,401.13,302.12z"/>
		<path class="st2" d="M405.3,300.33c0.15-0.11,0.27-0.22,0.36-0.35c0.08-0.13,0.13-0.28,0.14-0.45c0.01-0.17-0.03-0.38-0.13-0.63
			l0.37-0.2l2.78,5.08l-0.46,0.25l-2.06-3.77l-1.34,0.73l-0.18-0.33C404.97,300.55,405.14,300.44,405.3,300.33z"/>
		<path class="st2" d="M410.6,296.46c0.32,0.04,0.61,0.15,0.88,0.33c0.27,0.18,0.51,0.41,0.72,0.7c0.22,0.28,0.4,0.57,0.56,0.87
			c0.16,0.3,0.31,0.62,0.43,0.95c0.12,0.33,0.19,0.66,0.2,0.98c0.01,0.32-0.06,0.63-0.2,0.91c-0.14,0.29-0.4,0.53-0.77,0.73
			c-0.37,0.2-0.71,0.28-1.03,0.25s-0.61-0.14-0.88-0.32c-0.27-0.18-0.51-0.41-0.72-0.7c-0.22-0.28-0.4-0.57-0.56-0.87
			c-0.16-0.3-0.31-0.62-0.43-0.95c-0.12-0.33-0.19-0.66-0.2-0.98c-0.01-0.32,0.06-0.63,0.2-0.92c0.14-0.29,0.4-0.53,0.77-0.73
			C409.93,296.51,410.28,296.43,410.6,296.46z M409.2,297.7c-0.09,0.25-0.12,0.5-0.09,0.78c0.03,0.27,0.11,0.55,0.22,0.82
			c0.11,0.28,0.23,0.52,0.35,0.74c0.12,0.22,0.27,0.46,0.44,0.7s0.36,0.45,0.57,0.63c0.21,0.18,0.45,0.29,0.7,0.35
			c0.26,0.05,0.53,0,0.82-0.16c0.29-0.16,0.48-0.36,0.57-0.61c0.09-0.25,0.12-0.5,0.09-0.78c-0.03-0.27-0.11-0.55-0.22-0.82
			c-0.11-0.27-0.23-0.52-0.35-0.75c-0.12-0.22-0.26-0.45-0.44-0.69c-0.17-0.25-0.36-0.45-0.57-0.63c-0.21-0.17-0.44-0.29-0.7-0.34
			c-0.26-0.05-0.53,0-0.82,0.16C409.48,297.26,409.29,297.46,409.2,297.7z"/>
	</g>
	<g>
		<path class="st2" d="M428.2,309.25c-0.13-0.25-0.21-0.5-0.23-0.74c-0.02-0.24-0.01-0.47,0.04-0.7c0.05-0.23,0.13-0.45,0.23-0.67
			c0.1-0.22,0.21-0.44,0.32-0.66c0.11-0.22,0.23-0.43,0.33-0.65c0.11-0.22,0.2-0.44,0.26-0.66c0.06-0.22,0.09-0.42,0.08-0.6
			c-0.01-0.19-0.07-0.38-0.18-0.58c-0.09-0.16-0.2-0.29-0.33-0.39c-0.13-0.1-0.27-0.16-0.43-0.19c-0.15-0.03-0.31-0.03-0.47,0
			c-0.16,0.03-0.32,0.09-0.48,0.17c-0.21,0.11-0.36,0.25-0.47,0.41c-0.11,0.16-0.17,0.33-0.19,0.51c-0.02,0.18,0,0.37,0.05,0.56
			c0.05,0.19,0.13,0.38,0.24,0.57l-0.46,0.25c-0.15-0.26-0.25-0.52-0.3-0.77c-0.05-0.26-0.06-0.5-0.01-0.73
			c0.05-0.23,0.15-0.45,0.31-0.65c0.16-0.2,0.37-0.38,0.65-0.53c0.22-0.12,0.45-0.2,0.67-0.25c0.22-0.04,0.44-0.05,0.65-0.01
			c0.21,0.04,0.4,0.13,0.58,0.26c0.18,0.14,0.33,0.32,0.46,0.56c0.12,0.21,0.19,0.43,0.21,0.64c0.02,0.21,0.02,0.42-0.02,0.63
			c-0.04,0.21-0.1,0.42-0.19,0.62s-0.18,0.41-0.29,0.61c-0.08,0.15-0.17,0.32-0.28,0.51c-0.11,0.19-0.21,0.39-0.3,0.59
			c-0.09,0.2-0.15,0.41-0.19,0.62c-0.04,0.21-0.03,0.4,0.04,0.59l2.82-1.54l0.23,0.42L428.2,309.25z"/>
		<path class="st2" d="M432.23,300.71c0.32,0.04,0.61,0.15,0.88,0.33c0.27,0.18,0.51,0.41,0.72,0.7c0.22,0.28,0.4,0.57,0.56,0.87
			c0.16,0.3,0.31,0.62,0.43,0.95c0.12,0.33,0.19,0.66,0.2,0.98c0.01,0.32-0.06,0.63-0.2,0.91c-0.14,0.29-0.4,0.53-0.77,0.73
			c-0.37,0.2-0.71,0.29-1.03,0.25c-0.32-0.03-0.61-0.14-0.88-0.32c-0.27-0.18-0.51-0.41-0.72-0.7c-0.22-0.28-0.4-0.57-0.57-0.87
			c-0.16-0.3-0.31-0.62-0.43-0.95c-0.12-0.33-0.19-0.66-0.2-0.98c-0.01-0.32,0.06-0.63,0.2-0.92c0.14-0.29,0.4-0.53,0.77-0.74
			C431.57,300.75,431.91,300.67,432.23,300.71z M430.83,301.95c-0.09,0.25-0.12,0.5-0.09,0.77c0.03,0.27,0.1,0.55,0.22,0.82
			c0.11,0.28,0.23,0.52,0.35,0.74c0.12,0.22,0.27,0.46,0.44,0.7s0.36,0.45,0.57,0.63c0.21,0.18,0.45,0.29,0.7,0.35
			c0.26,0.05,0.53,0,0.82-0.16c0.29-0.16,0.48-0.36,0.57-0.61c0.09-0.25,0.12-0.5,0.09-0.78c-0.03-0.27-0.11-0.55-0.22-0.82
			c-0.11-0.27-0.23-0.52-0.35-0.75c-0.12-0.22-0.26-0.45-0.44-0.69c-0.17-0.25-0.36-0.45-0.57-0.63c-0.21-0.17-0.44-0.29-0.7-0.34
			c-0.26-0.05-0.53,0-0.82,0.16C431.11,301.5,430.92,301.7,430.83,301.95z"/>
		<path class="st2" d="M435,300.17c0.15-0.11,0.27-0.22,0.36-0.35c0.08-0.13,0.13-0.28,0.14-0.45c0.01-0.17-0.03-0.38-0.12-0.63
			l0.37-0.2l2.78,5.08l-0.46,0.25l-2.06-3.77l-1.34,0.73l-0.18-0.33C434.67,300.38,434.84,300.27,435,300.17z"/>
		<path class="st2" d="M439.03,297.96c0.15-0.11,0.27-0.22,0.36-0.35c0.08-0.13,0.13-0.28,0.14-0.45c0.01-0.17-0.03-0.38-0.12-0.63
			l0.37-0.2l2.78,5.08l-0.46,0.25l-2.06-3.77l-1.34,0.73l-0.18-0.33C438.7,298.17,438.88,298.07,439.03,297.96z"/>
	</g>
	<g>
		<path class="st2" d="M458.09,309.73c-0.13-0.25-0.21-0.5-0.23-0.74c-0.02-0.24-0.01-0.47,0.04-0.7c0.05-0.23,0.13-0.45,0.22-0.67
			c0.1-0.22,0.21-0.44,0.32-0.66c0.11-0.22,0.23-0.43,0.34-0.65s0.2-0.44,0.26-0.66c0.06-0.22,0.09-0.42,0.08-0.6
			c-0.01-0.19-0.07-0.38-0.18-0.58c-0.09-0.16-0.2-0.29-0.33-0.39c-0.13-0.09-0.27-0.16-0.43-0.19c-0.15-0.03-0.31-0.03-0.47-0.01
			c-0.16,0.03-0.32,0.09-0.48,0.17c-0.21,0.11-0.36,0.25-0.47,0.41c-0.11,0.16-0.17,0.33-0.19,0.51c-0.02,0.18-0.01,0.37,0.05,0.56
			s0.13,0.38,0.24,0.57l-0.46,0.25c-0.15-0.26-0.25-0.52-0.3-0.77c-0.06-0.26-0.06-0.5-0.01-0.73c0.05-0.23,0.15-0.45,0.31-0.65
			c0.16-0.2,0.37-0.38,0.65-0.53c0.22-0.12,0.45-0.2,0.67-0.25c0.22-0.04,0.44-0.05,0.65-0.01c0.21,0.04,0.4,0.13,0.58,0.26
			c0.18,0.14,0.33,0.32,0.46,0.56c0.12,0.21,0.19,0.43,0.21,0.64c0.02,0.21,0.02,0.42-0.02,0.63c-0.04,0.21-0.1,0.42-0.19,0.62
			c-0.09,0.21-0.18,0.41-0.29,0.61c-0.08,0.15-0.17,0.32-0.28,0.51c-0.11,0.19-0.21,0.39-0.29,0.59c-0.09,0.2-0.15,0.41-0.19,0.62
			c-0.04,0.21-0.03,0.4,0.04,0.59l2.82-1.54l0.23,0.42L458.09,309.73z"/>
		<path class="st2" d="M462.11,301.19c0.32,0.04,0.61,0.15,0.88,0.33c0.27,0.18,0.51,0.41,0.72,0.7c0.22,0.28,0.4,0.57,0.56,0.87
			c0.16,0.3,0.31,0.62,0.43,0.95c0.12,0.33,0.19,0.66,0.2,0.98c0.01,0.32-0.06,0.63-0.2,0.91c-0.14,0.29-0.4,0.53-0.77,0.73
			c-0.37,0.2-0.71,0.29-1.03,0.25s-0.61-0.14-0.88-0.32c-0.27-0.18-0.51-0.41-0.72-0.7c-0.22-0.28-0.4-0.57-0.56-0.87
			c-0.16-0.3-0.31-0.62-0.43-0.95c-0.12-0.33-0.19-0.66-0.2-0.98c-0.01-0.32,0.06-0.63,0.2-0.92c0.14-0.29,0.4-0.53,0.77-0.73
			C461.45,301.24,461.79,301.16,462.11,301.19z M460.71,302.43c-0.09,0.25-0.12,0.5-0.09,0.78c0.03,0.27,0.11,0.55,0.22,0.82
			c0.11,0.28,0.23,0.52,0.35,0.74c0.12,0.22,0.27,0.46,0.44,0.7c0.17,0.24,0.36,0.45,0.57,0.63c0.21,0.18,0.45,0.29,0.7,0.35
			c0.26,0.05,0.53,0,0.82-0.16c0.29-0.16,0.48-0.36,0.57-0.61c0.09-0.25,0.12-0.5,0.09-0.78c-0.03-0.27-0.11-0.55-0.22-0.82
			s-0.23-0.52-0.35-0.75c-0.12-0.22-0.26-0.45-0.44-0.69c-0.17-0.25-0.36-0.45-0.57-0.63c-0.21-0.17-0.44-0.29-0.7-0.34
			c-0.26-0.05-0.53,0-0.82,0.16C461,301.99,460.8,302.19,460.71,302.43z"/>
		<path class="st2" d="M464.88,300.65c0.15-0.11,0.27-0.22,0.36-0.35c0.08-0.13,0.13-0.28,0.14-0.45c0.01-0.17-0.03-0.38-0.13-0.63
			l0.37-0.2l2.78,5.08l-0.46,0.25l-2.06-3.77l-1.34,0.73l-0.18-0.33C464.55,300.87,464.73,300.76,464.88,300.65z"/>
		<path class="st2" d="M470.19,303.12c-0.13-0.25-0.21-0.5-0.23-0.74c-0.02-0.24-0.01-0.47,0.04-0.7c0.05-0.23,0.13-0.45,0.22-0.67
			c0.1-0.22,0.21-0.44,0.32-0.66c0.11-0.22,0.23-0.43,0.34-0.65c0.11-0.22,0.2-0.44,0.26-0.66c0.06-0.22,0.09-0.42,0.08-0.6
			c-0.01-0.19-0.07-0.38-0.18-0.58c-0.09-0.16-0.2-0.29-0.33-0.39c-0.13-0.09-0.27-0.16-0.43-0.19c-0.15-0.03-0.31-0.03-0.47-0.01
			c-0.16,0.03-0.32,0.09-0.48,0.17c-0.21,0.11-0.36,0.25-0.47,0.41c-0.11,0.16-0.17,0.33-0.19,0.51c-0.02,0.18-0.01,0.37,0.05,0.56
			c0.05,0.19,0.13,0.38,0.24,0.57l-0.46,0.25c-0.15-0.26-0.25-0.52-0.3-0.77c-0.06-0.26-0.06-0.5-0.01-0.73
			c0.05-0.23,0.15-0.45,0.31-0.65c0.16-0.2,0.37-0.38,0.65-0.53c0.22-0.12,0.45-0.2,0.67-0.25c0.22-0.04,0.44-0.05,0.65-0.01
			c0.21,0.04,0.4,0.13,0.58,0.26c0.18,0.14,0.33,0.32,0.46,0.56c0.12,0.21,0.19,0.43,0.21,0.64c0.02,0.21,0.02,0.42-0.02,0.63
			c-0.04,0.21-0.1,0.42-0.19,0.62c-0.09,0.21-0.18,0.41-0.29,0.61c-0.08,0.15-0.17,0.32-0.28,0.51c-0.11,0.19-0.21,0.39-0.29,0.59
			c-0.09,0.2-0.15,0.41-0.19,0.62c-0.04,0.21-0.03,0.4,0.04,0.59l2.82-1.54l0.23,0.42L470.19,303.12z"/>
	</g>
	<g>
		<path class="st2" d="M486.97,309.76c-0.13-0.25-0.21-0.5-0.23-0.74c-0.02-0.24-0.01-0.47,0.04-0.7c0.05-0.23,0.13-0.45,0.22-0.67
			c0.1-0.22,0.21-0.44,0.32-0.66c0.11-0.22,0.23-0.43,0.34-0.65c0.11-0.22,0.2-0.44,0.26-0.66c0.06-0.22,0.09-0.42,0.08-0.6
			c-0.01-0.19-0.07-0.38-0.18-0.58c-0.09-0.16-0.2-0.29-0.33-0.39c-0.13-0.1-0.27-0.16-0.42-0.19c-0.15-0.03-0.31-0.03-0.47,0
			c-0.16,0.03-0.32,0.09-0.48,0.17c-0.21,0.11-0.36,0.25-0.47,0.41c-0.11,0.16-0.17,0.33-0.19,0.51c-0.02,0.18-0.01,0.37,0.05,0.56
			c0.05,0.19,0.13,0.38,0.24,0.57l-0.46,0.25c-0.15-0.26-0.25-0.52-0.3-0.77c-0.06-0.26-0.06-0.5-0.01-0.73
			c0.05-0.23,0.15-0.45,0.31-0.65c0.16-0.2,0.37-0.38,0.65-0.53c0.22-0.12,0.45-0.2,0.67-0.25c0.22-0.04,0.44-0.05,0.65-0.01
			c0.21,0.04,0.4,0.13,0.58,0.26c0.18,0.14,0.33,0.32,0.46,0.56c0.12,0.21,0.19,0.43,0.21,0.64c0.02,0.21,0.02,0.42-0.02,0.63
			c-0.04,0.21-0.1,0.42-0.19,0.62c-0.09,0.21-0.18,0.41-0.29,0.61c-0.08,0.15-0.17,0.32-0.28,0.51c-0.11,0.19-0.21,0.39-0.29,0.59
			c-0.09,0.2-0.15,0.41-0.19,0.62c-0.04,0.21-0.03,0.4,0.04,0.59l2.82-1.54l0.23,0.42L486.97,309.76z"/>
		<path class="st2" d="M491,301.22c0.32,0.04,0.61,0.15,0.88,0.33c0.27,0.18,0.51,0.41,0.72,0.7c0.22,0.28,0.4,0.57,0.56,0.87
			c0.16,0.3,0.31,0.62,0.43,0.95c0.12,0.33,0.19,0.66,0.2,0.98c0.01,0.32-0.06,0.63-0.2,0.91c-0.14,0.29-0.4,0.53-0.77,0.73
			c-0.37,0.2-0.71,0.29-1.03,0.25s-0.61-0.14-0.88-0.32c-0.27-0.18-0.51-0.41-0.72-0.7c-0.22-0.28-0.4-0.57-0.56-0.87
			c-0.16-0.3-0.31-0.62-0.43-0.95c-0.12-0.33-0.19-0.66-0.2-0.98c-0.01-0.32,0.06-0.63,0.2-0.92c0.14-0.29,0.4-0.53,0.77-0.74
			C490.33,301.27,490.68,301.19,491,301.22z M489.6,302.46c-0.09,0.25-0.12,0.5-0.09,0.77c0.03,0.27,0.1,0.55,0.22,0.82
			c0.11,0.28,0.23,0.52,0.35,0.74c0.12,0.22,0.27,0.46,0.44,0.7s0.36,0.45,0.57,0.63c0.21,0.18,0.45,0.29,0.7,0.35
			c0.26,0.05,0.53,0,0.82-0.16c0.29-0.16,0.48-0.36,0.57-0.61c0.09-0.25,0.12-0.5,0.09-0.78c-0.03-0.27-0.11-0.55-0.22-0.82
			c-0.11-0.27-0.23-0.52-0.35-0.75c-0.12-0.22-0.26-0.45-0.44-0.69c-0.17-0.25-0.36-0.45-0.57-0.63c-0.21-0.17-0.44-0.29-0.7-0.34
			c-0.26-0.05-0.53,0-0.82,0.16C489.88,302.02,489.69,302.22,489.6,302.46z"/>
		<path class="st2" d="M493.76,300.68c0.15-0.11,0.27-0.22,0.36-0.35c0.08-0.13,0.13-0.28,0.14-0.45c0.01-0.17-0.03-0.38-0.13-0.63
			l0.37-0.2l2.78,5.08l-0.46,0.25l-2.06-3.77l-1.34,0.73l-0.18-0.33C493.44,300.9,493.61,300.79,493.76,300.68z"/>
		<path class="st2" d="M499,301.8c0.15,0.13,0.3,0.23,0.48,0.29s0.36,0.07,0.56,0.05c0.2-0.02,0.4-0.09,0.6-0.2
			c0.17-0.09,0.32-0.21,0.45-0.34c0.13-0.13,0.23-0.28,0.29-0.44c0.07-0.16,0.1-0.33,0.1-0.51c0-0.18-0.05-0.36-0.15-0.54
			c-0.1-0.18-0.22-0.32-0.35-0.42c-0.14-0.1-0.28-0.16-0.44-0.19c-0.16-0.03-0.33-0.02-0.5,0.01c-0.17,0.04-0.34,0.1-0.51,0.19
			l-0.38,0.21l-0.21-0.38l0.38-0.21c0.12-0.06,0.23-0.15,0.33-0.25c0.1-0.1,0.18-0.22,0.24-0.35c0.06-0.13,0.09-0.27,0.09-0.42
			c0-0.15-0.04-0.31-0.13-0.47c-0.09-0.17-0.2-0.3-0.32-0.38c-0.12-0.09-0.26-0.14-0.4-0.17c-0.15-0.02-0.29-0.02-0.45,0.02
			c-0.15,0.04-0.31,0.1-0.46,0.18c-0.19,0.1-0.34,0.23-0.45,0.37c-0.11,0.14-0.18,0.3-0.22,0.47c-0.04,0.17-0.04,0.34,0,0.53
			c0.04,0.18,0.11,0.37,0.22,0.55l-0.46,0.25c-0.13-0.24-0.22-0.49-0.25-0.73c-0.04-0.24-0.03-0.48,0.03-0.7
			c0.06-0.22,0.16-0.43,0.31-0.62c0.15-0.19,0.35-0.36,0.6-0.49c0.2-0.11,0.41-0.19,0.62-0.24c0.22-0.05,0.43-0.07,0.63-0.04
			c0.2,0.02,0.4,0.09,0.57,0.2c0.18,0.11,0.33,0.28,0.45,0.51c0.15,0.28,0.21,0.56,0.17,0.84c-0.04,0.28-0.17,0.54-0.41,0.75
			l0.01,0.01c0.36-0.13,0.7-0.13,1-0.01c0.3,0.13,0.55,0.36,0.73,0.69c0.14,0.25,0.21,0.5,0.22,0.74c0.01,0.24-0.03,0.47-0.12,0.69
			c-0.09,0.22-0.22,0.42-0.4,0.6c-0.18,0.18-0.38,0.34-0.61,0.46c-0.26,0.14-0.52,0.24-0.79,0.28c-0.26,0.04-0.51,0.03-0.75-0.02
			c-0.24-0.06-0.45-0.17-0.65-0.34c-0.2-0.17-0.36-0.4-0.49-0.68l0.46-0.25C498.73,301.5,498.85,301.67,499,301.8z"/>
	</g>
	<g>
		<path class="st2" d="M516.96,309.77c-0.13-0.25-0.21-0.5-0.23-0.74c-0.02-0.24-0.01-0.47,0.04-0.7c0.05-0.23,0.13-0.45,0.22-0.67
			c0.1-0.22,0.21-0.44,0.32-0.66c0.11-0.22,0.23-0.43,0.34-0.65c0.11-0.22,0.2-0.44,0.26-0.66c0.06-0.22,0.09-0.42,0.08-0.6
			c-0.01-0.19-0.07-0.38-0.18-0.58c-0.09-0.16-0.2-0.29-0.33-0.39c-0.13-0.1-0.27-0.16-0.42-0.19c-0.15-0.03-0.31-0.03-0.47,0
			c-0.16,0.03-0.32,0.09-0.48,0.17c-0.21,0.11-0.36,0.25-0.47,0.41c-0.11,0.16-0.17,0.33-0.19,0.51c-0.02,0.18-0.01,0.37,0.05,0.56
			c0.05,0.19,0.13,0.38,0.24,0.57l-0.46,0.25c-0.15-0.26-0.25-0.52-0.3-0.77c-0.06-0.26-0.06-0.5-0.01-0.73
			c0.05-0.23,0.15-0.45,0.31-0.65c0.16-0.2,0.37-0.38,0.65-0.53c0.22-0.12,0.45-0.2,0.67-0.25c0.22-0.04,0.44-0.05,0.65-0.01
			c0.21,0.04,0.4,0.13,0.58,0.26c0.18,0.14,0.33,0.32,0.46,0.56c0.12,0.21,0.19,0.43,0.21,0.64c0.02,0.21,0.02,0.42-0.02,0.63
			c-0.04,0.21-0.1,0.42-0.19,0.62c-0.09,0.21-0.18,0.41-0.29,0.61c-0.08,0.15-0.17,0.32-0.28,0.51c-0.11,0.19-0.21,0.39-0.29,0.59
			c-0.09,0.2-0.15,0.41-0.19,0.62c-0.04,0.21-0.03,0.4,0.04,0.59l2.82-1.54l0.23,0.42L516.96,309.77z"/>
		<path class="st2" d="M520.99,301.23c0.32,0.04,0.61,0.15,0.88,0.33c0.27,0.18,0.51,0.41,0.72,0.7c0.22,0.28,0.4,0.57,0.56,0.87
			c0.16,0.3,0.31,0.62,0.43,0.95c0.12,0.33,0.19,0.66,0.2,0.98c0.01,0.32-0.06,0.63-0.2,0.91c-0.14,0.29-0.4,0.53-0.77,0.73
			c-0.37,0.2-0.71,0.29-1.03,0.25c-0.32-0.03-0.61-0.14-0.88-0.32c-0.27-0.18-0.51-0.41-0.72-0.7c-0.22-0.28-0.4-0.57-0.56-0.87
			c-0.16-0.3-0.31-0.62-0.43-0.95c-0.12-0.33-0.19-0.66-0.2-0.98c-0.01-0.32,0.06-0.63,0.2-0.92c0.14-0.29,0.4-0.53,0.77-0.74
			C520.33,301.28,520.67,301.19,520.99,301.23z M519.59,302.47c-0.09,0.25-0.12,0.5-0.09,0.77c0.03,0.27,0.1,0.55,0.22,0.82
			c0.11,0.28,0.23,0.52,0.35,0.74c0.12,0.22,0.27,0.46,0.44,0.7c0.17,0.24,0.36,0.45,0.57,0.63c0.21,0.18,0.45,0.29,0.7,0.35
			c0.26,0.05,0.53,0,0.82-0.16c0.29-0.16,0.48-0.36,0.57-0.61c0.09-0.25,0.12-0.5,0.09-0.78c-0.03-0.27-0.11-0.55-0.22-0.82
			c-0.11-0.27-0.23-0.52-0.35-0.75c-0.12-0.22-0.26-0.45-0.44-0.69c-0.17-0.25-0.36-0.45-0.57-0.63c-0.21-0.17-0.44-0.29-0.7-0.34
			c-0.26-0.05-0.53,0-0.82,0.16C519.88,302.02,519.68,302.23,519.59,302.47z"/>
		<path class="st2" d="M523.76,300.69c0.15-0.11,0.27-0.22,0.36-0.35c0.08-0.13,0.13-0.28,0.14-0.45c0.01-0.17-0.03-0.38-0.13-0.63
			l0.37-0.2l2.78,5.08l-0.46,0.25l-2.06-3.77l-1.34,0.73l-0.18-0.33C523.43,300.9,523.61,300.79,523.76,300.69z"/>
		<path class="st2" d="M528.6,296.81l0.41-0.23l1.88,3.43l0.76-0.42l0.21,0.38l-0.76,0.42l0.69,1.26l-0.42,0.23l-0.69-1.26
			l-2.34,1.28l-0.24-0.44L528.6,296.81z M528.96,297.48l-0.01,0.01l-0.4,3.81l1.93-1.06L528.96,297.48z"/>
	</g>
	<g>
		<path class="st2" d="M548.67,309.76c-0.13-0.25-0.21-0.5-0.23-0.74c-0.02-0.24-0.01-0.47,0.04-0.7c0.05-0.23,0.13-0.45,0.22-0.67
			c0.1-0.22,0.21-0.44,0.32-0.66c0.11-0.22,0.23-0.43,0.34-0.65c0.11-0.22,0.2-0.44,0.26-0.66c0.06-0.22,0.09-0.42,0.08-0.6
			c-0.01-0.19-0.07-0.38-0.18-0.58c-0.09-0.16-0.2-0.29-0.33-0.39c-0.13-0.1-0.27-0.16-0.42-0.19c-0.15-0.03-0.31-0.03-0.47,0
			c-0.16,0.03-0.32,0.09-0.48,0.17c-0.21,0.11-0.36,0.25-0.47,0.41c-0.11,0.16-0.17,0.33-0.19,0.51c-0.02,0.18-0.01,0.37,0.05,0.56
			c0.05,0.19,0.13,0.38,0.24,0.57l-0.46,0.25c-0.15-0.26-0.25-0.52-0.3-0.77c-0.06-0.26-0.06-0.5-0.01-0.73
			c0.05-0.23,0.15-0.45,0.31-0.65c0.16-0.2,0.37-0.38,0.65-0.53c0.22-0.12,0.45-0.2,0.67-0.25c0.22-0.04,0.44-0.05,0.65-0.01
			c0.21,0.04,0.4,0.13,0.58,0.26c0.18,0.14,0.33,0.32,0.46,0.56c0.12,0.21,0.19,0.43,0.21,0.64c0.03,0.21,0.02,0.42-0.02,0.63
			c-0.04,0.21-0.1,0.42-0.19,0.62c-0.09,0.21-0.18,0.41-0.29,0.61c-0.08,0.15-0.17,0.32-0.28,0.51c-0.11,0.19-0.21,0.39-0.29,0.59
			c-0.09,0.2-0.15,0.41-0.19,0.62c-0.04,0.21-0.03,0.4,0.04,0.59l2.82-1.54l0.23,0.42L548.67,309.76z"/>
		<path class="st2" d="M552.7,301.22c0.32,0.04,0.61,0.15,0.88,0.33c0.27,0.18,0.51,0.41,0.72,0.7c0.22,0.28,0.4,0.57,0.56,0.87
			c0.16,0.3,0.31,0.62,0.43,0.95c0.12,0.33,0.19,0.66,0.2,0.98c0.01,0.32-0.06,0.63-0.2,0.91c-0.14,0.29-0.4,0.53-0.77,0.73
			c-0.37,0.2-0.71,0.29-1.03,0.25c-0.32-0.03-0.61-0.14-0.88-0.32c-0.27-0.18-0.51-0.41-0.72-0.7c-0.22-0.28-0.4-0.57-0.56-0.87
			c-0.16-0.3-0.31-0.62-0.43-0.95c-0.12-0.33-0.19-0.66-0.2-0.98c-0.01-0.32,0.06-0.63,0.2-0.92c0.14-0.29,0.4-0.53,0.77-0.74
			C552.04,301.26,552.38,301.18,552.7,301.22z M551.3,302.46c-0.09,0.25-0.12,0.5-0.09,0.77c0.03,0.27,0.11,0.55,0.22,0.82
			c0.11,0.28,0.23,0.52,0.35,0.74c0.12,0.22,0.27,0.46,0.44,0.7c0.17,0.24,0.36,0.45,0.57,0.63c0.21,0.18,0.45,0.29,0.7,0.35
			c0.26,0.05,0.53,0,0.82-0.16c0.29-0.16,0.48-0.36,0.57-0.61c0.09-0.25,0.12-0.5,0.09-0.78c-0.03-0.27-0.11-0.55-0.22-0.82
			c-0.11-0.27-0.23-0.52-0.35-0.75c-0.12-0.22-0.26-0.45-0.44-0.69c-0.17-0.25-0.36-0.45-0.57-0.63c-0.21-0.17-0.44-0.29-0.7-0.34
			c-0.26-0.05-0.53,0-0.82,0.16C551.59,302.01,551.39,302.21,551.3,302.46z"/>
		<path class="st2" d="M555.47,300.67c0.15-0.11,0.27-0.22,0.36-0.35c0.08-0.13,0.13-0.28,0.14-0.45c0.01-0.17-0.03-0.38-0.13-0.63
			l0.37-0.2l2.78,5.08l-0.46,0.25l-2.06-3.77l-1.34,0.73l-0.18-0.33C555.14,300.89,555.32,300.78,555.47,300.67z"/>
		<path class="st2" d="M560.81,301.86c0.14,0.11,0.3,0.19,0.47,0.23c0.17,0.04,0.34,0.05,0.52,0.03c0.18-0.03,0.36-0.09,0.53-0.18
			c0.2-0.11,0.35-0.24,0.47-0.4c0.11-0.16,0.19-0.33,0.23-0.52c0.04-0.19,0.05-0.38,0.01-0.58c-0.03-0.2-0.1-0.39-0.2-0.57
			c-0.1-0.19-0.23-0.34-0.38-0.47c-0.15-0.12-0.32-0.21-0.5-0.27c-0.18-0.06-0.37-0.07-0.56-0.06c-0.2,0.02-0.39,0.08-0.58,0.18
			c-0.23,0.13-0.42,0.3-0.56,0.51c-0.14,0.21-0.22,0.45-0.24,0.71l-0.39,0.21l-0.95-2.9l2.54-1.39l0.23,0.42l-2.22,1.21l0.59,1.86
			l0.02,0.01c0.04-0.22,0.14-0.42,0.29-0.61c0.15-0.19,0.32-0.34,0.53-0.45c0.26-0.14,0.52-0.23,0.78-0.26
			c0.26-0.03,0.5,0,0.74,0.07c0.23,0.07,0.45,0.2,0.64,0.37c0.2,0.17,0.37,0.39,0.51,0.64c0.13,0.25,0.21,0.5,0.24,0.76
			c0.02,0.26,0,0.51-0.08,0.75c-0.08,0.24-0.2,0.46-0.37,0.66c-0.17,0.2-0.37,0.37-0.62,0.5c-0.24,0.13-0.48,0.21-0.71,0.25
			c-0.24,0.04-0.47,0.03-0.69-0.02c-0.22-0.05-0.43-0.15-0.62-0.3c-0.19-0.15-0.36-0.34-0.5-0.58l0.46-0.25
			C560.54,301.61,560.67,301.75,560.81,301.86z"/>
	</g>
	<g>
		<path class="st2" d="M580,309.78c-0.13-0.25-0.21-0.5-0.23-0.74c-0.02-0.24-0.01-0.47,0.04-0.7s0.13-0.45,0.23-0.67
			c0.1-0.22,0.21-0.44,0.32-0.66c0.11-0.22,0.23-0.43,0.33-0.65c0.11-0.22,0.2-0.44,0.26-0.66c0.06-0.22,0.09-0.42,0.08-0.6
			c-0.01-0.19-0.07-0.38-0.18-0.58c-0.09-0.16-0.2-0.29-0.33-0.39c-0.13-0.09-0.27-0.16-0.43-0.19c-0.15-0.03-0.31-0.03-0.47-0.01
			c-0.16,0.03-0.32,0.09-0.48,0.17c-0.21,0.11-0.36,0.25-0.47,0.41c-0.11,0.16-0.17,0.33-0.19,0.51c-0.02,0.18,0,0.37,0.05,0.56
			c0.05,0.19,0.13,0.38,0.24,0.57l-0.46,0.25c-0.15-0.26-0.25-0.52-0.3-0.77c-0.05-0.26-0.06-0.5-0.01-0.73
			c0.05-0.23,0.15-0.45,0.31-0.65c0.16-0.2,0.37-0.38,0.65-0.53c0.22-0.12,0.45-0.2,0.67-0.25c0.22-0.04,0.44-0.05,0.65-0.01
			c0.21,0.04,0.4,0.13,0.58,0.26c0.18,0.14,0.33,0.32,0.46,0.56c0.12,0.21,0.19,0.43,0.21,0.64c0.02,0.21,0.02,0.42-0.02,0.63
			c-0.04,0.21-0.1,0.42-0.19,0.62c-0.09,0.21-0.18,0.41-0.29,0.61c-0.08,0.15-0.17,0.32-0.28,0.51c-0.11,0.19-0.21,0.39-0.29,0.59
			c-0.09,0.2-0.15,0.41-0.19,0.62c-0.04,0.21-0.03,0.4,0.04,0.59l2.82-1.54l0.23,0.42L580,309.78z"/>
		<path class="st2" d="M584.03,301.24c0.32,0.04,0.61,0.15,0.88,0.33c0.27,0.18,0.51,0.41,0.72,0.7c0.22,0.28,0.4,0.57,0.56,0.87
			c0.16,0.3,0.31,0.62,0.43,0.95c0.12,0.33,0.19,0.66,0.2,0.98c0.01,0.32-0.06,0.63-0.2,0.91c-0.14,0.29-0.4,0.53-0.77,0.73
			c-0.37,0.2-0.71,0.29-1.03,0.25c-0.32-0.03-0.61-0.14-0.88-0.32c-0.27-0.18-0.51-0.41-0.72-0.7c-0.22-0.28-0.4-0.57-0.57-0.87
			c-0.16-0.3-0.31-0.62-0.43-0.95c-0.12-0.33-0.19-0.66-0.2-0.98c-0.01-0.32,0.06-0.63,0.2-0.92c0.14-0.29,0.4-0.53,0.77-0.73
			C583.37,301.29,583.71,301.21,584.03,301.24z M582.63,302.48c-0.09,0.25-0.12,0.5-0.09,0.78c0.03,0.27,0.1,0.55,0.22,0.82
			c0.11,0.28,0.23,0.52,0.35,0.74c0.12,0.22,0.27,0.46,0.44,0.7c0.17,0.24,0.36,0.45,0.57,0.63c0.21,0.18,0.45,0.29,0.7,0.35
			c0.26,0.05,0.53,0,0.82-0.16c0.29-0.16,0.48-0.36,0.57-0.61c0.09-0.25,0.12-0.5,0.09-0.78c-0.03-0.27-0.11-0.55-0.22-0.82
			c-0.11-0.27-0.23-0.52-0.35-0.75c-0.12-0.22-0.26-0.45-0.44-0.69c-0.17-0.25-0.36-0.45-0.57-0.63c-0.21-0.17-0.44-0.29-0.7-0.34
			c-0.26-0.05-0.53,0-0.82,0.16C582.91,302.04,582.72,302.24,582.63,302.48z"/>
		<path class="st2" d="M586.8,300.7c0.15-0.11,0.27-0.22,0.36-0.35c0.08-0.13,0.13-0.28,0.14-0.45c0.01-0.17-0.03-0.38-0.13-0.63
			l0.37-0.2l2.78,5.08l-0.46,0.25l-2.06-3.77l-1.34,0.73l-0.18-0.33C586.47,300.91,586.64,300.81,586.8,300.7z"/>
		<path class="st2" d="M592.27,297.26c-0.28-0.07-0.57-0.03-0.86,0.13c-0.3,0.16-0.49,0.37-0.6,0.62c-0.1,0.25-0.14,0.52-0.12,0.8
			c0.02,0.28,0.09,0.57,0.2,0.85c0.11,0.28,0.23,0.54,0.36,0.77l0.01-0.01c-0.02-0.32,0.06-0.62,0.21-0.91
			c0.16-0.29,0.38-0.51,0.67-0.67c0.26-0.14,0.51-0.22,0.76-0.25c0.25-0.03,0.49-0.01,0.72,0.06c0.23,0.07,0.44,0.19,0.63,0.35
			c0.19,0.16,0.36,0.37,0.49,0.62c0.13,0.25,0.22,0.5,0.25,0.76c0.03,0.26,0.01,0.5-0.06,0.74c-0.07,0.24-0.19,0.45-0.35,0.65
			c-0.16,0.2-0.37,0.37-0.62,0.51c-0.31,0.17-0.6,0.27-0.88,0.29c-0.27,0.03-0.54-0.03-0.8-0.16c-0.26-0.13-0.52-0.35-0.78-0.65
			c-0.26-0.3-0.52-0.7-0.79-1.2c-0.06-0.1-0.12-0.24-0.2-0.41c-0.08-0.17-0.15-0.36-0.2-0.57s-0.1-0.43-0.12-0.67
			c-0.02-0.23-0.01-0.47,0.04-0.69c0.05-0.23,0.15-0.44,0.29-0.65c0.15-0.21,0.36-0.38,0.63-0.53c0.45-0.25,0.87-0.34,1.26-0.26
			c0.38,0.07,0.73,0.32,1.03,0.74l-0.46,0.25C592.79,297.5,592.55,297.33,592.27,297.26z M591.88,299.63
			c-0.12,0.16-0.2,0.32-0.24,0.5c-0.04,0.18-0.05,0.37-0.01,0.56c0.03,0.19,0.1,0.38,0.2,0.57c0.1,0.18,0.21,0.34,0.35,0.47
			c0.14,0.13,0.29,0.23,0.46,0.29c0.17,0.06,0.35,0.08,0.55,0.06c0.2-0.02,0.41-0.09,0.63-0.21c0.18-0.1,0.33-0.23,0.44-0.38
			c0.11-0.15,0.19-0.32,0.23-0.49c0.04-0.18,0.05-0.36,0.02-0.55c-0.03-0.19-0.09-0.37-0.19-0.55c-0.1-0.18-0.22-0.34-0.37-0.48
			c-0.15-0.13-0.3-0.23-0.47-0.3c-0.17-0.06-0.35-0.09-0.54-0.08c-0.19,0.01-0.38,0.07-0.58,0.18
			C592.15,299.34,592,299.47,591.88,299.63z"/>
	</g>
	<g>
		<path class="st2" d="M612.19,309.37c-0.13-0.25-0.21-0.5-0.23-0.74c-0.02-0.24-0.01-0.47,0.04-0.7c0.05-0.23,0.13-0.45,0.22-0.67
			c0.1-0.22,0.21-0.44,0.32-0.66c0.11-0.22,0.23-0.43,0.34-0.65c0.11-0.22,0.2-0.44,0.26-0.66c0.06-0.22,0.09-0.42,0.08-0.6
			c-0.01-0.19-0.07-0.38-0.18-0.58c-0.09-0.16-0.2-0.29-0.33-0.39c-0.13-0.1-0.27-0.16-0.43-0.19c-0.15-0.03-0.31-0.03-0.47,0
			c-0.16,0.03-0.32,0.09-0.48,0.17c-0.21,0.11-0.36,0.25-0.47,0.41c-0.11,0.16-0.17,0.33-0.19,0.51c-0.02,0.18-0.01,0.37,0.05,0.56
			c0.05,0.19,0.13,0.38,0.24,0.57l-0.46,0.25c-0.15-0.26-0.25-0.52-0.3-0.77c-0.06-0.26-0.06-0.5-0.01-0.73
			c0.05-0.23,0.15-0.45,0.31-0.65c0.16-0.2,0.37-0.38,0.65-0.53c0.22-0.12,0.45-0.2,0.67-0.25c0.22-0.04,0.44-0.05,0.65-0.01
			c0.21,0.04,0.4,0.13,0.58,0.26c0.18,0.14,0.33,0.32,0.46,0.56c0.12,0.21,0.19,0.43,0.21,0.64c0.02,0.21,0.02,0.42-0.02,0.63
			c-0.04,0.21-0.1,0.42-0.19,0.62c-0.09,0.21-0.18,0.41-0.29,0.61c-0.08,0.15-0.17,0.32-0.28,0.51c-0.11,0.19-0.21,0.39-0.29,0.59
			c-0.09,0.2-0.15,0.41-0.19,0.62c-0.04,0.21-0.03,0.4,0.04,0.59l2.82-1.54l0.23,0.42L612.19,309.37z"/>
		<path class="st2" d="M616.22,300.83c0.32,0.04,0.61,0.15,0.88,0.33c0.27,0.18,0.51,0.41,0.72,0.7c0.22,0.28,0.4,0.57,0.56,0.87
			c0.16,0.3,0.31,0.62,0.43,0.95c0.12,0.33,0.19,0.66,0.2,0.98c0.01,0.32-0.06,0.63-0.2,0.91c-0.14,0.29-0.4,0.53-0.77,0.73
			c-0.37,0.2-0.71,0.28-1.03,0.25c-0.32-0.03-0.61-0.14-0.88-0.32c-0.27-0.18-0.51-0.41-0.72-0.7c-0.22-0.28-0.4-0.57-0.56-0.87
			c-0.16-0.3-0.31-0.62-0.43-0.95c-0.12-0.33-0.19-0.66-0.2-0.98c-0.01-0.32,0.06-0.63,0.2-0.92c0.14-0.29,0.4-0.53,0.77-0.73
			C615.55,300.88,615.9,300.8,616.22,300.83z M614.82,302.07c-0.09,0.25-0.12,0.5-0.09,0.78c0.03,0.27,0.11,0.55,0.22,0.82
			c0.11,0.28,0.23,0.52,0.35,0.74c0.12,0.22,0.27,0.46,0.44,0.7c0.17,0.24,0.36,0.45,0.57,0.63c0.21,0.18,0.45,0.29,0.7,0.35
			c0.26,0.05,0.53,0,0.82-0.16c0.29-0.16,0.48-0.36,0.57-0.61c0.09-0.25,0.12-0.5,0.09-0.78c-0.03-0.27-0.11-0.55-0.22-0.82
			c-0.11-0.27-0.23-0.52-0.35-0.75c-0.12-0.22-0.26-0.45-0.44-0.69c-0.17-0.25-0.36-0.45-0.57-0.63c-0.21-0.17-0.44-0.29-0.7-0.34
			c-0.26-0.05-0.53,0-0.82,0.16C615.1,301.63,614.91,301.83,614.82,302.07z"/>
		<path class="st2" d="M618.99,300.29c0.15-0.11,0.27-0.22,0.36-0.35c0.08-0.13,0.13-0.28,0.14-0.45c0.01-0.17-0.03-0.38-0.13-0.63
			l0.37-0.2l2.78,5.08l-0.46,0.25l-2.06-3.77l-1.34,0.73l-0.18-0.33C618.66,300.51,618.83,300.4,618.99,300.29z"/>
		<path class="st2" d="M624.93,295.9l0.23,0.42c-0.07,0.25-0.14,0.58-0.21,0.98c-0.07,0.4-0.11,0.85-0.11,1.35
			c0,0.5,0.06,1.04,0.17,1.62c0.11,0.58,0.31,1.17,0.61,1.77l-0.49,0.27c-0.21-0.45-0.37-0.89-0.49-1.32
			c-0.12-0.43-0.2-0.87-0.23-1.33c-0.03-0.46-0.02-0.94,0.02-1.44c0.05-0.5,0.14-1.05,0.27-1.65l-2.81,1.54l-0.23-0.42L624.93,295.9
			z"/>
	</g>
	<g>
		<path class="st2" d="M643.91,309.41c-0.13-0.25-0.21-0.5-0.23-0.74c-0.02-0.24-0.01-0.47,0.04-0.7c0.05-0.23,0.13-0.45,0.23-0.67
			c0.1-0.22,0.21-0.44,0.32-0.66c0.11-0.22,0.23-0.43,0.33-0.65c0.11-0.22,0.2-0.44,0.26-0.66c0.06-0.22,0.09-0.42,0.08-0.6
			c-0.01-0.19-0.07-0.38-0.18-0.58c-0.09-0.16-0.2-0.29-0.33-0.39c-0.13-0.1-0.27-0.16-0.43-0.19s-0.31-0.03-0.47,0
			c-0.16,0.03-0.32,0.09-0.48,0.17c-0.21,0.11-0.36,0.25-0.47,0.41c-0.11,0.16-0.17,0.33-0.19,0.51c-0.02,0.18,0,0.37,0.05,0.56
			c0.05,0.19,0.13,0.38,0.24,0.57l-0.46,0.25c-0.15-0.26-0.25-0.52-0.3-0.77c-0.05-0.26-0.06-0.5-0.01-0.73
			c0.05-0.23,0.15-0.45,0.31-0.65c0.16-0.2,0.37-0.38,0.65-0.53c0.22-0.12,0.45-0.2,0.67-0.25s0.44-0.05,0.65-0.01
			c0.21,0.04,0.4,0.13,0.58,0.26c0.18,0.14,0.33,0.32,0.46,0.56c0.12,0.21,0.19,0.43,0.21,0.64c0.02,0.21,0.02,0.42-0.02,0.63
			c-0.04,0.21-0.1,0.42-0.19,0.62c-0.09,0.21-0.18,0.41-0.29,0.61c-0.08,0.15-0.17,0.32-0.28,0.51c-0.11,0.19-0.21,0.39-0.29,0.59
			c-0.09,0.2-0.15,0.41-0.19,0.62c-0.04,0.21-0.03,0.4,0.04,0.59l2.82-1.54l0.23,0.42L643.91,309.41z"/>
		<path class="st2" d="M647.94,300.87c0.32,0.04,0.61,0.15,0.88,0.33c0.27,0.18,0.51,0.41,0.72,0.7c0.22,0.28,0.4,0.57,0.56,0.87
			c0.16,0.3,0.31,0.62,0.43,0.95c0.12,0.33,0.19,0.66,0.2,0.98c0.01,0.32-0.06,0.63-0.2,0.91c-0.14,0.29-0.4,0.53-0.77,0.73
			c-0.37,0.2-0.71,0.28-1.03,0.25c-0.32-0.03-0.61-0.14-0.88-0.32c-0.27-0.18-0.51-0.41-0.72-0.7c-0.22-0.28-0.4-0.57-0.57-0.87
			c-0.16-0.3-0.31-0.62-0.43-0.95c-0.12-0.33-0.19-0.66-0.2-0.98c-0.01-0.32,0.06-0.63,0.2-0.92c0.14-0.29,0.4-0.53,0.77-0.73
			C647.28,300.92,647.62,300.83,647.94,300.87z M646.54,302.11c-0.09,0.25-0.12,0.5-0.09,0.78c0.03,0.27,0.1,0.55,0.22,0.82
			c0.11,0.28,0.23,0.52,0.35,0.74c0.12,0.22,0.27,0.46,0.44,0.7c0.17,0.24,0.36,0.45,0.57,0.63c0.21,0.18,0.45,0.29,0.7,0.35
			c0.26,0.05,0.53,0,0.82-0.16s0.48-0.36,0.57-0.61c0.09-0.25,0.12-0.5,0.09-0.78c-0.03-0.27-0.11-0.55-0.22-0.82
			c-0.11-0.27-0.23-0.52-0.35-0.75c-0.12-0.22-0.26-0.45-0.44-0.69c-0.17-0.25-0.36-0.45-0.57-0.63c-0.21-0.17-0.44-0.29-0.7-0.34
			c-0.26-0.05-0.53,0-0.82,0.16C646.82,301.66,646.63,301.86,646.54,302.11z"/>
		<path class="st2" d="M650.71,300.33c0.15-0.11,0.27-0.22,0.36-0.35c0.08-0.13,0.13-0.28,0.14-0.45s-0.03-0.38-0.13-0.63l0.37-0.2
			l2.78,5.08l-0.46,0.25l-2.06-3.77l-1.34,0.73l-0.18-0.33C650.38,300.54,650.56,300.43,650.71,300.33z"/>
		<path class="st2" d="M657.38,297.96c-0.04,0.28-0.17,0.52-0.39,0.74l0.01,0.01c0.37-0.11,0.71-0.11,1.01,0.02
			c0.3,0.13,0.55,0.36,0.74,0.71c0.14,0.26,0.22,0.51,0.23,0.75c0.01,0.24-0.03,0.47-0.12,0.68c-0.09,0.21-0.22,0.41-0.4,0.59
			c-0.18,0.18-0.38,0.33-0.63,0.47c-0.24,0.13-0.48,0.22-0.73,0.27s-0.48,0.06-0.71,0.02c-0.23-0.04-0.44-0.13-0.64-0.27
			c-0.2-0.14-0.36-0.34-0.5-0.6c-0.17-0.34-0.23-0.68-0.19-1.01c0.05-0.33,0.22-0.62,0.51-0.85l-0.01-0.01
			c-0.31,0.06-0.59,0.04-0.84-0.07c-0.25-0.11-0.45-0.31-0.6-0.59c-0.12-0.22-0.18-0.43-0.17-0.64c0-0.21,0.05-0.4,0.14-0.59
			c0.09-0.18,0.21-0.35,0.37-0.5c0.16-0.15,0.33-0.28,0.52-0.38c0.19-0.1,0.39-0.18,0.6-0.23c0.21-0.05,0.42-0.06,0.62-0.04
			c0.2,0.02,0.39,0.09,0.57,0.2c0.18,0.11,0.32,0.27,0.44,0.49C657.36,297.41,657.41,297.69,657.38,297.96z M658.09,301.21
			c0.13-0.13,0.23-0.28,0.3-0.43c0.06-0.16,0.09-0.33,0.08-0.51s-0.07-0.37-0.18-0.56c-0.1-0.18-0.22-0.33-0.37-0.43
			s-0.3-0.16-0.47-0.19c-0.17-0.03-0.35-0.02-0.53,0.02c-0.18,0.04-0.36,0.11-0.52,0.21c-0.18,0.09-0.33,0.2-0.47,0.33
			c-0.13,0.13-0.23,0.27-0.3,0.43c-0.06,0.16-0.09,0.33-0.09,0.5c0.01,0.18,0.06,0.36,0.16,0.54c0.1,0.19,0.23,0.34,0.38,0.45
			c0.15,0.11,0.3,0.18,0.47,0.21c0.17,0.03,0.34,0.03,0.53-0.01c0.18-0.04,0.36-0.11,0.54-0.2
			C657.8,301.46,657.96,301.34,658.09,301.21z M656.56,298.65c0.11-0.11,0.19-0.23,0.25-0.36c0.06-0.13,0.08-0.27,0.08-0.43
			c-0.01-0.15-0.05-0.31-0.14-0.48c-0.08-0.15-0.18-0.26-0.29-0.34c-0.12-0.08-0.24-0.13-0.38-0.15c-0.14-0.02-0.28-0.01-0.43,0.02
			c-0.15,0.03-0.31,0.09-0.46,0.18c-0.14,0.08-0.27,0.17-0.37,0.28c-0.11,0.11-0.2,0.23-0.26,0.36c-0.06,0.13-0.09,0.26-0.09,0.41
			c0,0.14,0.04,0.29,0.12,0.43c0.09,0.17,0.2,0.3,0.33,0.38c0.13,0.09,0.27,0.14,0.41,0.16c0.14,0.02,0.29,0.01,0.44-0.02
			c0.15-0.04,0.29-0.1,0.42-0.17C656.33,298.85,656.45,298.76,656.56,298.65z"/>
	</g>
	<g>
		<path class="st2" d="M675.23,309.4c-0.13-0.25-0.21-0.5-0.23-0.74c-0.02-0.24-0.01-0.47,0.04-0.7c0.05-0.23,0.13-0.45,0.22-0.67
			c0.1-0.22,0.21-0.44,0.32-0.66c0.11-0.22,0.23-0.43,0.34-0.65c0.11-0.22,0.2-0.44,0.26-0.66c0.06-0.22,0.09-0.42,0.08-0.6
			c-0.01-0.19-0.07-0.38-0.18-0.58c-0.09-0.16-0.2-0.29-0.33-0.39c-0.13-0.1-0.27-0.16-0.42-0.19c-0.15-0.03-0.31-0.03-0.47,0
			s-0.32,0.09-0.48,0.17c-0.21,0.11-0.36,0.25-0.47,0.41c-0.11,0.16-0.17,0.33-0.19,0.51c-0.02,0.18-0.01,0.37,0.05,0.56
			c0.05,0.19,0.13,0.38,0.24,0.57l-0.46,0.25c-0.15-0.26-0.25-0.52-0.3-0.77c-0.06-0.26-0.06-0.5-0.01-0.73
			c0.05-0.23,0.15-0.45,0.31-0.65c0.16-0.2,0.37-0.38,0.65-0.53c0.22-0.12,0.45-0.2,0.67-0.25c0.22-0.04,0.44-0.05,0.65-0.01
			c0.21,0.04,0.4,0.13,0.58,0.26c0.18,0.14,0.33,0.32,0.46,0.56c0.12,0.21,0.19,0.43,0.21,0.64c0.03,0.21,0.02,0.42-0.02,0.63
			c-0.04,0.21-0.1,0.42-0.19,0.62c-0.09,0.21-0.18,0.41-0.29,0.61c-0.08,0.15-0.17,0.32-0.28,0.51c-0.11,0.19-0.21,0.39-0.29,0.59
			c-0.09,0.2-0.15,0.41-0.19,0.62c-0.04,0.21-0.03,0.4,0.04,0.59l2.82-1.54l0.23,0.42L675.23,309.4z"/>
		<path class="st2" d="M679.26,300.86c0.32,0.04,0.61,0.15,0.88,0.33s0.51,0.41,0.72,0.7c0.22,0.28,0.4,0.57,0.56,0.87
			c0.16,0.3,0.31,0.62,0.43,0.95c0.12,0.33,0.19,0.66,0.2,0.98c0.01,0.32-0.06,0.63-0.2,0.91c-0.14,0.29-0.4,0.53-0.77,0.73
			c-0.37,0.2-0.71,0.29-1.03,0.25c-0.32-0.03-0.61-0.14-0.88-0.32c-0.27-0.18-0.51-0.41-0.72-0.7c-0.22-0.28-0.4-0.57-0.56-0.87
			c-0.16-0.3-0.31-0.62-0.43-0.95c-0.12-0.33-0.19-0.66-0.2-0.98c-0.01-0.32,0.06-0.63,0.2-0.92c0.14-0.29,0.4-0.53,0.77-0.73
			C678.6,300.91,678.94,300.83,679.26,300.86z M677.86,302.1c-0.09,0.25-0.12,0.5-0.09,0.77c0.03,0.27,0.1,0.55,0.22,0.82
			c0.11,0.28,0.23,0.52,0.35,0.74c0.12,0.22,0.27,0.46,0.44,0.7c0.17,0.24,0.36,0.45,0.57,0.63c0.21,0.18,0.45,0.29,0.7,0.35
			c0.26,0.05,0.53,0,0.82-0.16c0.29-0.16,0.48-0.36,0.57-0.61c0.09-0.25,0.12-0.5,0.09-0.78c-0.03-0.27-0.11-0.55-0.22-0.82
			c-0.11-0.27-0.23-0.52-0.35-0.75c-0.12-0.22-0.26-0.45-0.44-0.69c-0.17-0.25-0.36-0.45-0.57-0.63c-0.21-0.17-0.44-0.29-0.7-0.34
			c-0.26-0.05-0.53,0-0.82,0.16C678.14,301.66,677.95,301.86,677.86,302.1z"/>
		<path class="st2" d="M682.03,300.32c0.15-0.11,0.27-0.22,0.36-0.35c0.08-0.13,0.13-0.28,0.14-0.45c0.01-0.17-0.03-0.38-0.13-0.63
			l0.37-0.2l2.78,5.08l-0.46,0.25l-2.06-3.77l-1.34,0.73l-0.18-0.33C681.7,300.54,681.88,300.43,682.03,300.32z"/>
		<path class="st2" d="M687.95,301.75c0.28,0.07,0.57,0.03,0.87-0.13c0.3-0.16,0.5-0.37,0.6-0.62c0.1-0.25,0.14-0.51,0.12-0.8
			c-0.02-0.28-0.09-0.57-0.2-0.85c-0.11-0.28-0.23-0.54-0.36-0.77l-0.01,0.01c0.02,0.32-0.06,0.62-0.21,0.91
			c-0.16,0.29-0.38,0.51-0.67,0.67c-0.25,0.14-0.5,0.22-0.76,0.25c-0.25,0.03-0.49,0.01-0.72-0.06c-0.23-0.07-0.44-0.19-0.63-0.35
			c-0.19-0.16-0.36-0.37-0.49-0.62c-0.13-0.25-0.22-0.5-0.25-0.76c-0.03-0.26-0.01-0.5,0.06-0.74c0.07-0.24,0.19-0.45,0.35-0.66
			c0.16-0.2,0.37-0.37,0.62-0.51c0.31-0.17,0.6-0.27,0.88-0.3c0.27-0.03,0.54,0.03,0.81,0.16c0.26,0.14,0.52,0.36,0.78,0.66
			c0.26,0.31,0.52,0.7,0.79,1.2c0.06,0.1,0.12,0.24,0.2,0.41c0.08,0.17,0.15,0.36,0.2,0.57s0.1,0.43,0.12,0.67
			c0.02,0.24,0.01,0.46-0.04,0.69c-0.05,0.23-0.15,0.44-0.29,0.65c-0.15,0.2-0.36,0.38-0.63,0.53c-0.45,0.25-0.87,0.34-1.26,0.27
			c-0.38-0.07-0.73-0.32-1.02-0.74l0.46-0.25C687.43,301.52,687.67,301.68,687.95,301.75z M688.34,299.39
			c0.12-0.16,0.2-0.32,0.24-0.5c0.04-0.18,0.05-0.37,0.01-0.56c-0.03-0.19-0.1-0.38-0.2-0.57c-0.1-0.18-0.22-0.34-0.35-0.47
			c-0.13-0.13-0.29-0.23-0.45-0.29c-0.17-0.06-0.35-0.08-0.55-0.06c-0.2,0.02-0.41,0.09-0.63,0.21c-0.18,0.1-0.32,0.22-0.44,0.37
			c-0.11,0.15-0.19,0.32-0.23,0.5c-0.04,0.18-0.05,0.36-0.02,0.55c0.03,0.19,0.09,0.37,0.19,0.55c0.1,0.18,0.22,0.34,0.37,0.48
			c0.15,0.13,0.3,0.23,0.47,0.3c0.17,0.06,0.35,0.09,0.54,0.08c0.19-0.01,0.38-0.07,0.58-0.18
			C688.06,299.68,688.22,299.54,688.34,299.39z"/>
	</g>
	<rect x="14.47" y="280.93" class="st3" width="27.52" height="7.37"/>
	<text transform="matrix(1 0 0 1 37.3957 286.8325)" class="st2 st4 st5">0</text>
	<rect x="14.47" y="255.02" class="st3" width="27.52" height="7.37"/>
	<text transform="matrix(1 0 0 1 28.1989 260.9302)" class="st2 st4 st5">500</text>
	<rect x="14.47" y="228.33" class="st3" width="27.52" height="7.37"/>
	<text transform="matrix(1 0 0 1 23.6003 234.2397)" class="st2 st4 st5">1000</text>
	<rect x="14.47" y="200.88" class="st3" width="27.52" height="7.37"/>
	<text transform="matrix(1 0 0 1 23.6003 206.7896)" class="st2 st4 st5">1500</text>
	<rect x="14.47" y="174.46" class="st3" width="27.52" height="7.37"/>
	<text transform="matrix(1 0 0 1 23.6003 180.3647)" class="st2 st4 st5">2000</text>
	<rect x="14.47" y="147.95" class="st3" width="27.52" height="7.37"/>
	<text transform="matrix(1 0 0 1 23.6003 153.854)" class="st2 st4 st5">2500</text>
	<rect x="14.47" y="120.68" class="st3" width="27.52" height="7.37"/>
	<text transform="matrix(1 0 0 1 23.6003 126.5815)" class="st2 st4 st5">3000</text>
	<rect x="14.47" y="94.22" class="st3" width="27.52" height="7.37"/>
	<text transform="matrix(1 0 0 1 23.6003 100.1294)" class="st2 st4 st5">3500</text>
	<rect x="14.47" y="67.62" class="st3" width="27.52" height="7.37"/>
	<text transform="matrix(1 0 0 1 23.6003 73.5239)" class="st2 st4 st5">4000</text>
	<rect x="14.47" y="40.77" class="st3" width="27.52" height="7.37"/>
	<text transform="matrix(1 0 0 1 23.6003 46.6772)" class="st2 st4 st5">4500</text>
	<rect x="14.47" y="12.9" class="st3" width="27.52" height="7.37"/>
	<text transform="matrix(1 0 0 1 23.6003 18.8032)" class="st2 st4 st5">5000</text>
	<g>
		<g>
			<g>
				<line class="st6" x1="626.8" y1="200.88" x2="626.8" y2="262.77"/>
				<g>
					<polygon class="st2" points="623.09,259.96 626.8,261.54 630.5,259.96 626.8,268.74 					"/>
				</g>
			</g>
		</g>
		<rect x="410.99" y="124.04" class="st7" width="242.96" height="80.22"/>
	</g>
	<polyline class="st8" points="62.22,246.74 93.85,256.76 126.41,258.64 157.26,258.11 184.54,260.18 219.28,261.69 250.31,23.41 
		282.27,273.31 313.24,253.06 344.77,273.31 376.5,268.39 408.13,273.31 438.77,264.09 470.97,263.19 502.27,254.2 532.86,252.07 
		564.42,234.08 595.8,257.66 658.31,233.7 689.82,270.18 	"/>
</g>
<rect x="421.59" y="137.55" class="st3" width="227.35" height="55.2"/>
<text transform="matrix(1 0 0 1 421.5862 145.1536)"><tspan x="0" y="0" class="st9 st10">The largest aquisition of New Media Art was in </tspan><tspan x="0" y="14" class="st9 st10">2017 as The Met recieved 175 works from the </tspan><tspan x="0" y="28" class="st9 st10">artist William Wegman. This would make up  </tspan><tspan x="0" y="42" class="st9 st10">3.6% of the Gillman Collection donation in 2005. </tspan></text>
</svg>
